<?xml version="1.0" encoding="UTF-8"?>
<svg width="67px" height="66px" viewBox="0 0 67 66" version="1.1" xmlns="http://www.w3.org/2000/svg" xmlns:xlink="http://www.w3.org/1999/xlink">
    <!-- Generator: Sketch 49 (51002) - http://www.bohemiancoding.com/sketch -->
    <title>Asset 11</title>
    <desc>Created with Sketch.</desc>
    <defs>
        <linearGradient x1="49.955075%" y1="-0.0150820325%" x2="49.955075%" y2="100%" id="linearGradient-1">
            <stop stop-color="#06A54C" offset="0%"></stop>
            <stop stop-color="#06A54C" offset="100%"></stop>
        </linearGradient>
        <linearGradient x1="3424%" y1="5052%" x2="6205%" y2="5052%" id="linearGradient-2">
            <stop stop-color="#06A54C" offset="0%"></stop>
            <stop stop-color="#06A54C" offset="100%"></stop>
        </linearGradient>
        <linearGradient x1="4824%" y1="3401%" x2="4824%" y2="5067%" id="linearGradient-3">
            <stop stop-color="#06A54C" offset="0%"></stop>
            <stop stop-color="#06A54C" offset="100%"></stop>
        </linearGradient>
    </defs>
    <g id="Page-1" stroke="none" stroke-width="1" fill="none" fill-rule="evenodd">
        <g id="Self-Employed" transform="translate(-918.000000, -976.000000)" fill-rule="nonzero">
            <g id="Asset-11" transform="translate(918.000000, 976.000000)">
                <path d="M46,52.62 C46.1,52.47 46.2,52.29 46.33,52.1 L49.2,47.35 C49.28,47.21 49.38,47.07 49.47,46.92 L49.47,16.08 C49.4721637,15.616377 49.3803138,15.1571275 49.2,14.73 C49.0183022,14.2994756 48.7493064,13.9113044 48.41,13.59 L35.28,1 C34.9657144,0.678551559 34.5876007,0.426475764 34.17,0.26 C33.7576985,0.0896163068 33.3161182,0.0013002628 32.87,0 L7.69,0 C3.44293027,-6.40864515e-16 5.20116035e-16,3.44293027 0,7.69 L0,54.47 C5.20116035e-16,58.7170697 3.44293027,62.16 7.69,62.16 L41.78,62.16 C46.0247857,62.1544909 49.4644909,58.7147857 49.47,54.47 L49.47,45.47 C48.2966667,47.05 47.09,48.6 45.85,50.12 L45.85,54.42" id="Shape" fill="#FFFFFF"></path>
                <path d="M45.83,54.44 C45.8302423,56.6590521 44.0488098,58.4672061 41.83,58.5 L7.69,58.5 C5.44772392,58.5 3.63,56.6822761 3.63,54.44 L3.63,7.66 C3.62999672,6.58413836 4.05806436,5.55248664 4.81975088,4.7926762 C5.58143741,4.03286575 6.61414164,3.60734355 7.69,3.61 L31.69,3.61 L31.69,9.49 C31.6873456,11.5285947 32.4953141,13.4846028 33.9358813,14.9270457 C35.3764485,16.3694886 37.3314036,17.1800017 39.37,17.18 L45.8,17.18 L45.8,52.87 C45.8572788,52.791256 45.9074747,52.7075961 45.95,52.62 C46.05,52.47 46.15,52.29 46.28,52.1 L49.15,47.35 C49.23,47.21 49.33,47.07 49.42,46.92 L49.42,16.08 C49.4221637,15.616377 49.3303138,15.1571275 49.15,14.73 C48.9683022,14.2994756 48.6993064,13.9113044 48.36,13.59 L35.28,1 C34.9657144,0.678551559 34.5876007,0.426475764 34.17,0.26 C33.7576985,0.0896163068 33.3161182,0.0013002628 32.87,0 L7.69,0 C3.44293027,-6.40864515e-16 5.20116035e-16,3.44293027 0,7.69 L0,54.47 C5.20116035e-16,58.7170697 3.44293027,62.16 7.69,62.16 L41.78,62.16 C46.0247857,62.1544909 49.4644909,58.7147857 49.47,54.47 L49.47,45.47 C48.2966667,47.05 47.09,48.6 45.85,50.12 L45.85,54.42 L45.83,54.44 Z" id="Shape" fill="#4F4E50"></path>
                <path d="M42.11,33.33 C42.1100151,32.3287341 41.3012508,31.5155015 40.3,31.51 L9.79,31.51 C8.78484176,31.51 7.97,32.3248418 7.97,33.33 C7.97,34.3351582 8.78484176,35.15 9.79,35.15 L40.31,35.15 C41.3073391,35.1390396 42.1100602,34.3273993 42.11,33.33 Z" id="Shape" fill="#4F4E50"></path>
                <path d="M42.11,26 C42.1100151,24.9987341 41.3012508,24.1855015 40.3,24.18 L9.79,24.18 C9.10940393,24.1294466 8.4577245,24.4639042 8.10198782,25.0463285 C7.74625114,25.6287528 7.74625114,26.3612472 8.10198782,26.9436715 C8.4577245,27.5260958 9.10940393,27.8605534 9.79,27.81 L40.31,27.81 C41.3057279,27.8044987 42.1100152,26.9957431 42.11,26 Z" id="Shape" fill="#4F4E50"></path>
                <path d="M42.11,40.5 C42.1100151,39.4987341 41.3012508,38.6855015 40.3,38.68 L9.79,38.68 C9.10940393,38.6294466 8.4577245,38.9639042 8.10198782,39.5463285 C7.74625114,40.1287528 7.74625114,40.8612472 8.10198782,41.4436715 C8.4577245,42.0260958 9.10940393,42.3605534 9.79,42.31 L40.31,42.31 C41.3057279,42.3044987 42.1100152,41.4957431 42.11,40.5 Z" id="Shape" fill="#4F4E50"></path>
                <path d="M42.11,47.83 C42.1126595,47.3473038 41.9234559,46.8833219 41.5840135,46.5401287 C41.2445711,46.1969356 40.7826963,46.0026449 40.3,46 L9.79,46 C8.78484176,46 7.97,46.8148418 7.97,47.82 C7.97,48.8251582 8.78484176,49.64 9.79,49.64 L40.31,49.64 C41.3073391,49.6290396 42.1100602,48.8173993 42.11,47.82 L42.11,47.83 Z" id="Shape" fill="#4F4E50"></path>
                <path d="M26.82,16.27 L9.82,16.27 C8.81484176,16.27 8,17.0848418 8,18.09 C8,19.0951582 8.81484176,19.91 9.82,19.91 L26.82,19.91 C27.8251582,19.91 28.64,19.0951582 28.64,18.09 C28.64,17.0848418 27.8251582,16.27 26.82,16.27 Z" id="Shape" fill="#4F4E50"></path>
                <path d="M64.43,47.89 L48.86,34.27 C48.5168606,33.9293331 47.9631394,33.9293331 47.62,34.27 L32.05,47.89 C31.6760754,48.2386866 31.6537418,48.8238255 32,49.2 L33,50.36 C33.3242073,50.7253304 33.8773919,50.7736243 34.26,50.47 L34.26,62.76 C34.26,63.3619904 34.7480096,63.85 35.35,63.85 L61,63.85 C61.6019904,63.85 62.09,63.3619904 62.09,62.76 L62.09,50.32 L62.24,50.44 C62.4228869,50.6020294 62.6627166,50.6846516 62.9065935,50.6696438 C63.1504703,50.654636 63.3783599,50.5432311 63.54,50.36 L64.54,49.2 C64.8655438,48.8060358 64.8166839,48.2241588 64.43,47.89 Z" id="Shape" stroke="#FFFFFF" stroke-width="4" fill="url(#linearGradient-1)"></path>
                <path d="M61.34,48.4 L49.21,37.8 C49.21,37.8 48.5,37.19 48.1,37.19 C47.7,37.19 47.49,37.46 47.1,37.8 L35,48.4 C34.5443525,48.7003028 34.2759248,49.2144743 34.29,49.76 L34.29,62.76 C34.29,63.3619904 34.7780096,63.85 35.38,63.85 L61,63.85 C61.6019904,63.85 62.09,63.3619904 62.09,62.76 L62.09,49.76 C62.1015328,49.2050813 61.8154687,48.6863517 61.34,48.4 Z" id="Shape" fill="url(#linearGradient-2)"></path>
                <path d="M51.52,57.66 C50.8572744,58.1444725 50.0899908,58.4664575 49.28,58.6 L49.28,59.73 C49.3333807,60.0910657 49.1706206,60.4499772 48.8638332,60.6477129 C48.5570459,60.8454486 48.1629541,60.8454486 47.8561668,60.6477129 C47.5493794,60.4499772 47.3866193,60.0910657 47.44,59.73 L47.44,58.64 C46.5233359,58.5352147 45.650589,58.1902554 44.91,57.64 C44.5527323,57.3604134 44.2183382,57.0527709 43.91,56.72 C43.35,56.04 44.16,55.39 44.98,55.05 L45.44,54.85 C45.8864801,54.8882903 46.2842677,55.1472275 46.5,55.54 C46.5867537,55.6553776 46.687528,55.7595111 46.8,55.85 C47.6497986,56.3962136 48.7402014,56.3962136 49.59,55.85 C49.9136896,55.6204591 50.1042586,55.2467945 50.1,54.85 C50.1165276,54.4848167 49.9324738,54.1397159 49.62,53.95 C49.1373414,53.6496663 48.5874307,53.4743822 48.02,53.44 C46.9958914,53.3504186 46.0181268,52.9724883 45.2,52.35 C44.4086772,51.7502795 43.9338027,50.8226177 43.91,49.83 C44.0503109,47.9456575 45.5373683,46.4416535 47.42,46.28 L47.42,45.19 C47.3666193,44.8289343 47.5293794,44.4700228 47.8361668,44.2722871 C48.1429541,44.0745514 48.5370459,44.0745514 48.8438332,44.2722871 C49.1506206,44.4700228 49.3133807,44.8289343 49.26,45.19 L49.26,46.39 C50.2609088,46.6606424 51.1941981,47.1375055 52,47.79 C52.67,48.39 51.9,49.01 51.15,49.5 L50.6,49.85 C50.2059659,49.8200167 49.8530986,49.5947823 49.66,49.25 C49.2659982,48.8539319 48.7286328,48.6339367 48.17,48.64 C47.4475154,48.5935064 46.8187423,49.1292919 46.75,49.85 C46.7568364,50.1524454 46.9002212,50.4355384 47.14,50.62 C47.4957301,50.8741356 47.9141198,51.0262774 48.35,51.06 C49.4582561,51.1510215 50.5250945,51.5226942 51.45,52.14 C52.3941462,52.7302314 52.9769859,53.7567815 53,54.87 C52.9813741,55.983204 52.4312333,57.0202938 51.52,57.66 Z" id="Shape" fill="#FFFFFF"></path>
                <path d="M64.43,47.89 L48.86,34.27 C48.5168606,33.9293331 47.9631394,33.9293331 47.62,34.27 L32.05,47.89 C31.6760754,48.2386866 31.6537418,48.8238255 32,49.2 L33,50.36 C33.3401673,50.7427861 33.9257817,50.7785489 34.31,50.44 L48.31,38.23 L62.31,50.44 C62.4928869,50.6020294 62.7327166,50.6846516 62.9765935,50.6696438 C63.2204703,50.654636 63.4483599,50.5432311 63.61,50.36 L64.61,49.2 C64.9191837,48.7878036 64.8389016,48.2035282 64.43,47.89 Z" id="Shape" fill="url(#linearGradient-3)"></path>
            </g>
        </g>
    </g>
</svg>