<?xml version="1.0" encoding="UTF-8"?>
<svg width="59px" height="59px" viewBox="0 0 59 59" version="1.1" xmlns="http://www.w3.org/2000/svg" xmlns:xlink="http://www.w3.org/1999/xlink">
    <!-- Generator: Sketch 49 (51002) - http://www.bohemiancoding.com/sketch -->
    <title>Asset 17</title>
    <desc>Created with Sketch.</desc>
    <defs></defs>
    <g id="Page-1" stroke="none" stroke-width="1" fill="none" fill-rule="evenodd">
        <g id="How-much-I-can-borrow" transform="translate(-328.000000, -945.000000)" fill-rule="nonzero">
            <g id="Asset-17" transform="translate(327.000000, 945.000000)">
                <path d="M30.24,-4.23516474e-22 C18.4085695,6.91441654e-07 7.74232597,7.12761688 3.21556828,18.0588205 C-1.31118941,28.9900242 1.19314982,41.5717549 9.5606648,49.9364092 C17.9281798,58.3010635 30.5107661,60.8011004 41.4404212,56.2706051 C52.3700764,51.7401099 59.4940449,41.0714298 59.49,29.24 C59.4900005,21.4833369 56.4079938,14.0445126 50.9222671,8.56066138 C45.4365403,3.07681013 37.9966626,-0.00265275755 30.24,-4.23516474e-22 Z" id="Shape" fill="#2BAF49"></path>
                <path d="M18.13,21.92 C20.197155,21.9124558 21.9483456,20.3950407 22.25,18.35 L45.49,18.35 C45.7889769,18.3111591 46.0127019,18.0564893 46.0127019,17.755 C46.0127019,17.4535107 45.7889769,17.1988409 45.49,17.16 L22.25,17.16 C21.9299423,14.9641412 19.9426775,13.4060724 17.7338787,13.61924 C15.5250798,13.8324076 13.8724499,15.7417567 13.9782256,17.9582956 C14.0840012,20.1748344 15.9109395,21.9181347 18.13,21.92 Z M18.13,14.78 C19.7868542,14.78 21.13,16.1231458 21.13,17.78 C21.13,19.4368542 19.7868542,20.78 18.13,20.78 C16.4731458,20.78 15.13,19.4368542 15.13,17.78 C15.13,16.1231458 16.4731458,14.78 18.13,14.78 Z" id="Shape" stroke="#FFFFFF" stroke-width="2.5" fill="#FFFFFF"></path>
                <path d="M41.92,38.57 C39.8545258,38.5725474 38.1021424,40.0867427 37.8,42.13 L14.57,42.13 C14.4108701,42.13 14.2582578,42.1932141 14.1457359,42.3057359 C14.0332141,42.4182578 13.97,42.5708701 13.97,42.73 C13.9699773,42.8882259 14.0335086,43.0398303 14.1463274,43.1507687 C14.2591462,43.2617072 14.4117969,43.3226818 14.57,43.32 L37.8,43.32 C38.1149341,45.5181036 40.1007412,47.0813442 42.3113403,46.8713571 C44.5219394,46.66137 46.1778981,44.7521943 46.0733337,42.5341075 C45.9687692,40.3160206 44.1405499,38.5710951 41.92,38.57 Z M41.92,45.7 C40.2631458,45.7 38.92,44.3568542 38.92,42.7 C38.92,41.0431458 40.2631458,39.7 41.92,39.7 C43.5768542,39.7 44.92,41.0431458 44.92,42.7 C44.92,44.3568542 43.5768542,45.7 41.92,45.7 Z" id="Shape" stroke="#FFFFFF" stroke-width="2.5" fill="#FFFFFF"></path>
                <path d="M45.49,29.65 L34.41,29.65 C34.1534183,27.4918002 32.3233984,25.8664583 30.15,25.8664583 C27.9766016,25.8664583 26.1465817,27.4918002 25.89,29.65 L14.57,29.65 C14.4117969,29.6473182 14.2591462,29.7082928 14.1463274,29.8192313 C14.0335086,29.9301697 13.9699773,30.0817741 13.97,30.24 C13.97,30.5713708 14.2386292,30.84 14.57,30.84 L25.93,30.84 C26.2784284,32.8989268 28.0617994,34.4058572 30.15,34.4058572 C32.2382006,34.4058572 34.0215716,32.8989268 34.37,30.84 L45.49,30.84 C45.6482259,30.8400227 45.7998303,30.7764914 45.9107687,30.6636726 C46.0217072,30.5508538 46.0826818,30.3982031 46.08,30.24 C46.0827363,30.0826994 46.0214548,29.9310355 45.9102097,29.8197903 C45.7989645,29.7085452 45.6473006,29.6472637 45.49,29.65 Z M30.15,33.21 C28.8943562,33.214044 27.7602876,32.4602395 27.2779036,31.3009452 C26.7955196,30.1416508 27.0601062,28.8058639 27.9479851,27.9179851 C28.8358639,27.0301062 30.1716508,26.7655196 31.3309452,27.2479036 C32.4902395,27.7302876 33.244044,28.8643562 33.24,30.12 C33.24,31.8265599 31.8565599,33.21 30.15,33.21 Z" id="Shape" stroke="#FFFFFF" stroke-width="2.5" fill="#FFFFFF"></path>
            </g>
        </g>
    </g>
</svg>