<?xml version="1.0" encoding="UTF-8"?>
<svg width="50px" height="63px" viewBox="0 0 50 63" version="1.1" xmlns="http://www.w3.org/2000/svg" xmlns:xlink="http://www.w3.org/1999/xlink">
    <!-- Generator: Sketch 49 (51002) - http://www.bohemiancoding.com/sketch -->
    <title>Asset 13</title>
    <desc>Created with Sketch.</desc>
    <defs>
        <linearGradient x1="-8.55474759%" y1="28.81167%" x2="111.13468%" y2="66.2363861%" id="linearGradient-1">
            <stop stop-color="#06A54C" offset="0%"></stop>
            <stop stop-color="#06A54C" offset="100%"></stop>
        </linearGradient>
        <linearGradient x1="1341%" y1="2410%" x2="1867%" y2="2410%" id="linearGradient-2">
            <stop stop-color="#06A54C" offset="0%"></stop>
            <stop stop-color="#06A54C" offset="100%"></stop>
        </linearGradient>
        <linearGradient x1="-39321%" y1="19693%" x2="-38138%" y2="19693%" id="linearGradient-3">
            <stop stop-color="#06A54C" offset="0%"></stop>
            <stop stop-color="#06A54C" offset="100%"></stop>
        </linearGradient>
        <linearGradient x1="659%" y1="1499%" x2="1892%" y2="1499%" id="linearGradient-4">
            <stop stop-color="#06A54C" offset="0%"></stop>
            <stop stop-color="#06A54C" offset="100%"></stop>
        </linearGradient>
        <linearGradient x1="-39075%" y1="19521%" x2="-38730%" y2="19521%" id="linearGradient-5">
            <stop stop-color="#06A54C" offset="0%"></stop>
            <stop stop-color="#06A54C" offset="100%"></stop>
        </linearGradient>
        <linearGradient x1="928%" y1="1280%" x2="1450%" y2="1280%" id="linearGradient-6">
            <stop stop-color="#06A54C" offset="0%"></stop>
            <stop stop-color="#06A54C" offset="100%"></stop>
        </linearGradient>
    </defs>
    <g id="Page-1" stroke="none" stroke-width="1" fill="none" fill-rule="evenodd">
        <g id="Self-Employed" transform="translate(-327.000000, -973.000000)" fill-rule="nonzero">
            <g id="Asset-13" transform="translate(327.000000, 973.000000)">
                <path d="M46,52.62 C46.1,52.47 46.2,52.29 46.33,52.1 L49.2,47.35 C49.28,47.21 49.38,47.07 49.47,46.92 L49.47,16.08 C49.4721637,15.616377 49.3803138,15.1571275 49.2,14.73 C49.0183022,14.2994756 48.7493064,13.9113044 48.41,13.59 L35.28,1 C34.9657144,0.678551559 34.5876007,0.426475764 34.17,0.26 C33.7576985,0.0896163068 33.3161182,0.0013002628 32.87,0 L7.69,0 C3.44293027,-6.40864515e-16 5.20116035e-16,3.44293027 0,7.69 L0,54.47 C5.20116035e-16,58.7170697 3.44293027,62.16 7.69,62.16 L41.78,62.16 C46.0247857,62.1544909 49.4644909,58.7147857 49.47,54.47 L49.47,45.47 C48.2966667,47.05 47.09,48.6 45.85,50.12 L45.85,54.42" id="Shape" fill="#FFFFFF"></path>
                <path d="M45.83,54.44 C45.8302423,56.6590521 44.0488098,58.4672061 41.83,58.5 L7.69,58.5 C5.44772392,58.5 3.63,56.6822761 3.63,54.44 L3.63,7.66 C3.62999672,6.58413836 4.05806436,5.55248664 4.81975088,4.7926762 C5.58143741,4.03286575 6.61414164,3.60734355 7.69,3.61 L31.69,3.61 L31.69,9.49 C31.6873456,11.5285947 32.4953141,13.4846028 33.9358813,14.9270457 C35.3764485,16.3694886 37.3314036,17.1800017 39.37,17.18 L45.8,17.18 L45.8,52.87 C45.8572788,52.791256 45.9074747,52.7075961 45.95,52.62 C46.05,52.47 46.15,52.29 46.28,52.1 L49.15,47.35 C49.23,47.21 49.33,47.07 49.42,46.92 L49.42,16.08 C49.4221637,15.616377 49.3303138,15.1571275 49.15,14.73 C48.9683022,14.2994756 48.6993064,13.9113044 48.36,13.59 L35.28,1 C34.9657144,0.678551559 34.5876007,0.426475764 34.17,0.26 C33.7576985,0.0896163068 33.3161182,0.0013002628 32.87,0 L7.69,0 C3.44293027,-6.40864515e-16 5.20116035e-16,3.44293027 0,7.69 L0,54.47 C5.20116035e-16,58.7170697 3.44293027,62.16 7.69,62.16 L41.78,62.16 C46.0247857,62.1544909 49.4644909,58.7147857 49.47,54.47 L49.47,45.47 C48.2966667,47.05 47.09,48.6 45.85,50.12 L45.85,54.42 L45.83,54.44 Z" id="Shape" fill="#4F4E50"></path>
                <path d="M41.8,33.33 C41.8000602,32.3326007 40.9973391,31.5209604 40,31.51 L9.48,31.51 C8.47484176,31.51 7.66,32.3248418 7.66,33.33 C7.66,34.3351582 8.47484176,35.15 9.48,35.15 L40,35.15 C40.9973391,35.1390396 41.8000602,34.3273993 41.8,33.33 Z" id="Shape" fill="#4F4E50"></path>
                <path d="M41.8,40.5 C41.8000602,39.5026007 40.9973391,38.6909604 40,38.68 L9.48,38.68 C8.79940393,38.6294466 8.1477245,38.9639042 7.79198782,39.5463285 C7.43625114,40.1287528 7.43625114,40.8612472 7.79198782,41.4436715 C8.1477245,42.0260958 8.79940393,42.3605534 9.48,42.31 L40,42.31 C40.9957279,42.3044987 41.8000152,41.4957431 41.8,40.5 Z" id="Shape" fill="#4F4E50"></path>
                <path d="M41.8,47.83 C41.805562,46.8287067 41.0012485,46.0109879 40,46 L9.48,46 C8.47484176,46 7.66,46.8148418 7.66,47.82 C7.66,48.8251582 8.47484176,49.64 9.48,49.64 L40,49.64 C40.9973391,49.6290396 41.8000602,48.8173993 41.8,47.82 L41.8,47.83 Z" id="Shape" fill="#4F4E50"></path>
                <path d="M40.15,24.27 L23.15,24.27 C22.1448418,24.27 21.33,25.0848418 21.33,26.09 C21.33,27.0951582 22.1448418,27.91 23.15,27.91 L40.15,27.91 C41.1551582,27.91 41.97,27.0951582 41.97,26.09 C41.97,25.0848418 41.1551582,24.27 40.15,24.27 Z" id="Shape" fill="#4F4E50"></path>
                <path d="M18.33,25.55 L16.52,20.77 C15.6792507,21.2985047 14.7344633,21.6395832 13.75,21.77 L15.56,26.56 C15.7475644,27.0548128 16.1848606,27.4119743 16.7071633,27.4969452 C17.229466,27.581916 17.7574251,27.3817872 18.0921633,26.9719452 C18.4269016,26.5621032 18.5175644,26.0048128 18.33,25.51 L18.33,25.55 Z" id="Shape" stroke="url(#linearGradient-2)" stroke-width="0.5" fill="url(#linearGradient-1)"></path>
                <path d="M18.14,17.43 C19.4605484,14.4486269 18.1169416,10.9610399 15.1374379,9.63627899 C12.1579342,8.31151811 8.66845163,9.65019429 7.33948089,12.6278226 C6.01051015,15.6054509 7.34425301,19.0968221 10.32,20.43 C11.7547364,21.0698651 13.3849683,21.1132314 14.8516939,20.5505489 C16.3184196,19.9878664 17.5013551,18.8652799 18.14,17.43 Z M10.93,19 C9.2922965,18.2621574 8.26050181,16.6102454 8.3159345,14.8148592 C8.3713672,13.019473 9.50310529,11.4343603 11.1832079,10.7989552 C12.8633106,10.1635501 14.7607445,10.6030475 15.9903818,11.9124277 C17.2200192,13.2218078 17.5395826,15.1430815 16.8,16.78 C15.7911154,19.0129646 13.1640355,20.006511 10.93,19 Z" id="Shape" stroke="url(#linearGradient-4)" stroke-width="0.5" fill="url(#linearGradient-3)"></path>
                <path d="M9.61,13.58 L10.51,13.98 C10.7784038,13.3838931 11.2730456,12.919139 11.8847034,12.6883601 C12.4963611,12.4575813 13.1747231,12.4797603 13.77,12.75 L14.17,11.85 C12.4330404,11.0693177 10.3920319,11.8436477 9.61,13.58 Z" id="Shape" stroke="url(#linearGradient-6)" stroke-width="0.5" fill="url(#linearGradient-5)"></path>
            </g>
        </g>
    </g>
</svg>