<?xml version="1.0" encoding="UTF-8"?>
<svg width="92px" height="92px" viewBox="0 0 92 92" version="1.1" xmlns="http://www.w3.org/2000/svg" xmlns:xlink="http://www.w3.org/1999/xlink">
    <!-- Generator: Sketch 49 (51002) - http://www.bohemiancoding.com/sketch -->
    <title>Asset 4</title>
    <desc>Created with Sketch.</desc>
    <defs>
        <linearGradient x1="0%" y1="49.9996111%" x2="100%" y2="49.9996111%" id="linearGradient-1">
            <stop stop-color="#06A54C" offset="0%"></stop>
            <stop stop-color="#06A54C" offset="100%"></stop>
        </linearGradient>
        <linearGradient x1="2991%" y1="6340%" x2="3849%" y2="6340%" id="linearGradient-2">
            <stop stop-color="#06A54C" offset="0%"></stop>
            <stop stop-color="#06A54C" offset="100%"></stop>
        </linearGradient>
        <linearGradient x1="5875%" y1="3398%" x2="6805%" y2="3398%" id="linearGradient-3">
            <stop stop-color="#06A54C" offset="0%"></stop>
            <stop stop-color="#06A54C" offset="100%"></stop>
        </linearGradient>
        <linearGradient x1="0%" y1="3398%" x2="930%" y2="3398%" id="linearGradient-4">
            <stop stop-color="#06A54C" offset="0%"></stop>
            <stop stop-color="#06A54C" offset="100%"></stop>
        </linearGradient>
        <linearGradient x1="4875%" y1="5379%" x2="5892%" y2="5379%" id="linearGradient-5">
            <stop stop-color="#06A54C" offset="0%"></stop>
            <stop stop-color="#06A54C" offset="100%"></stop>
        </linearGradient>
        <linearGradient x1="913%" y1="1417%" x2="1930%" y2="1417%" id="linearGradient-6">
            <stop stop-color="#06A54C" offset="0%"></stop>
            <stop stop-color="#06A54C" offset="100%"></stop>
        </linearGradient>
        <linearGradient x1="4875%" y1="1417%" x2="5892%" y2="1417%" id="linearGradient-7">
            <stop stop-color="#06A54C" offset="0%"></stop>
            <stop stop-color="#06A54C" offset="100%"></stop>
        </linearGradient>
        <linearGradient x1="913%" y1="5379%" x2="1930%" y2="5379%" id="linearGradient-8">
            <stop stop-color="#06A54C" offset="0%"></stop>
            <stop stop-color="#06A54C" offset="100%"></stop>
        </linearGradient>
    </defs>
    <g id="Page-1" stroke="none" stroke-width="1" fill="none" fill-rule="evenodd">
        <g id="Brighten-home-Copy-11" transform="translate(-454.000000, -1776.000000)" fill-rule="nonzero">
            <g id="Asset-4" transform="translate(454.000000, 1776.000000)">
                <path d="M46.56406,17.000026 C35.8126467,16.9858052 25.9033721,22.8121057 20.6952954,32.2099382 C15.4872188,41.6077706 15.8037141,53.0913791 21.5215256,62.1885972 L31.4526485,71.896765 C42.1604698,78.2191169 55.6855068,77.1587014 65.2752685,69.24494 C74.8650302,61.3311786 78.4627515,48.2613761 74.2722389,36.5607439 C70.0817263,24.8601117 59.0017406,17.0381442 46.56406,17.000026 Z M66.6947146,33.0909119 L60.5078934,33.0909119 C59.4189045,29.7504626 57.6609455,26.6663744 55.3410254,24.0263795 C59.941708,25.8310184 63.8832323,28.9927928 66.6410329,33.0909119 L66.6947146,33.0909119 Z M59.9844964,46.4999834 C59.9893116,49.2021158 59.7195193,51.8977543 59.1792702,54.5454264 L49.2481473,54.5454264 L49.2481473,38.4545405 L59.1792702,38.4545405 C59.7195193,41.1022126 59.9893116,43.7978511 59.9844964,46.4999834 Z M33.1436235,46.4999834 C33.1411541,43.7986311 33.4063831,41.1036713 33.9354293,38.4545405 L43.8799727,38.4545405 L43.8799727,54.5454264 L33.9354293,54.5454264 C33.4063831,51.8962955 33.1411541,49.2013357 33.1436235,46.4999834 Z M43.8799727,22.8731993 L43.8799727,33.0909119 L35.4787795,33.0909119 C37.4247427,27.9686465 40.4309205,24.1872883 43.8799727,22.8731993 Z M43.8799727,59.909055 L43.8799727,70.1267675 C40.4309205,68.7858604 37.4247427,65.0313203 35.4787795,59.909055 L43.8799727,59.909055 Z M49.2481473,70.1267675 L49.2481473,59.909055 L57.6493405,59.909055 C55.6899568,65.0313203 52.683779,68.8126785 49.2481473,70.1267675 Z M49.2481473,33.0909119 L49.2481473,22.8731993 C52.683779,24.2141065 55.6899568,27.9686465 57.6493405,33.0909119 L49.2481473,33.0909119 Z M37.7870945,24.0263795 C35.4625404,26.6630722 33.7040087,29.7481649 32.6202265,33.0909119 L26.487087,33.0909119 C29.2423475,28.9904616 33.1846829,25.8280365 37.7870945,24.0263795 Z M23.7895793,38.4545405 L31.1976602,38.4545405 C30.213426,43.7730934 30.213426,49.2268734 31.1976602,54.5454264 L23.7895793,54.5454264 C21.947513,49.3396882 21.947513,43.6602786 23.7895793,38.4545405 Z M26.4736666,59.909055 L32.6068061,59.909055 C33.6937954,63.2544079 35.4518737,66.3432679 37.7736741,68.9869964 C33.1752437,67.1779265 29.2380481,64.0111914 26.487087,59.909055 L26.4736666,59.909055 Z M55.327605,68.9869964 C57.6448257,66.3400132 59.4023427,63.2521393 60.494473,59.909055 L66.6276125,59.909055 C63.8734836,64.0082903 59.9372959,67.1742147 55.3410254,68.9869964 L55.327605,68.9869964 Z M69.3385406,54.5454264 L61.9304597,54.5454264 C62.914694,49.2268734 62.914694,43.7730934 61.9304597,38.4545405 L69.3385406,38.4545405 C71.1806069,43.6602786 71.1806069,49.3396882 69.3385406,54.5454264 Z" id="Shape" fill="#4F4E50"></path>
                <path d="M40,12.0633442 C40,12.311733 40.098726,12.5499485 40.2744594,12.725586 C40.4501928,12.9012234 40.6885384,12.9998955 40.9370629,12.9998955 L51.048951,12.9998955 C51.29989,13.0036393 51.5418444,12.9066224 51.7206144,12.7305775 C51.8993844,12.5545326 52.0000279,12.314174 52,12.0633442 C51.9965827,9.84838292 50.7773853,7.81391797 48.8251748,6.76553863 C49.9551272,5.62698292 50.2887179,3.92077525 49.670722,2.44084089 C49.052726,0.960906534 47.6045291,-0.00206845259 46,3.3363846e-06 C44.4005574,0.0091710471 42.9626599,0.976273615 42.3518195,2.45370033 C41.7409791,3.93112704 42.0763843,5.63059927 43.2027972,6.76553863 C41.2397639,7.80644742 40.0089406,9.84237484 40,12.0633442 Z" id="Shape" fill="url(#linearGradient-1)"></path>
                <path d="M40.0001045,79.9465248 C39.9963588,79.6968075 40.093427,79.4560309 40.2695649,79.2781311 C40.4457029,79.1002314 40.6861885,79.0000778 40.937151,79.0001056 L51.0488616,79.0001056 C51.3022401,78.9963132 51.5463594,79.0948067 51.7255453,79.2731234 C51.9047312,79.4514402 52.0037047,79.6943753 51.9998939,79.9465248 C51.9974862,82.1486122 50.7772915,84.1706224 48.8251244,85.2075021 C49.9775591,86.337179 50.3296311,88.0479536 49.716228,89.5375175 C49.102825,91.0270814 47.6456069,92 46.0279707,92 C44.4103346,92 42.9531165,91.0270814 42.3397134,89.5375175 C41.7263103,88.0479536 42.0783824,86.337179 43.230817,85.2075021 C41.2569872,84.1856175 40.0134781,82.1606547 40.0001045,79.9465248 Z" id="Shape" fill="url(#linearGradient-2)"></path>
                <path d="M79.9489693,40.0001061 C79.6961687,39.9962953 79.4526061,40.0952688 79.2738288,40.2744547 C79.0950515,40.4536406 78.9963037,40.6977599 79.0001059,40.9511384 L79.0001059,51.062849 C79.000078,51.3138115 79.1004903,51.5542971 79.2788494,51.7304351 C79.4572086,51.906573 79.6986071,52.0036412 79.9489693,51.9998955 C82.1567439,51.9974878 84.1839762,50.7772931 85.2235337,48.825126 C86.3543626,49.9677959 88.0613973,50.3135505 89.5461883,49.7006664 C91.0309794,49.0877822 92,47.6374198 92,46.0279723 C92,44.4185249 91.0309794,42.9681624 89.5461883,42.3552783 C88.0613973,41.7423941 86.3543626,42.0881487 85.2235337,43.2308186 C84.19901,41.2569888 82.1688175,40.0134797 79.9489693,40.0001061 Z" id="Shape" fill="url(#linearGradient-3)"></path>
                <path d="M12.064986,40 C12.3153762,39.9999721 12.5553135,40.1006156 12.7310498,40.2793856 C12.906786,40.4581556 13.0036329,40.70011 12.9998957,40.951049 L12.9998957,51.0629371 C12.9998957,51.3114616 12.9013966,51.5498072 12.726067,51.7255406 C12.5507374,51.901274 12.3129395,52 12.064986,52 C9.85390745,51.9965827 7.82300876,50.7773853 6.77646715,48.8251748 C5.64563805,49.9678648 3.93860321,50.3136254 2.45381198,49.7007305 C0.969020745,49.0878356 1.9849015e-16,47.6374477 0,46.027972 C-1.93648926e-16,44.4184963 0.969020745,42.9681084 2.45381198,42.3552135 C3.93860321,41.7423186 5.64563805,42.0880793 6.77646715,43.2307692 C7.80804602,41.2569052 9.84187972,40.0144312 12.064986,40 Z" id="Shape" fill="url(#linearGradient-4)"></path>
                <path d="M74.5788462,65.3085646 C74.4034896,65.1122562 74.1525707,65 73.889132,65 C73.6256933,65 73.3747744,65.1122562 73.1994178,65.3085646 L66.3022759,72.3195836 C66.1096043,72.4969164 66,72.7466388 66,73.0082888 C66,73.2699388 66.1096043,73.5196612 66.3022759,73.696994 C67.8502168,75.1842286 70.0862415,75.7120663 72.137258,75.0744044 C72.1372713,77.2406683 73.8946108,78.9974725 76.0640469,78.9999973 C78.233483,79.002522 79.9949188,77.249813 79.999989,75.083555 C80.0050593,72.917297 78.2518474,71.1563857 76.0824231,71.1487848 C76.6885632,69.0739678 76.111941,66.8342414 74.5788462,65.3085646 Z" id="Shape" fill="url(#linearGradient-5)"></path>
                <path d="M26.7325356,17.3719668 C27.0891548,17.7352227 27.0891548,18.315051 26.7325356,18.6783069 L19.6796132,25.7050418 C19.4994828,25.8933808 19.2495382,26 18.9881502,26 C18.7267622,26 18.4768175,25.8933808 18.2966872,25.7050418 C16.7890779,24.1361369 16.2592234,21.8759326 16.9137612,19.8058847 C15.875492,19.8081177 14.8795004,19.3971218 14.1479093,18.664556 C12.8916322,17.4131208 12.6377236,15.4785198 13.5289351,13.9484184 C14.4201466,12.4183169 16.2340851,11.6745368 17.9509238,12.1352438 C19.6677626,12.5959508 20.8590811,14.1461799 20.8551003,15.9143662 C22.934733,15.2879601 25.1923253,15.8478416 26.7325356,17.3719668 Z" id="Shape" fill="url(#linearGradient-6)"></path>
                <path d="M66.2656296,17.3610279 C65.9114568,17.7241657 65.9114568,18.3038053 66.2656296,18.666943 L73.2839052,25.7051378 C73.4627998,25.8934155 73.7110299,26 73.9706249,26 C74.2302198,26 74.4784499,25.8934155 74.6573446,25.7051378 C76.1940252,24.159774 76.7585161,21.8945441 76.1269248,19.8079003 C78.2757181,19.7927408 80.007533,18.0409914 79.9999754,15.890268 C79.9924177,13.7395446 78.2483346,12.0000311 76.0994878,12 C73.9506411,11.9999689 72.2065077,13.739432 72.198888,15.8901552 C70.1020216,15.2285377 67.8115601,15.79635 66.2656296,17.3610279 Z" id="Shape" fill="url(#linearGradient-7)"></path>
                <path d="M18.3222897,65.3079578 C18.4975738,65.1120354 18.7483889,65 19.0117187,65 C19.2750484,65 19.5258635,65.1120354 19.7011476,65.3079578 L26.7333224,72.3051874 C27.0888925,72.6683393 27.0888925,73.2480017 26.7333224,73.6111536 C25.1864042,75.1453788 22.9152829,75.7008669 20.831811,75.05459 C20.848569,76.6398127 19.9021827,78.077754 18.436893,78.6934333 C16.9716032,79.3091127 15.2783644,78.9802781 14.1519957,77.861287 C13.025627,76.7422959 12.6897852,75.0553401 13.302117,73.5922895 C13.9144487,72.1292388 15.3533667,71.1806032 16.9434319,71.1916793 C16.290115,69.1265847 16.8187976,66.8706441 18.3222897,65.3079578 Z" id="Shape" fill="url(#linearGradient-8)"></path>
            </g>
        </g>
    </g>
</svg>