<?xml version="1.0" encoding="UTF-8"?>
<svg width="66px" height="51px" viewBox="0 0 66 51" version="1.1" xmlns="http://www.w3.org/2000/svg" xmlns:xlink="http://www.w3.org/1999/xlink">
    <!-- Generator: Sketch 49 (51002) - http://www.bohemiancoding.com/sketch -->
    <title>Asset 14</title>
    <desc>Created with Sketch.</desc>
    <defs></defs>
    <g id="Page-1" stroke="none" stroke-width="1" fill="none" fill-rule="evenodd">
        <g id="Self-Employed" transform="translate(-319.000000, -850.000000)" fill-rule="nonzero">
            <g id="Asset-14" transform="translate(319.000000, 850.000000)">
                <path d="M58,7 L45.34,7 L45.34,7.68 C45.3400053,10.5424571 43.0224518,12.8644847 40.16,12.87 L25.35,12.87 C22.4836421,12.87 20.16,10.5463579 20.16,7.68 L20.16,7 L7.53,7 C5.52771112,6.99998411 3.60786569,7.79743793 2.1948512,9.21608195 C0.781836724,10.634726 -0.00797724662,12.557727 8.88185196e-16,14.56 L8.88185196e-16,43.47 C1.39748239e-15,47.6287042 3.37129583,51 7.53,51 L58,51 C59.9961618,51.0000018 61.9104203,50.2063458 63.3209817,48.7939086 C64.731543,47.3814715 65.5226545,45.4661601 65.52,43.47 L65.52,14.56 C65.5306456,12.5586505 64.7430643,10.6356169 63.3316352,9.21668028 C61.9202062,7.79774363 60.0013778,6.99997169 58,7 Z M58.17,38.14 L36.17,38.14 L36.17,35.36 L58.17,35.36 L58.17,38.14 Z M58.17,32.23 L36.17,32.23 L36.17,29.45 L58.17,29.45 L58.17,32.23 Z M58.17,26.31 L36.17,26.31 L36.17,23.53 L58.17,23.53 L58.17,26.31 Z" id="Shape" fill="#06A54C"></path>
                <path d="M25.35,10.4 L40.14,10.4 C40.8542476,10.4026701 41.5400121,10.1201177 42.0450649,9.6150649 C42.5501177,9.11001207 42.8326701,8.42424757 42.83,7.71 L42.83,5.88 C42.830005,5.1674838 42.5462763,4.48429546 42.0415139,3.98140951 C41.5367516,3.47852357 40.8525112,3.19734136 40.14,3.2 L39.3,3.2 L39.3,2.06 C39.3,0.922293415 38.3777066,6.96644364e-17 37.24,0 L28.24,0 C27.1022934,-6.96644364e-17 26.18,0.922293415 26.18,2.06 L26.18,3.2 L25.34,3.2 C24.6274888,3.19734136 23.9432484,3.47852357 23.4384861,3.98140951 C22.9337237,4.48429546 22.649995,5.1674838 22.65,5.88 L22.65,7.71 C22.6473299,8.42424757 22.9298823,9.11001207 23.4349351,9.6150649 C23.9399879,10.1201177 24.6257524,10.4026701 25.34,10.4 L25.35,10.4 Z" id="Shape" fill="#434343"></path>
                <path d="M26.36,24.17 C26.4006508,22.5371753 25.9551244,20.9291035 25.08,19.55 C24.468255,18.74608 23.7078179,18.0671183 22.84,17.55 C18.47,14.89 16.1,18.3 15.84,18.72 C15.44,18.86 12.93,19.97 13.66,23.86 C13.66,23.99 13.66,24.12 13.66,24.25 C13.13,24.5 12.73,25.07 12.84,26.36 C12.95,27.65 13.64,28.36 14.38,28.51 C15.44,31.1 17.54,33.24 20.02,33.24 C22.5,33.24 24.6,31.11 25.66,28.53 C26.44,28.4 27.19,27.79 27.31,26.36 C27.43,24.93 26.93,24.4 26.36,24.17 Z" id="Shape" fill="#FFFFFF"></path>
                <path d="M25.57,33 L24.84,32.82 L20,43.81 L15.17,32.81 L14.46,32.98 C11.5922262,33.7057388 9.58768332,36.2918465 9.6,39.25 L9.6,43.13 C9.59437884,43.5011902 9.74073913,43.8585456 10.005122,44.1191516 C10.2695049,44.3797576 10.6289291,44.5209612 11,44.51 L29.1,44.51 C29.8693457,44.5155737 30.4990292,43.8992877 30.51,43.13 L30.51,39.25 C30.4932345,36.2796942 28.4561175,33.70237 25.57,33 Z" id="Shape" fill="#FFFFFF"></path>
                <path d="M20.06,41.8 L21.67,37.7 L20.92,37 C21.1508185,36.9724492 21.3586755,36.8470593 21.4906937,36.6557286 C21.6227118,36.464398 21.6661654,36.2255696 21.61,36 L21.28,34.62 C21.1918257,34.2498076 20.8605469,33.9889256 20.48,33.99 L19.6,33.99 C19.2194531,33.9889256 18.8881743,34.2498076 18.8,34.62 L18.47,36 C18.4171747,36.2252955 18.4620015,36.462423 18.5934226,36.6528884 C18.7248437,36.8433538 18.9306233,36.9694239 19.16,37 L18.41,37.75 L20.06,41.8 Z" id="Shape" fill="#FFFFFF"></path>
            </g>
        </g>
    </g>
</svg>