<?xml version="1.0" encoding="UTF-8"?>
<svg width="59px" height="59px" viewBox="0 0 59 59" version="1.1" xmlns="http://www.w3.org/2000/svg" xmlns:xlink="http://www.w3.org/1999/xlink">
    <!-- Generator: Sketch 49 (51002) - http://www.bohemiancoding.com/sketch -->
    <title>Asset 16</title>
    <desc>Created with Sketch.</desc>
    <defs></defs>
    <g id="Page-1" stroke="none" stroke-width="1" fill="none" fill-rule="evenodd">
        <g id="How-much-I-can-borrow" transform="translate(-328.000000, -1075.000000)" fill-rule="nonzero">
            <g id="Asset-16" transform="translate(327.000000, 1075.000000)">
                <path d="M30.24,-4.23516474e-22 C18.4085695,6.91441654e-07 7.74232597,7.12761688 3.21556828,18.0588205 C-1.31118941,28.9900242 1.19314982,41.5717549 9.5606648,49.9364092 C17.9281798,58.3010635 30.5107661,60.8011004 41.4404212,56.2706051 C52.3700764,51.7401099 59.4940449,41.0714298 59.49,29.24 C59.4900005,21.4833369 56.4079938,14.0445126 50.9222671,8.56066138 C45.4365403,3.07681013 37.9966626,-0.00265275755 30.24,-4.23516474e-22 Z" id="Shape" fill="#2BAF49"></path>
                <path d="M18.15,17.37 C19.5074221,15.9668073 21.6673245,15.7186292 23.3076295,16.7773757 C24.9479344,17.8361222 25.611261,19.9065736 24.8915865,21.721405 C24.1719119,23.5362364 22.2699096,24.5894022 20.3497965,24.2362588 C18.4296834,23.8831154 17.0268619,22.2221329 17,20.27 C16.9948108,19.1873443 17.4149622,18.1459434 18.17,17.37 L18.15,17.37 Z" id="Shape" fill="#FFFFFF"></path>
                <path d="M42.34,41.11 C41.5805689,41.8849251 40.5449339,42.3272276 39.46,42.34 C38.3761833,42.3506551 37.3326683,41.9296212 36.5597189,41.1698045 C35.7867695,40.4099877 35.3479173,39.3738402 35.34,38.29 C35.3156658,36.4355663 36.5421497,34.7968625 38.3282301,34.2974292 C40.1143104,33.7979959 42.0128907,34.5628525 42.9539693,36.1609413 C43.8950479,37.75903 43.6430514,39.790313 42.34,41.11 Z" id="Shape" fill="#FFFFFF"></path>
                <path d="M42.06,17.2 C43.6544907,18.7967704 43.6544907,21.3832296 42.06,22.98 L24.2,41.23 C23.1782204,42.2714292 21.6784613,42.6886365 20.2656673,42.3244641 C18.8528734,41.9602916 17.7416817,40.8700657 17.3506673,39.4644641 C16.959653,38.0588624 17.3482204,36.5514292 18.37,35.51 L36.28,17.26 C37.8601671,15.648813 40.4467268,15.6219629 42.06,17.2 Z" id="Shape" fill="#FFFFFF"></path>
            </g>
        </g>
    </g>
</svg>