<?xml version="1.0" encoding="UTF-8"?>
<svg width="57px" height="72px" viewBox="0 0 57 72" version="1.1" xmlns="http://www.w3.org/2000/svg" xmlns:xlink="http://www.w3.org/1999/xlink">
    <!-- Generator: Sketch 49 (51002) - http://www.bohemiancoding.com/sketch -->
    <title>Asset 8</title>
    <desc>Created with Sketch.</desc>
    <defs></defs>
    <g id="Page-1" stroke="none" stroke-width="1" fill="none" fill-rule="evenodd">
        <g id="Brighten-home-Copy-11" transform="translate(-721.000000, -2433.000000)" fill-rule="nonzero">
            <g id="Asset-8" transform="translate(721.000000, 2433.000000)">
                <path d="M52.58,54.44 C52.5802423,56.6590521 50.7988098,58.4672061 48.58,58.5 L14.44,58.5 C12.1977239,58.5 10.38,56.6822761 10.38,54.44 L10.38,7.66 C10.3799967,6.58413836 10.8080644,5.55248664 11.5697509,4.7926762 C12.3314374,4.03286575 13.3641416,3.60734355 14.44,3.61 L38.44,3.61 L38.44,9.49 C38.4373456,11.5285947 39.2453141,13.4846028 40.6858813,14.9270457 C42.1264485,16.3694886 44.0814036,17.1800017 46.12,17.18 L52.55,17.18 L52.55,52.87 C52.6072788,52.791256 52.6574747,52.7075961 52.7,52.62 C52.8,52.47 52.9,52.29 53.03,52.1 L55.9,47.35 C55.98,47.21 56.08,47.07 56.17,46.92 L56.17,16.08 C56.1721637,15.616377 56.0803138,15.1571275 55.9,14.73 C55.7183022,14.2994756 55.4493064,13.9113044 55.11,13.59 L42,1 C41.6944727,0.681978753 41.326876,0.430106902 40.92,0.26 C40.5076985,0.0896163068 40.0661182,0.0013002628 39.62,0 L14.44,0 C10.1929303,1.2074848e-16 6.75,3.44293027 6.75,7.69 L6.75,54.47 C6.75,58.7170697 10.1929303,62.16 14.44,62.16 L48.53,62.16 C52.7747857,62.1544909 56.2144909,58.7147857 56.22,54.47 L56.22,45.47 C55.0466667,47.05 53.84,48.6 52.6,50.12 L52.6,54.42 L52.58,54.44 Z" id="Shape" fill="#4F4E50"></path>
                <path d="M46,62.37 C46.1,62.22 46.2,62.04 46.33,61.85 L49.2,57.1 C49.28,56.96 49.38,56.82 49.47,56.67 L49.47,25.83 C49.4721637,25.366377 49.3803138,24.9071275 49.2,24.48 C49.0183022,24.0494756 48.7493064,23.6613044 48.41,23.34 L35.28,10.73 C34.9647665,10.4121536 34.5867213,10.1635292 34.17,10 C33.7576985,9.82961631 33.3161182,9.74130026 32.87,9.74 L7.69,9.74 C5.6487514,9.73999827 3.69125282,10.5515649 2.24881026,11.9958832 C0.806367709,13.4402015 -0.00265441951,15.3987531 -8.8817842e-16,17.44 L-8.8817842e-16,64.22 C-3.68063768e-16,68.4670697 3.44293027,71.91 7.69,71.91 L41.78,71.91 C46.0247857,71.9044909 49.4644909,68.4647857 49.47,64.22 L49.47,55.22 C48.2966667,56.8 47.09,58.35 45.85,59.87 L45.85,64.17" id="Shape" fill="#FFFFFF"></path>
                <path d="M45.83,64.19 C45.8302423,66.4090521 44.0488098,68.2172061 41.83,68.25 L7.69,68.25 C6.61322105,68.25 5.58054416,67.8222512 4.81914647,67.0608535 C4.05774877,66.2994558 3.63,65.2667789 3.63,64.19 L3.63,17.41 C3.62999672,16.3341384 4.05806436,15.3024866 4.81975088,14.5426762 C5.58143741,13.7828657 6.61414164,13.3573436 7.69,13.36 L31.69,13.36 L31.69,19.24 C31.6873456,21.2785947 32.4953141,23.2346028 33.9358813,24.6770457 C35.3764485,26.1194886 37.3314036,26.9300017 39.37,26.93 L45.8,26.93 L45.8,62.62 C45.8572788,62.541256 45.9074747,62.4575961 45.95,62.37 C46.05,62.22 46.15,62.04 46.28,61.85 L49.15,57.1 C49.23,56.96 49.33,56.82 49.42,56.67 L49.42,25.83 C49.4221637,25.366377 49.3303138,24.9071275 49.15,24.48 C48.9683022,24.0494756 48.6993064,23.6613044 48.36,23.34 L35.28,10.73 C34.9647665,10.4121536 34.5867213,10.1635292 34.17,10 C33.7576985,9.82961631 33.3161182,9.74130026 32.87,9.74 L7.69,9.74 C5.6487514,9.73999827 3.69125282,10.5515649 2.24881026,11.9958832 C0.806367709,13.4402015 -0.00265441951,15.3987531 -8.88180114e-16,17.44 L-8.88180114e-16,64.22 C-3.68064615e-16,68.4670697 3.44293027,71.91 7.69,71.91 L41.78,71.91 C46.0247857,71.9044909 49.4644909,68.4647857 49.47,64.22 L49.47,55.22 C48.2966667,56.8 47.09,58.35 45.85,59.87 L45.85,64.17 L45.83,64.19 Z" id="Shape" fill="#4F4E50"></path>
                <path d="M12.75,21.66 C11.1539591,22.1183455 10.0403675,23.5599405 10,25.22 C9.94170669,26.6775593 10.7663438,28.0269654 12.09,28.64 C12.9212085,29.0590694 13.7759705,29.4296889 14.65,29.75 C14.9851147,29.8848989 15.3011319,30.0630788 15.59,30.28 C15.9760875,30.5510388 16.1818057,31.0124654 16.1253545,31.4808017 C16.0689032,31.9491379 15.7594334,32.3484659 15.32,32.52 C14.8060564,32.7378102 14.2449119,32.8204327 13.69,32.76 C12.818553,32.6767635 11.9687494,32.4397665 11.18,32.06 C10.72,31.82 10.58,31.89 10.43,32.39 C10.28,32.89 10.19,33.26 10.08,33.7 C9.97,34.14 9.99,34.43 10.56,34.7 C11.2745379,35.016789 12.0332999,35.2224979 12.81,35.31 C13.42,35.39 13.43,35.41 13.46,36.05 C13.46,36.34 13.46,36.62 13.46,36.91 C13.4413505,37.0625649 13.4925013,37.215404 13.5992262,37.3260098 C13.7059511,37.4366156 13.8568665,37.4931906 14.01,37.48 C14.43,37.48 14.85,37.48 15.27,37.48 C15.4181749,37.4906751 15.563192,37.4335508 15.6642791,37.3246877 C15.7653662,37.2158247 15.8116068,37.0669793 15.79,36.92 C15.79,36.53 15.79,36.14 15.79,35.76 C15.7643159,35.5952914 15.80604,35.4271789 15.9057582,35.2935942 C16.0054764,35.1600094 16.1547867,35.0722077 16.32,35.05 C17.1847866,34.8100198 17.9514079,34.3024395 18.51,33.6 C19.2329476,32.6554243 19.4980033,31.438097 19.2332188,30.2784567 C18.9684342,29.1188164 18.2012811,28.1371768 17.14,27.6 C16.42,27.22 15.66,26.93 14.9,26.6 C14.4662247,26.4342897 14.0560595,26.2123971 13.68,25.94 C13.3100728,25.7244939 13.1061016,25.3076136 13.1629704,24.8832847 C13.2198392,24.4589558 13.5263819,24.1104949 13.94,24 C14.1765263,23.8962442 14.4317236,23.8418021 14.69,23.84 C15.6518438,23.7628007 16.6171467,23.9386237 17.49,24.35 C17.94,24.56 18.09,24.49 18.22,24.03 C18.35,23.57 18.5,23.03 18.63,22.55 C18.6834827,22.4150875 18.6769553,22.263779 18.6120526,22.1339737 C18.5471499,22.0041683 18.4300197,21.9081613 18.29,21.87 C17.7250782,21.624751 17.1297442,21.4565776 16.52,21.37 C15.72,21.26 15.72,21.25 15.7,20.45 C15.7,19.31 15.7,19.31 14.55,19.32 C14.3834771,19.3102107 14.2165229,19.3102107 14.05,19.32 C13.52,19.32 13.42,19.44 13.42,19.97 C13.42,20.21 13.42,20.44 13.42,20.69 C13.42,21.39 13.42,21.38 12.73,21.64 L12.75,21.66 Z" id="Shape" fill="#4F4E50"></path>
                <path d="M41.8,43.08 C41.8000602,42.0826007 40.9973391,41.2709604 40,41.26 L9.48,41.26 C8.47484176,41.26 7.66,42.0748418 7.66,43.08 C7.66,44.0851582 8.47484176,44.9 9.48,44.9 L40,44.9 C40.9973391,44.8890396 41.8000602,44.0773993 41.8,43.08 Z" id="Shape" fill="#2BAF4A"></path>
                <path d="M41.8,50.25 C41.8000602,49.2526007 40.9973391,48.4409604 40,48.43 L9.48,48.43 C8.79940393,48.3794466 8.1477245,48.7139042 7.79198782,49.2963285 C7.43625114,49.8787528 7.43625114,50.6112472 7.79198782,51.1936715 C8.1477245,51.7760958 8.79940393,52.1105534 9.48,52.06 L40,52.06 C40.9957279,52.0544987 41.8000152,51.2457431 41.8,50.25 Z" id="Shape" fill="#2BAF4A"></path>
                <path d="M41.8,57.58 C41.8000602,56.5826007 40.9973391,55.7709604 40,55.76 L9.48,55.76 C8.47484176,55.76 7.66,56.5748418 7.66,57.58 C7.66,58.5851582 8.47484176,59.4 9.48,59.4 L40,59.4 C40.9973391,59.3890396 41.8000602,58.5773993 41.8,57.58 Z" id="Shape" fill="#2BAF4A"></path>
                <path d="M40.15,34 L23.15,34 C22.1448418,34 21.33,34.8148418 21.33,35.82 C21.33,36.8251582 22.1448418,37.64 23.15,37.64 L40.15,37.64 C41.1551582,37.64 41.97,36.8251582 41.97,35.82 C41.97,34.8148418 41.1551582,34 40.15,34 Z" id="Shape" fill="#2BAF4A"></path>
            </g>
        </g>
    </g>
</svg>