<?xml version="1.0" encoding="UTF-8"?>
<svg width="57px" height="78px" viewBox="0 0 57 78" version="1.1" xmlns="http://www.w3.org/2000/svg" xmlns:xlink="http://www.w3.org/1999/xlink">
    <!-- Generator: Sketch 49 (51002) - http://www.bohemiancoding.com/sketch -->
    <title>Asset 1</title>
    <desc>Created with Sketch.</desc>
    <defs>
        <linearGradient x1="50.0323834%" y1="99.9999526%" x2="50.0323834%" y2="-0.0196597474%" id="linearGradient-1">
            <stop stop-color="#06A54C" offset="0%"></stop>
            <stop stop-color="#06A54C" offset="100%"></stop>
        </linearGradient>
    </defs>
    <g id="Page-1" stroke="none" stroke-width="1" fill="none" fill-rule="evenodd">
        <g id="Brighten-home-Copy-11" transform="translate(-473.000000, -1518.000000)" fill-rule="nonzero">
            <g id="Asset-1" transform="translate(473.000000, 1518.000000)">
                <path d="M56.64,20.67 C56.64,15.456432 52.413568,11.23 47.2,11.23 L47.2,16 C49.806784,16 51.92,18.113216 51.92,20.72 L51.92,67.92 C51.9144994,70.5245022 49.8045022,72.6344994 47.2,72.64 L9.44,72.64 C6.83321598,72.64 4.72,70.526784 4.72,67.92 L4.72,20.67 C4.7474087,18.0827632 6.85261801,15.9998548 9.44,16 L9.44,11.23 C4.22643196,11.23 6.38477941e-16,15.456432 0,20.67 L0,67.87 C6.38477941e-16,73.083568 4.22643196,77.31 9.44,77.31 L47.2,77.31 C52.413568,77.31 56.64,73.083568 56.64,67.87 L56.64,20.67 Z" id="Shape" fill="#4F4E50"></path>
                <path d="M41.2,10.3 C38.44,10.3 36.52,7.86 35.64,5.25 C34.5757304,2.11380853 31.6318525,0.00404911385 28.32,0.00404911385 C25.0081475,0.00404911385 22.0642696,2.11380853 21,5.25 C20.11,7.86 18.2,10.3 15.44,10.3 L12.87,10.3 L12.87,15.45 C12.8673453,16.8132135 13.406335,18.1216477 14.3683972,19.0874606 C15.3304594,20.0532735 16.6367864,20.5973504 18,20.6 L38.6,20.6 C39.9666791,20.6026615 41.2781487,20.0609285 42.2445386,19.0945386 C43.2109285,18.1281487 43.7526615,16.8166791 43.75,15.45 L43.75,10.3 L41.2,10.3 Z" id="Shape" fill="url(#linearGradient-1)"></path>
                <path d="M17,30.49 C14.8749045,31.1162254 13.3989335,33.0450972 13.35,35.26 C13.2750314,37.2089401 14.3795767,39.0117158 16.15,39.83 C17.2565532,40.4001564 18.3989558,40.8978698 19.57,41.32 C20.0179836,41.4967031 20.4387972,41.7357252 20.82,42.03 C21.3465573,42.3869691 21.6297505,43.008054 21.553956,43.6396747 C21.4781615,44.2712954 21.0560641,44.8077454 20.46,45.03 C19.7779091,45.327658 19.0297409,45.4414348 18.29,45.36 C17.1198541,45.2271152 15.9823792,44.888581 14.93,44.36 C14.31,44.05 14.13,44.15 13.93,44.82 C13.73,45.49 13.65,46 13.5,46.6 C13.3,47.38 13.37,47.6 14.14,47.92 C15.0921521,48.3452251 16.1039335,48.6217787 17.14,48.74 C17.95,48.85 17.97,48.88 18.01,49.74 C18.01,50.12 18.01,50.5 18.01,50.88 C17.9881252,51.0857093 18.0597008,51.2903801 18.2050075,51.4376242 C18.3503141,51.5848683 18.554019,51.6591484 18.76,51.64 C19.32,51.64 19.88,51.64 20.44,51.64 C20.6360188,51.6540577 20.827874,51.5786762 20.9618954,51.434943 C21.0959169,51.2912099 21.1577142,51.0945582 21.13,50.9 C21.13,50.37 21.13,49.9 21.13,49.34 C21.0928232,49.1217413 21.1466082,48.8977774 21.2788443,48.7202032 C21.4110804,48.542629 21.6102408,48.4269234 21.83,48.4 C22.9838287,48.0780261 24.0060381,47.3988869 24.75,46.46 C25.7663402,45.207697 26.159707,43.5619471 25.8195163,41.9854065 C25.4793257,40.4088658 24.4423111,39.0717679 23,38.35 C22,37.84 21,37.46 20,37.04 C19.4195497,36.817045 18.8713933,36.5177449 18.37,36.15 C17.9149448,35.8585267 17.6665104,35.3326097 17.7303927,34.7959991 C17.7942749,34.2593885 18.1592344,33.8064946 18.67,33.63 C18.9873188,33.496899 19.3261188,33.422363 19.67,33.41 C20.9618693,33.3118196 22.2571667,33.5495205 23.43,34.1 C24.02,34.37 24.22,34.28 24.43,33.67 C24.64,33.06 24.79,32.34 24.97,31.67 C25.0392732,31.4899952 25.0300436,31.2892126 24.9445483,31.1163223 C24.8590531,30.9434319 24.7050973,30.8142172 24.52,30.76 C23.7592792,30.4338332 22.9591567,30.2085886 22.14,30.09 C21,30 21,30 21,28.88 C21,27.35 21,27.35 19.46,27.37 C19.24,27.37 19.03,27.37 18.79,27.37 C18.08,27.37 17.96,27.54 17.96,28.24 C17.96,28.57 17.96,28.88 17.96,29.24 C17.96,30.24 17.96,30.17 17.04,30.51 L17,30.49 Z" id="Shape" fill="#2BAF4A"></path>
                <path d="M44.14,40 C44.14,44.1066667 43.55,47.13 42.37,49.07 C41.19,51.01 39.2533333,51.9866667 36.56,52 C33.7666667,52 31.8066667,51 30.68,49 C29.5533333,47 28.9933333,44.1966667 29,40.59 C29,36.4566667 29.59,33.4266667 30.77,31.5 C31.96,29.56 33.89,28.59 36.59,28.59 C39.29,28.59 41.33,29.59 42.47,31.59 C43.61,33.59 44.14,36.43 44.14,40 Z M38.89,40.28 C38.9951956,38.0625171 38.8374305,35.8403781 38.42,33.66 C38.2160048,32.8503981 37.5121934,32.2654262 36.6789393,32.2129198 C35.8456852,32.1604133 35.0740101,32.6524094 34.77,33.43 C34.41,34.25 34.23,36.5333333 34.23,40.28 C34.23,43.97 34.4,46.28 34.76,47.09 C35.0318684,47.8346594 35.7334403,48.3356725 36.5260246,48.3511699 C37.3186089,48.3666674 38.0392298,47.8934626 38.34,47.16 C38.71,46.39 38.89,44.09 38.89,40.3 L38.89,40.28 Z" id="Shape" fill="#2BAF4A"></path>
                <path d="M45.82,65.79 C45.7983439,64.7988489 44.9913742,64.0051809 44,64 L13.5,64 C12.4948418,64 11.68,64.8148418 11.68,65.82 C11.68,66.8251582 12.4948418,67.64 13.5,67.64 L44,67.64 C44.9973391,67.6290396 45.8000602,66.8173993 45.8,65.82 L45.82,65.79 Z" id="Shape" fill="#2BAF4A"></path>
                <path d="M45.82,59.13 C45.8145346,58.1271143 45.0028857,57.3154654 44,57.31 L13.5,57.31 C12.8194039,57.2594466 12.1677245,57.5939042 11.8119878,58.1763285 C11.4562511,58.7587528 11.4562511,59.4912472 11.8119878,60.0736715 C12.1677245,60.6560958 12.8194039,60.9905534 13.5,60.94 L44,60.94 C44.9957279,60.9344987 45.8000152,60.1257431 45.8,59.13 L45.82,59.13 Z" id="Shape" fill="#2BAF4A"></path>
            </g>
        </g>
    </g>
</svg>