<?xml version="1.0" encoding="UTF-8"?>
<svg width="59px" height="59px" viewBox="0 0 59 59" version="1.1" xmlns="http://www.w3.org/2000/svg" xmlns:xlink="http://www.w3.org/1999/xlink">
    <!-- Generator: Sketch 49 (51002) - http://www.bohemiancoding.com/sketch -->
    <title>Asset 18</title>
    <desc>Created with Sketch.</desc>
    <defs></defs>
    <g id="Page-1" stroke="none" stroke-width="1" fill="none" fill-rule="evenodd">
        <g id="How-much-I-can-borrow" transform="translate(-328.000000, -1204.000000)" fill-rule="nonzero">
            <g id="Asset-18" transform="translate(327.000000, 1204.000000)">
                <path d="M30.24,-4.23516474e-22 C18.4085695,6.91441654e-07 7.74232597,7.12761688 3.21556828,18.0588205 C-1.31118941,28.9900242 1.19314982,41.5717549 9.5606648,49.9364092 C17.9281798,58.3010635 30.5107661,60.8011004 41.4404212,56.2706051 C52.3700764,51.7401099 59.4940449,41.0714298 59.49,29.24 C59.4900005,21.4833369 56.4079938,14.0445126 50.9222671,8.56066138 C45.4365403,3.07681013 37.9966626,-0.00265275755 30.24,-4.23516474e-22 Z" id="Shape" fill="#2BAF49"></path>
                <path d="M46.13,41.1 L38.5,33.47 C37.3684203,35.2400232 35.8674497,36.744405 34.1,37.88 L41.72,45.51 C42.9486152,46.6609816 44.8688042,46.6296671 46.0592357,45.4392357 C47.2496671,44.2488042 47.2809816,42.3286152 46.13,41.1 Z" id="Shape" fill="#FFFFFF"></path>
                <path d="M38.73,25.64 C38.73,18.7530092 33.1469908,13.17 26.26,13.17 C19.3730092,13.17 13.79,18.7530092 13.79,25.64 C13.79,32.5269908 19.3730092,38.11 26.26,38.11 C33.1469908,38.11 38.73,32.5269908 38.73,25.64 Z M26.26,35 C21.0974429,34.9944785 16.9163224,30.8058992 16.9200024,25.6433405 C16.9236824,20.4807818 21.1107701,16.2981674 26.2733298,16.3000059 C31.4358895,16.3018445 35.619997,20.48744 35.62,25.65 C35.6144813,30.8154796 31.4254825,35.0000029 26.26,35 Z" id="Shape" fill="#FFFFFF"></path>
                <path d="M19,25.64 L21.08,25.64 C21.0855026,22.7759245 23.4059245,20.4555026 26.27,20.45 L26.27,18.37 C22.2571737,18.3755083 19.0055083,21.6271737 19,25.64 Z" id="Shape" fill="#FFFFFF"></path>
            </g>
        </g>
    </g>
</svg>