<?xml version="1.0" encoding="UTF-8"?>
<svg width="107px" height="53px" viewBox="0 0 107 53" version="1.1" xmlns="http://www.w3.org/2000/svg" xmlns:xlink="http://www.w3.org/1999/xlink">
    <!-- Generator: Sketch 49 (51002) - http://www.bohemiancoding.com/sketch -->
    <title>Asset 3</title>
    <desc>Created with Sketch.</desc>
    <defs>
        <linearGradient x1="0.00164456448%" y1="50.0835243%" x2="100.114077%" y2="50.0835243%" id="linearGradient-1">
            <stop stop-color="#06A54C" offset="0%"></stop>
            <stop stop-color="#06A54C" offset="100%"></stop>
        </linearGradient>
        <linearGradient x1="3513%" y1="4135%" x2="7314%" y2="4135%" id="linearGradient-2">
            <stop stop-color="#06A54C" offset="0%"></stop>
            <stop stop-color="#06A54C" offset="100%"></stop>
        </linearGradient>
        <linearGradient x1="417%" y1="3668%" x2="3696%" y2="3668%" id="linearGradient-3">
            <stop stop-color="#06A54C" offset="0%"></stop>
            <stop stop-color="#06A54C" offset="100%"></stop>
        </linearGradient>
    </defs>
    <g id="Page-1" stroke="none" stroke-width="1" fill="none" fill-rule="evenodd">
        <g id="Brighten-home-Copy-11" transform="translate(-1256.000000, -1544.000000)">
            <g id="Asset-3" transform="translate(1252.000000, 1544.000000)">
                <path d="M65.9361468,14.1978846 C65.9361468,13.4946154 66.0697248,10.9465385 66.0697248,10.3757692 C66.0640607,4.70400952 61.4301971,0.107541466 55.7122936,0.101923077 L55.2601835,0.101923077 C49.54228,0.107541466 44.9084164,4.70400952 44.9027523,10.3757692 C44.9027523,10.9669231 45.0363303,13.4946154 45.0363303,14.1978846 C44.7897248,14.1978846 42.4675229,13.6576923 42.7244037,16.4096154 C43.2484404,22.2498077 45.5089908,21.1286538 45.560367,21.1286538 C46.3360639,23.9047549 47.897966,26.4020245 50.0609174,28.3244231 C51.5273497,29.6343843 53.343058,30.4977586 55.2910092,30.8113462 L55.7122936,30.8113462 C57.6259258,30.495256 59.4085345,29.6429725 60.8499083,28.355 C63.0309616,26.429791 64.6045634,23.9203124 65.3812844,21.1286538 C65.453211,21.1286538 67.7034862,22.26 68.2172477,16.4096154 C68.4638532,13.6576923 66.1622018,14.2080769 65.8950459,14.1978846 L65.9361468,14.1978846 Z" id="Shape" fill="#434343" fill-rule="nonzero"></path>
                <rect id="Rectangle-path" x="0" y="0" width="111.147156" height="52.8573077"></rect>
                <path d="M12.5974312,18.3461538 C13.2747166,20.764855 14.6369167,22.9402275 16.5225688,24.6144231 C17.7947225,25.7540246 19.371953,26.5044193 21.0642202,26.7751923 L21.4341284,26.7751923 C23.1175831,26.5087107 24.6875688,25.7654463 25.9552294,24.6348077 C27.8501859,22.9546045 29.2225498,20.7730066 29.9111927,18.3461538 C29.9625688,18.3461538 31.9662385,19.3653846 32.3875229,14.2692308 C32.6033028,11.8638462 30.5893578,12.3530769 30.3324771,12.3326923 C30.3324771,11.7211538 30.4557798,9.50942308 30.4557798,8.99980769 C30.4728576,4.0541493 26.4507979,0.0280714852 21.4649541,0 L21.0642202,0 C16.0783722,0.00561682756 12.0379561,4.01342658 12.0322936,8.95903846 C12.0322936,9.46865385 12.1658716,11.6905769 12.1658716,12.2919231 C11.9398165,12.2919231 9.91559633,11.8230769 10.1108257,14.2284615 C10.5526606,19.3246154 12.5152294,18.3053846 12.5666055,18.3053846 L12.5974312,18.3461538 Z" id="Shape" fill="#434343" fill-rule="nonzero"></path>
                <path d="M110.253211,39.0161538 C110.253211,38.69 110.181284,38.3638462 110.140183,37.9969231 C110.140183,37.9969231 109.955229,36.9776923 109.914128,36.7942308 C109.479088,35.0434927 108.373323,33.529852 106.83156,32.5746154 C106.546217,32.3863775 106.251268,32.2128773 105.94789,32.0548077 C105.547156,31.8509615 99.4744954,29.8736538 99.320367,29.8125 C99.3616767,30.0414311 99.3857189,30.273099 99.3922936,30.5055769 C101.549728,31.9913239 102.451549,34.7165584 101.601468,37.1815385 C101.601468,37.1815385 99.8033028,35.0717308 97.9845872,34.8067308 C96.2480734,37.8032692 93.2990826,41.605 91.706422,42.6038462 C90.1034862,41.5846154 87.1544954,37.8134615 85.4179817,34.8067308 C83.5992661,35.0717308 81.8011009,37.1815385 81.8011009,37.1815385 C80.9820116,34.746614 81.861764,32.0666188 83.9691743,30.5769231 C83.9706175,30.3441402 83.9947047,30.1120388 84.0411009,29.8838462 C83.8766972,29.945 77.8143119,31.9223077 77.413578,32.1261538 C77.1063988,32.277383 76.8110225,32.4511345 76.5299083,32.6459615 C75.9236697,33.0536538 74.3310092,35.7036538 75.0091743,36.5496154 C75.4174247,37.0126068 75.7628629,37.5265826 76.0366972,38.0784615 C76.2147368,38.4608605 76.352471,38.860482 76.4477064,39.2709615 C77.0333945,41.0240385 76.6223853,43.9288462 77.1977982,45.9876923 L105.691009,45.9876923 C107.034695,46.0400106 108.335284,45.5120763 109.256514,44.5403846 C109.936984,43.7524145 110.302565,42.7443023 110.284037,41.7069231 C110.284037,41.5234615 110.284037,40.6876923 110.284037,40.6876923 L110.21211,38.9957692 L110.253211,39.0161538 Z" id="Shape" fill="url(#linearGradient-1)" fill-rule="nonzero"></path>
                <path d="M80.6605505,20.1094231 C80.8075434,20.5857491 80.8904624,21.0792481 80.907156,21.5771154 C80.9217403,21.7330627 80.9217403,21.8900143 80.907156,22.0459615 C80.5546569,22.7935693 80.1494948,23.5156134 79.6946789,24.2067308 C81.3489908,25.97 83.5273394,26.3776923 85.6645872,26.8261538 C86.3016514,26.9586538 86.9489908,27.0401923 87.6477064,27.1217308 L88.3258716,27.2542308 L87.2366972,30.4138462 C87.4087957,33.4728945 89.0830531,36.2535014 91.7166972,37.8542308 C94.3503414,36.2535014 96.0245988,33.4728945 96.1966972,30.4138462 L95.1075229,27.2542308 L95.7856881,27.1217308 C96.4741284,27.0401923 97.1214679,26.9586538 97.7585321,26.8261538 C99.906055,26.3776923 102.094679,25.97 103.72844,24.2067308 C103.277477,23.5133132 102.872463,22.7915331 102.515963,22.0459615 C102.506239,21.8898283 102.506239,21.7332486 102.515963,21.5771154 C102.522564,21.0783025 102.60572,20.5833966 102.762569,20.1094231 C102.896147,19.6201923 103.050275,19.0901923 103.204404,18.6213462 C104.973514,14.7008617 104.6478,10.1623804 102.336643,6.53001811 C100.025486,2.89765577 96.0354312,0.653199719 91.706422,0.550384615 C84.6957139,0.69490561 79.0953311,6.38613845 79.1192661,13.3417308 C79.1205889,15.1605453 79.5055983,16.9589582 80.2495413,18.6213462 C80.372844,19.1309615 80.5372477,19.6405769 80.6708257,20.1094231 L80.6605505,20.1094231 Z" id="Shape" fill="#434343" fill-rule="nonzero"></path>
                <path d="M65.9875229,31.5961538 L64.6209174,31.2598077 L55.5684404,51.6444231 L46.5262385,31.2598077 L45.2110092,31.5961538 C39.8456939,32.9303701 36.086593,37.7184909 36.0968807,43.2051923 L36.0968807,50.4519231 C36.0886125,51.1266584 36.3537667,51.7764417 36.8328581,52.2554993 C37.3119495,52.7345568 37.9648684,53.0027818 38.6451376,53 L72.5533945,53 C73.9903966,53.0115268 75.1707698,51.8769846 75.2044037,50.4519231 L75.2044037,43.2357692 C75.1986806,37.7142372 71.3941749,32.9096852 65.9875229,31.5961538 Z" id="Shape" fill="url(#linearGradient-2)" fill-rule="nonzero"></path>
                <path d="M55.6609174,47.965 L58.6818349,40.3615385 L57.2844037,38.9651923 C57.7141022,38.9107407 58.0999956,38.6770986 58.3452441,38.3228984 C58.5904926,37.9686983 58.6718164,37.5275619 58.5688073,37.1101923 L57.9522936,34.5417308 C57.7908655,33.8775423 57.2021727,33.4020466 56.5137615,33.3798077 L54.7977982,33.3798077 C54.0926624,33.3800046 53.4801558,33.8609925 53.3181651,34.5417308 L52.6913761,37.1 C52.5884437,37.5200988 52.6708957,37.9638012 52.9180645,38.3198874 C53.1652333,38.6759737 53.5536872,38.9106866 53.986055,38.9651923 L52.5783486,40.3615385 L55.6609174,47.965 Z" id="Shape" fill="#434343" fill-rule="nonzero"></path>
                <path d="M30.4352294,28.1817308 L29.2433028,27.8861538 L21.3313761,45.7532692 L13.4194495,27.8963462 L12.2686239,28.1817308 C7.56101993,29.3536599 4.26638072,33.5596461 4.28477064,38.3740385 L4.28477064,44.6830769 C4.29042705,45.9005999 5.28705402,46.8846283 6.51449541,46.8846154 L33.5177982,46.8846154 C33.5177982,46.8846154 33.6924771,36.5190385 37.4223853,33.8282692 C39.8987156,32.0344231 33.5691743,28.9665385 30.4352294,28.1817308 Z" id="Shape" fill="url(#linearGradient-3)" fill-rule="nonzero"></path>
                <path d="M21.4033028,42.4815385 L24.0440367,35.8259615 L22.8212844,34.6538462 C23.1964771,34.6005858 23.5320881,34.3940336 23.7468112,34.0842296 C23.9615343,33.7744256 24.0357794,33.3896344 23.9515596,33.0230769 L23.4069725,30.7807692 C23.2636832,30.1814634 22.7229542,29.7591285 22.1020183,29.7615385 L20.653211,29.7615385 C20.0322751,29.7591285 19.4915461,30.1814634 19.3482569,30.7807692 L18.813945,33.0230769 C18.7195324,33.3888995 18.7882465,33.7773286 19.0025822,34.0894108 C19.2169179,34.401493 19.5561816,34.6070976 19.933945,34.6538462 L18.7111927,35.8769231 L21.4033028,42.4815385 Z" id="Shape" fill="#434343" fill-rule="nonzero"></path>
            </g>
        </g>
    </g>
</svg>