<?xml version="1.0" encoding="UTF-8"?>
<svg width="78px" height="78px" viewBox="0 0 78 78" version="1.1" xmlns="http://www.w3.org/2000/svg" xmlns:xlink="http://www.w3.org/1999/xlink">
    <!-- Generator: Sketch 49 (51002) - http://www.bohemiancoding.com/sketch -->
    <title>Asset 5</title>
    <desc>Created with Sketch.</desc>
    <defs>
        <linearGradient x1="-0.000322946428%" y1="50.0757234%" x2="100.049542%" y2="50.0757234%" id="linearGradient-1">
            <stop stop-color="#06A54C" offset="0%"></stop>
            <stop stop-color="#06A54C" offset="100%"></stop>
        </linearGradient>
        <linearGradient x1="1904%" y1="3864%" x2="2502%" y2="3864%" id="linearGradient-2">
            <stop stop-color="#06A54C" offset="0%"></stop>
            <stop stop-color="#06A54C" offset="100%"></stop>
        </linearGradient>
        <linearGradient x1="828%" y1="2350%" x2="1929%" y2="2350%" id="linearGradient-3">
            <stop stop-color="#06A54C" offset="0%"></stop>
            <stop stop-color="#06A54C" offset="100%"></stop>
        </linearGradient>
        <linearGradient x1="2139%" y1="2742%" x2="3018%" y2="2742%" id="linearGradient-4">
            <stop stop-color="#06A54C" offset="0%"></stop>
            <stop stop-color="#06A54C" offset="100%"></stop>
        </linearGradient>
        <linearGradient x1="1936%" y1="2072%" x2="2400%" y2="2072%" id="linearGradient-5">
            <stop stop-color="#06A54C" offset="0%"></stop>
            <stop stop-color="#06A54C" offset="100%"></stop>
        </linearGradient>
    </defs>
    <g id="Page-1" stroke="none" stroke-width="1" fill="none" fill-rule="evenodd">
        <g id="Brighten-home-Copy-11" transform="translate(-872.000000, -1788.000000)" fill-rule="nonzero">
            <g id="Asset-5" transform="translate(872.000000, 1788.000000)">
                <path d="M58,59.0348123 L36.0087053,46 C36.5893684,47.4600683 40.8334877,51.2901024 42.617707,52.5174061 C43.4623078,53.1098976 44.3385812,53.7129693 45.2359696,54.4430034 C46.133358,55.1730375 47.1679941,56.1887372 46.9779589,57.416041 C46.7456936,58.8232082 45.0564919,59.5320819 43.2722726,60.1668942 C41.2241156,60.9498294 33.6332654,63.1610922 30.3182071,64.0709898 L29.0513058,64.4201365 C25.4774599,65.5004031 21.8286467,66.3137793 18.1348398,66.8535836 C15.8966475,67.1075085 13.42619,68.5993174 11.441378,69.7948805 C9.91418726,70.6655979 8.30076447,71.3747606 6.62715318,71.9109215 L6.27875533,71.9109215 C5.56977977,71.9196159 4.86191255,71.852224 4.1672532,71.7098976 L1,77 L58,59.0348123 Z" id="Shape" fill="#4F4E50"></path>
                <path d="M0.579353137,77.9922411 C0.393610513,77.99558 0.217561303,77.9099236 0.106127848,77.7619942 C-0.0353759493,77.5532807 -0.0353759493,77.2799669 0.106127848,77.0712534 L3.26096311,71.838369 C3.39627705,71.6104977 3.66435452,71.4961575 3.92347851,71.5557932 C4.56455647,71.6765399 5.21671007,71.7291641 5.86896026,71.7127797 L6.17392766,71.7127797 C7.74152121,71.1520612 9.25498731,70.4514938 10.6958582,69.619626 C12.7254689,68.4055968 15.238821,66.898526 17.6049474,66.6264161 C21.2241236,66.1041613 24.7990368,65.3135396 28.299839,64.2611523 L29.645902,63.8948504 C33.0320918,62.9738627 40.4775031,60.8179143 42.4965976,60.0434474 C44.1055636,59.425967 45.6514329,58.8503497 45.7986585,57.8037729 C45.9458842,56.757196 44.9994336,56.0141264 44.2843376,55.4385091 C43.3799515,54.7059053 42.4965976,54.0988907 41.7184049,53.5546707 C40.0778906,52.4243676 35.5875084,48.5101701 34.9144769,46.835647 C34.818444,46.5931357 34.8857741,46.316729 35.0827348,46.1449063 C35.2847442,45.977916 35.5695606,45.9529054 35.7978308,46.0821117 L57.6923875,58.9654732 C57.900931,59.0893412 58.0195297,59.321333 57.9973549,59.562022 C57.9671165,59.8023175 57.7985263,60.0028386 57.566194,60.0748447 L0.768643253,77.9922411 C0.705974682,78.0025863 0.642021708,78.0025863 0.579353137,77.9922411 Z M4.06018804,72.7593566 L1.95696453,76.2863208 L55.8941314,59.3213093 L38.1218927,48.8555404 C39.4571853,50.1929285 40.8952423,51.4246462 42.4229848,52.5394911 C43.2116936,53.0941768 44.1160797,53.722123 45.0520142,54.4756583 C45.9879486,55.2291937 47.2498827,56.4536887 47.008012,57.9816909 C46.734593,59.7294743 44.7996274,60.4620782 42.9382746,61.1214216 C40.8350511,61.9063543 33.3791237,64.0832342 29.9719016,65.0042219 L28.6363547,65.4333184 C25.0707653,66.5121287 21.4290211,67.3237499 17.741657,67.8613768 C15.6384334,68.1125552 13.2512748,69.5463656 11.3268253,70.6976002 C9.72278754,71.6489025 8.00596969,72.3977325 6.21599213,72.9268089 L5.86896026,72.9268089 C5.26234005,72.9224497 4.65720768,72.8664279 4.06018804,72.7593566 Z" id="Shape" fill="#4F4E50"></path>
                <path d="M76.490039,2.88343915 C75.4377618,1.40286376 73.8380521,0.400203295 72.0435163,0.0964631996 C70.2489805,-0.207276896 68.4069374,0.212838305 66.9234083,1.26420742 L47.410435,15.0487061 C44.6575307,17.0115946 43.76037,20.6873671 45.3009243,23.6916183 L40.0271478,27.4663209 C39.5843669,27.7418637 39.3077149,28.2185774 39.288819,28.7385744 L39.288819,44.1633338 L37,46.2662321 C37.7837681,46.7575722 38.3236485,47.5553121 38.487205,48.4637609 C38.5223827,48.6471967 38.5753698,48.8267881 38.6454183,49 L41.9151598,46.0138843 C42.2422631,45.7331993 42.4372021,45.329302 42.453085,44.8993482 L42.453085,29.5481902 L47.2311266,26.1625239 C49.6112209,28.1690856 53.0516887,28.3161338 55.5953362,26.5200166 L75.1083095,12.7355179 C76.5928458,11.6884751 77.5984344,10.0956079 77.9031734,8.30841241 C78.2079124,6.52121693 77.7867533,4.68659425 76.7326327,3.2093884 L76.490039,2.88343915 Z" id="Shape" fill="#4F4E50"></path>
                <path d="M19.4175607,42.7519552 C17.6798272,43.8256083 16.5097127,45.6094202 16.2221082,47.6233469 C16.211105,47.8447276 16.1790068,48.0645717 16.1262446,48.2799257 C15.8954193,49.2434816 15.3708941,50.1126405 14.624382,50.7685715 C13.5990691,51.6911737 12.4299602,52.4422344 11.1626418,52.9924677 C4.92085795,55.7882229 1.98104167,58.3404086 0.670906154,62.0574923 C0.212891298,63.7942493 -0.330335623,67.2465834 0.255497331,68.3267616 C0.836592239,69.2879246 1.86582598,69.893138 2.99293496,69.9364388 C3.40335512,69.9795581 3.81580541,70.0007685 4.22850991,69.9999787 L4.5906612,69.9999787 C5.06600826,69.9133323 5.53288102,69.7857724 5.98600878,69.6187394 C5.98600878,69.6187394 7.562432,68.8774407 8.81930998,68.1255519 C10.9496116,66.8653441 13.388807,65.3086167 15.9345175,65.0120972 C19.4857927,64.4993376 22.9930217,63.7205219 26.4262531,62.6823012 L27.6511766,62.3328318 C30.9957502,61.4220933 38.3985484,59.272327 40.1880018,58.5945682 C41.3596677,58.1497889 42.9254394,57.53557 43,57.0378408 C43,56.9637109 43,56.5189317 41.8283341,55.5658333 C40.9868649,54.8880745 40.1453958,54.3056255 39.3358812,53.7443564 C37.1416705,52.229989 35.245702,50.9168312 34.7344296,48.5552653 C34.6153306,47.9240704 34.176044,47.3991701 33.5734152,47.1679776 C33.1944638,46.9852395 32.8029208,46.829527 32.4017493,46.7020184 L32.3165372,46.7020184 C30.9318499,46.2982633 29.6499089,45.6050312 28.5565548,44.6687419 C28.4926457,44.6687419 28.4180852,44.573432 28.3541761,44.5098922 C27.0938432,43.2731375 25.4855547,42.4459419 23.7420731,42.1377362 C23.3243888,42.0553192 22.900274,42.009255 22.4745436,42.0000664 C21.5486682,41.9959877 20.6316905,42.1797653 19.779712,42.5401555 L19.3962577,42.7519552 L19.4175607,42.7519552 Z" id="Shape" fill="url(#linearGradient-1)"></path>
                <path d="M26,48.5645439 L24.98971,50 L24.9088868,49.9277108 L24.7775491,49.8244406 L24.6057998,49.5972461 L24.4037418,49.4010327 L24.1612722,49.1531842 L23.8985968,48.8743546 L23.6157156,48.5645439 L23.3025257,48.1927711 L22.9893358,47.7796902 L22.666043,47.3149742 L22.3326473,46.8089501 C22.2215154,46.6333907 22.1204864,46.4475043 22.0093545,46.2616179 C21.8982226,46.0757315 21.7971936,45.869191 21.6961646,45.6626506 C21.5951356,45.4561102 21.4840037,45.2495697 21.3829747,45.0327022 C21.2819457,44.8158348 21.1910196,44.5783133 21.1000935,44.3511188 C21.0091674,44.1239243 20.9182413,43.8657487 20.8374181,43.6179002 C20.7565949,43.3700516 20.6656688,43.1118761 20.5949486,42.8537005 C20.5242283,42.595525 20.453508,42.3166954 20.3928906,42.0378657 C20.3322732,41.7590361 20.2716558,41.4698795 20.2211413,41.1807229 C20.1706268,40.8915663 20.1302152,40.5817556 20.0898036,40.2822719 C20.049392,39.9827883 20.0291862,39.6419966 20.0089804,39.3321859 C19.9887746,39.0223752 20.0089804,38.6712565 20.0089804,38.2994836 C20.0089804,37.9277108 20.0089804,37.6075731 20.0089804,37.2667814 C20.0089804,36.9259897 20.0594949,36.5542169 20.0999065,36.2340792 C20.1403181,35.9139415 20.2009355,35.4802065 20.2615529,35.1084337 C20.3221703,34.7366609 20.4029935,34.32358 20.4838167,33.9414802 C20.5646399,33.5593804 20.6252572,33.3115318 20.7161833,33.0017212 C20.7161833,32.8468158 20.7970065,32.6919105 20.847521,32.5370052 C20.8836238,32.3878468 20.9415246,32.245106 21.0192703,32.1135972 C21.0562572,32.0506233 21.1196662,32.0086838 21.1910196,32 C21.3324602,32 21.3829747,32.1549053 21.4031805,32.2788296 C21.4168951,32.6251321 21.3897586,32.9718626 21.3223573,33.3115318 C21.3223573,33.4561102 21.3223573,33.6006885 21.2718428,33.7452668 C21.2213283,33.8898451 21.2718428,34.0757315 21.2213283,34.2409639 C21.1708138,34.4061962 21.2213283,34.6127367 21.2213283,34.7986231 C21.2213283,34.9845095 21.2213283,35.211704 21.2213283,35.4182444 C21.2213283,35.6247849 21.2213283,35.8623064 21.2213283,36.0895009 C21.2213283,36.3166954 21.2213283,36.5645439 21.2213283,36.8020654 C21.2213283,37.0395869 21.2213283,37.3080895 21.2718428,37.5662651 C21.3223573,37.8244406 21.2718428,38.0929432 21.352666,38.3614458 C21.4334892,38.6299484 21.4233863,38.919105 21.4739008,39.1979346 C21.5244153,39.4767642 21.5749298,39.7762478 21.6355472,40.0654045 C21.6961646,40.3545611 21.7769878,40.6643718 21.857811,40.9638554 C21.9386342,41.2633391 22.0396632,41.5731497 22.1406922,41.8829604 C22.2417212,42.1927711 22.3528531,42.5129088 22.4740879,42.8227194 C22.5953227,43.1325301 22.7468662,43.4629948 22.8883068,43.7728055 C23.0297474,44.0826162 23.2014967,44.4234079 23.373246,44.7332186 C23.5449953,45.0430293 23.7369504,45.394148 23.9390084,45.7039587 C24.1410664,46.0137694 24.3532273,46.3648881 24.585594,46.6850258 C24.8179607,47.0051635 25.0705332,47.3356282 25.3231057,47.6557659 C25.5756782,47.9759036 25.7575304,48.2237522 26,48.5645439 Z" id="Shape" fill="url(#linearGradient-2)"></path>
                <path d="M9.05668075,17.1087179 C8.8110516,19.87009 9.36701024,22.6431168 10.6612001,25.1117867 C12.8442196,29.5118803 16.6754189,32.2008263 19.8844576,31.9882614 C18.7165422,27.7901045 15.7258054,22.9011117 13.2589933,21.9126848 C15.9222772,22.9755094 19.2295517,26.9292166 20.6703446,31.1273736 C21.3334849,28.4110079 20.989412,25.5538371 19.6989009,23.0605353 C17.5158814,18.7454677 13.1498424,16.460395 9.05668075,17.1087179 Z" id="Shape" fill="url(#linearGradient-3)"></path>
                <path d="M27.668942,26.1279203 C29.1401701,25.837628 30.6713997,26.044898 32,26.71418 C31.9792019,29.1972161 30.1815641,31.3446017 27.6484642,31.9123491 C26.1379647,32.1809318 24.5789564,31.8258572 23.3583618,30.9352497 C25.7030717,30.8863947 28.1501706,29.6747914 29.0102389,28.2873101 C28.2116041,29.5770814 25.3139932,30.4076159 23,30.300135 C23.4810132,28.1102435 25.3475646,26.4422739 27.668942,26.1279203 Z" id="Shape" fill="url(#linearGradient-4)"></path>
                <path d="M20.3597562,20.4607219 C20.7399245,19.0745355 21.5860376,17.855041 22.7608839,17 C24.6919235,18.7147633 25.4562434,21.3609811 24.7293759,23.8152866 C24.3289937,25.1921331 23.3658699,26.344936 22.0686669,27 C23.0547305,24.9724207 23.2434543,22.6589237 22.5986455,20.5031847 C23.2151513,21.9469214 22.5986455,24.9723992 21.4305293,26.9363057 C20.078543,25.5881104 19.6026439,22.9766454 20.3597562,20.4607219 Z" id="Shape" fill="url(#linearGradient-5)"></path>
            </g>
        </g>
    </g>
</svg>