<?xml version="1.0" encoding="UTF-8"?>
<svg width="53px" height="71px" viewBox="0 0 53 71" version="1.1" xmlns="http://www.w3.org/2000/svg" xmlns:xlink="http://www.w3.org/1999/xlink">
    <!-- Generator: Sketch 49 (51002) - http://www.bohemiancoding.com/sketch -->
    <title>Page 1</title>
    <desc>Created with Sketch.</desc>
    <defs>
        <polygon id="path-1" points="0.411912269 0.278538462 37.6201714 0.278538462 37.6201714 42.4498077 0.411912269 42.4498077"></polygon>
    </defs>
    <g id="Page-1" stroke="none" stroke-width="1" fill="none" fill-rule="evenodd">
        <g id="Brighten-home-Copy-11" transform="translate(-1024.000000, -1001.000000)">
            <g id="Page-1" transform="translate(1024.000000, 1001.000000)">
                <g id="Group-3" transform="translate(7.134615, 0.000000)">
                    <mask id="mask-2" fill="white">
                        <use xlink:href="#path-1"></use>
                    </mask>
                    <g id="Clip-2"></g>
                    <path d="M18.8949227,39.4066385 C12.2898576,39.4066385 6.84054033,31.4655615 5.80569135,23.9493923 C6.300378,21.2426538 7.82436782,15.4184692 12.1977971,11.1235154 C15.5596699,14.7019154 21.7099781,18.8221 32.0651229,18.4703769 C32.1294544,19.3901 32.1616201,20.3786385 32.1616201,21.4403615 C32.1616201,29.5780538 26.244236,39.4066385 18.8949227,39.4066385 M35.218473,19.6336846 C35.0044046,14.1000538 33.7854346,10.4430077 31.94977,7.9449 L31.9542066,7.9449 C30.6709051,5.96454615 27.9002162,3.85420769 26.1943237,2.82962308 C14.9840143,-3.90663846 8.90801997,4.70620769 8.20924734,5.77885385 C7.17883501,6.1415 0.761218495,8.92251538 2.61795718,18.7554692 C2.59910141,19.0820692 2.58246397,19.4163154 2.56915402,19.7549308 C1.20599282,20.3764538 0.183344627,21.8172077 0.456198699,25.0799308 C0.747908541,28.5392692 2.51147755,30.0969 4.42922019,30.4999615 C7.14112347,37.0472538 12.5250002,42.4498077 18.8949227,42.4498077 C25.2493169,42.4498077 30.622102,37.0734692 33.3417694,30.5491154 C35.3582275,30.2345308 37.2737519,28.6965615 37.5754442,25.0810231 C37.8660449,21.6238692 36.7014238,20.1918538 35.218473,19.6336846" id="Fill-1" fill="#434242" mask="url(#mask-2)"></path>
                </g>
                <path d="M35.2216858,61.1376014 L38.6776346,57.4358035 C39.4935767,56.5592909 40.8915503,56.5495035 41.7063943,57.4271037 L45.1645394,61.1376014 L35.2216858,61.1376014 Z M40.5642949,42.0413704 L38.7116779,41.5857143 L26.4330115,69.2426248 L14.1598359,41.5933267 L12.3753056,42.0413704 C5.08783308,43.8487699 0,50.3323536 0,57.7740113 L0,67.5417987 C0,69.4655591 1.52096888,71 3.46363599,71 L49.4111724,71 C51.3527413,71 53,69.4655591 53,67.5417987 L53,57.7740113 C53,50.3323536 47.8528656,43.8487699 40.5642949,42.0413704 Z" id="Fill-4" fill="#434242"></path>
                <path d="M25.0061646,63.9 L28.5384615,53.3197391 L26.8995817,51.3871287 C27.9357095,51.2309131 28.6586334,50.0392111 28.4059886,48.802876 L27.6811722,45.240044 C27.4871939,44.2927078 26.768055,43.6142857 25.9419914,43.6142857 L24.0012625,43.6142857 C23.1733065,43.6142857 22.4551138,44.2927078 22.2611355,45.240044 L21.5363191,48.7984127 C21.282728,50.0347478 22.0075444,51.2286814 23.0436722,51.3848971 L21.4038462,53.3186233 L25.0061646,63.9 Z" id="Fill-6" fill="#2BAE4A"></path>
            </g>
        </g>
    </g>
</svg>