<?xml version="1.0" encoding="UTF-8"?>
<svg width="71px" height="68px" viewBox="0 0 71 68" version="1.1" xmlns="http://www.w3.org/2000/svg" xmlns:xlink="http://www.w3.org/1999/xlink">
    <!-- Generator: Sketch 49 (51002) - http://www.bohemiancoding.com/sketch -->
    <title>Asset 6</title>
    <desc>Created with Sketch.</desc>
    <defs></defs>
    <g id="Page-1" stroke="none" stroke-width="1" fill="none" fill-rule="evenodd">
        <g id="Brighten-home-Copy-11" transform="translate(-1275.000000, -1794.000000)" fill-rule="nonzero">
            <g id="Asset-6" transform="translate(1275.000000, 1794.000000)">
                <path d="M12,11.2940563 C12.1010588,12.8156182 13.414148,14 15,14 C16.585852,14 17.8989412,12.8156182 18,11.2940563 L18,2.70594373 C17.8989412,1.18438183 16.585852,9.78254475e-17 15,0 C13.414148,-9.78254475e-17 12.1010588,1.18438183 12,2.70594373 L12,11.2940563 Z" id="Shape" fill="#424143"></path>
                <path d="M65.1239778,68 C68.3421986,68.0002287 70.9618393,65.3841166 71,62.1318927 L71,10.9033159 C70.9618393,7.65109205 68.3421986,5.03497998 65.1239778,5.03520864 L59.5382728,5.03520864 L59.5382728,11.3727645 C59.5382728,14.1145373 57.3390199,16.3371833 54.626104,16.3371833 C51.9131881,16.3371833 49.7139352,14.1145373 49.7139352,11.3727645 L49.7139352,5 L39.912823,5 L39.912823,11.3727645 C39.7853113,14.0239719 37.6212488,16.1073273 34.9948479,16.1073273 C32.368447,16.1073273 30.2043844,14.0239719 30.0768728,11.3727645 L30.0768728,5 L20.2873732,5 L20.2873732,11.3727645 C20.1598615,14.0239719 17.995799,16.1073273 15.3693981,16.1073273 C12.7429972,16.1073273 10.5789347,14.0239719 10.451423,11.3727645 L10.451423,5 L5.80634609,5 C2.61271441,5.03180134 0.031466635,7.64050545 0,10.8681073 L0,62.0614754 C-7.75045504e-05,63.6280149 0.619624798,65.1295533 1.72111635,66.2317394 C2.8226079,67.3339254 4.31443519,67.9452481 5.86440955,67.9295827 L65.1239778,68 Z" id="Shape" fill="#424143"></path>
                <path d="M51,2.80917281 L51,11.1908272 C51,12.7422905 52.3431458,14 54,14 C55.6568542,14 57,12.7422905 57,11.1908272 L57,2.80917281 C57,1.25770951 55.6568542,9.54737245e-17 54,0 C52.3431458,-9.54737245e-17 51,1.25770951 51,2.80917281 Z" id="Shape" fill="#424143"></path>
                <path d="M32,2.80917274 L32,11.1908273 C32.0000001,12.7422905 33.3431458,14 35,14 C36.6568542,14 37.9999999,12.7422905 38,11.1908273 L38,2.80917274 C37.9999999,1.25770946 36.6568542,9.54737261e-17 35,0 C33.3431458,-9.34846901e-17 32.0000001,1.25770946 32,2.80917274 Z" id="Shape" fill="#424143"></path>
                <rect id="Rectangle-path" fill="#FFFFFF" x="4" y="24" width="64" height="39"></rect>
                <path d="M16.7489416,49.9968465 C15.5683912,50.0326056 14.3969839,49.7638076 13.3321178,49.2128021 C12.4337501,48.7339362 11.6390873,48.0560651 11,47.2234357 L13.1694119,44.8830046 C13.6176429,45.4500087 14.153437,45.9290624 14.7530826,46.2989654 C15.3624798,46.6697401 16.049329,46.8670702 16.7489416,46.872371 C17.2888451,46.89872 17.8197124,46.7161147 18.2458358,46.3574762 C18.6267044,46.0141264 18.8389433,45.5000237 18.8207299,44.9649197 C18.8420645,44.3591911 18.5494241,43.7909133 18.0614358,43.4904481 C17.4209332,43.1019026 16.6907544,42.9191793 15.9571062,42.9638511 L14.5795296,42.9638511 L14.0697179,40.7638459 L17.562471,36.9957518 L11.8135295,36.9957518 L11.8135295,34 L21.7277419,34 L21.7277419,36.6095807 L18.0505887,40.3659726 C18.547496,40.4565119 19.0345274,40.6015919 19.5040947,40.7989523 C19.9660698,40.9821125 20.392663,41.2558655 20.7623536,41.606401 C21.1465535,41.9634848 21.4538168,42.4067969 21.6626595,42.9053403 C21.8978649,43.5003454 22.0125104,44.1427007 21.9989184,44.7893873 C22.0119249,45.5038594 21.8863032,46.2133709 21.6301184,46.872371 C21.3761278,47.4927045 21.0069605,48.0502819 20.5454124,48.5106728 C20.0649467,48.992244 19.4957466,49.3590919 18.8749652,49.5872711 C18.1928057,49.8523037 17.4739671,49.9907869 16.7489416,49.9968465 Z" id="Shape" fill="#2BAF4A"></path>
                <path d="M33.0006055,49.999592 C32.0098538,50.0105165 31.0292334,49.8019219 30.1309343,49.3891644 C29.2830112,48.9904059 28.5342966,48.4123937 27.9378523,47.6960917 C27.3074679,46.948431 26.8282972,46.088252 26.5263473,45.1622414 C26.1811797,44.144889 26.0039376,43.079358 26.0014075,42.0064461 C25.9830338,40.9394126 26.1446685,39.8768008 26.479686,38.8621682 C26.7922234,37.928961 27.2788777,37.0617402 27.9145216,36.3052829 C29.1555577,34.805733 31.0281408,33.9556857 32.9889402,34.0017826 C34.9379961,33.9797459 36.7933808,34.8258763 38.0400282,36.3052829 C38.666335,37.0599721 39.1449792,37.9231117 39.4515331,38.8506507 C39.8012872,39.8357734 39.9864607,40.8704956 39.9998036,41.9143061 C40.0066735,42.9870264 39.8332268,44.0534389 39.4865291,45.0701014 C39.178023,46.0026659 38.6953079,46.8699177 38.0633588,47.6269867 C37.455455,48.34405 36.6999055,48.9251252 35.8469461,49.3315769 C34.9622191,49.7657596 33.9885821,49.994265 33.0006055,49.999592 Z M33.0006055,46.9244192 C33.5005853,46.9355156 33.9936799,46.8078183 34.4237758,46.5558591 C34.8543412,46.3022322 35.2212308,45.9557416 35.4969862,45.542319 C35.8136787,45.0661181 36.0463882,44.5403949 36.1852407,43.9874563 C36.3447941,43.3429382 36.4231555,42.6814386 36.4185473,42.0179636 C36.4241849,41.3575239 36.3418213,40.6992205 36.1735754,40.0599883 C36.0319231,39.5004714 35.7910062,38.9701519 35.4619902,38.4936081 C35.1790252,38.0688488 34.804609,37.7109754 34.3654492,37.4455155 C33.958678,37.1810276 33.4871532,37.0298235 33.0006055,37.0078505 C32.5050101,37.0024647 32.0172066,37.1298358 31.5891006,37.3764105 C31.1557374,37.6313599 30.7883318,37.9822808 30.5158902,38.4014681 C30.1828818,38.8969463 29.9309384,39.4410883 29.7693091,40.0139183 C29.6010631,40.6531505 29.5186996,41.3114539 29.5243372,41.9718936 C29.5188006,42.6399159 29.6011464,43.3058202 29.7693091,43.9529038 C29.9148666,44.5091096 30.1512726,45.0381726 30.4692289,45.519284 C30.7548333,45.9356857 31.1290577,46.2855145 31.5657699,46.5443416 C31.9982823,46.801847 32.4956276,46.9335901 33.0006055,46.9244192 Z" id="Shape" fill="#2BAF4A"></path>
                <path d="M44.5313433,53.9971848 C44.1758486,54.0030882 43.8215302,53.9548144 43.480597,53.854027 C43.172149,53.7617148 42.8755973,53.6335888 42.5970149,53.472273 L43.3373134,51.8736778 C43.485557,51.9594903 43.6414489,52.0313772 43.8029851,52.0884144 C43.952204,52.14296 44.1097661,52.1712155 44.2686567,52.1719232 C44.4233461,52.1810003 44.5772138,52.1436059 44.7104478,52.0645548 C44.8488983,51.9650782 44.9564922,51.8286366 45.0208955,51.6708709 L42,44 L44.3044776,44 L46.0597015,49.2252589 L47.7313433,44 L50,44 L47.0507463,51.8736778 C46.9286341,52.2220989 46.7726659,52.5577354 46.5850746,52.8757822 C46.4451202,53.127261 46.2634321,53.3531633 46.0477612,53.5438519 C45.8518956,53.7105971 45.6245172,53.8363567 45.3791045,53.9136761 C45.101884,53.9813813 44.8164597,54.009497 44.5313433,53.9971848 Z" id="Shape" fill="#2BAF4A"></path>
                <path d="M50,44.0873361 L51.881137,44.0873361 L51.881137,45.4634683 C52.0577499,45.048884 52.3269303,44.6833302 52.6666667,44.3966991 C53.0452199,44.093385 53.5239748,43.9554903 54,44.0126623 L54,46.0395236 L53.9069767,46.0395236 C53.3510471,46.0107032 52.8096067,46.2280221 52.4186047,46.6369143 C52.0223535,47.1529267 51.8303009,47.8047567 51.881137,48.4610895 L51.881137,51 L50,51 L50,44.0873361 Z" id="Shape" fill="#2BAF4A"></path>
                <path d="M59.1901449,52 C58.6392479,51.9960319 58.0926656,51.8983673 57.5719555,51.7108583 C57.0008822,51.5032361 56.4689265,51.1933883 56,50.7952428 L56.9015627,49.3495342 C57.2572641,49.6287346 57.6456821,49.8595009 58.0574123,50.0362458 C58.425896,50.1860432 58.8177463,50.263645 59.2132619,50.2651497 C59.4467907,50.2849729 59.6805851,50.2303533 59.8836547,50.1085313 C60.0202015,50.0153846 60.1027115,49.856961 60.1032661,49.6868662 C60.1031369,49.5723598 60.0570298,49.4631372 59.9761226,49.385677 C59.8770743,49.2850627 59.7589721,49.2070996 59.6293678,49.1567731 L59.1439109,48.9760595 L58.5544276,48.7953459 C58.3001407,48.7110129 58.0342953,48.6146324 57.7800084,48.5062042 C57.5203416,48.4026744 57.2783674,48.2562283 57.0633816,48.0724917 C56.8476859,47.8965542 56.6703814,47.6747861 56.5432493,47.4219228 C56.3962353,47.1243825 56.3246182,46.7926159 56.3351964,46.4581171 C56.3318981,46.0959747 56.4069624,45.7377156 56.5548078,45.4099783 C56.6902781,45.1115177 56.8876758,44.8481574 57.1327326,44.6389337 C57.3882203,44.4200383 57.6828871,44.2562329 57.9996198,44.1570309 C58.3441261,44.0475812 58.7028885,43.9947415 59.0630014,44.0004124 C59.5496094,44.0057586 60.0327103,44.0869751 60.496255,44.2413639 C60.969391,44.3939203 61.4204455,44.6127786 61.8370405,44.8919327 L61.0279458,46.4099268 C60.6831859,46.2000606 60.3192219,46.0265216 59.9414471,45.8918812 C59.6467331,45.7689709 59.3339661,45.6996957 59.0167675,45.6870725 C58.8130462,45.6738675 58.6105941,45.7287323 58.4388427,45.8436909 C58.3115477,45.9259697 58.2365016,46.0732101 58.2423482,46.2292132 C58.2395778,46.3408957 58.2865145,46.4476363 58.3694917,46.5183549 C58.4677334,46.6085021 58.5764666,46.6854073 58.6931296,46.7472588 C58.8493954,46.8290375 59.011742,46.8975297 59.1785864,46.9520675 L59.7565112,47.1568762 C60.0233841,47.247465 60.2857092,47.3520098 60.5424889,47.4701131 C60.7977635,47.5830081 61.0385039,47.7287076 61.2591157,47.9038256 C61.4748217,48.0782448 61.655485,48.295208 61.7908065,48.5423469 C61.9365102,48.8230484 62.0082946,49.1389628 61.9988594,49.4579624 C62.0103314,49.8441638 61.9351314,50.2278227 61.779248,50.5783865 C61.6493717,50.8872543 61.4416737,51.153699 61.1782062,51.3494311 C60.9101504,51.563456 60.6035582,51.7191416 60.2766435,51.8072389 C59.924999,51.924526 59.5592153,51.9894215 59.1901449,52 Z" id="Shape" fill="#2BAF4A"></path>
            </g>
        </g>
    </g>
</svg>