<?xml version="1.0" encoding="UTF-8"?>
<svg width="66px" height="67px" viewBox="0 0 66 67" version="1.1" xmlns="http://www.w3.org/2000/svg" xmlns:xlink="http://www.w3.org/1999/xlink">
    <!-- Generator: Sketch 49 (51002) - http://www.bohemiancoding.com/sketch -->
    <title>Asset 7</title>
    <desc>Created with Sketch.</desc>
    <defs>
        <linearGradient x1="0.244754233%" y1="49.8218965%" x2="100.49576%" y2="49.8218965%" id="linearGradient-1">
            <stop stop-color="#06A54C" offset="0%"></stop>
            <stop stop-color="#06A54C" offset="100%"></stop>
        </linearGradient>
    </defs>
    <g id="Page-1" stroke="none" stroke-width="1" fill="none" fill-rule="evenodd">
        <g id="Self-Employed" transform="translate(-318.000000, -656.000000)" fill-rule="nonzero">
            <g id="Asset-7" transform="translate(318.000000, 656.000000)">
                <path d="M46,52.62 C46.1,52.47 46.2,52.29 46.33,52.1 L49.2,47.35 C49.28,47.21 49.38,47.07 49.47,46.92 L49.47,16.08 C49.4721637,15.616377 49.3803138,15.1571275 49.2,14.73 C49.0183022,14.2994756 48.7493064,13.9113044 48.41,13.59 L35.28,1 C34.9657144,0.678551559 34.5876007,0.426475764 34.17,0.26 C33.7576985,0.0896163068 33.3161182,0.0013002628 32.87,0 L7.69,0 C3.44293027,-6.40864515e-16 5.20116035e-16,3.44293027 0,7.69 L0,54.47 C5.20116035e-16,58.7170697 3.44293027,62.16 7.69,62.16 L41.78,62.16 C46.0247857,62.1544909 49.4644909,58.7147857 49.47,54.47 L49.47,45.47 C48.2966667,47.05 47.09,48.6 45.85,50.12 L45.85,54.42" id="Shape" fill="#FFFFFF"></path>
                <path d="M45.83,54.44 C45.8302423,56.6590521 44.0488098,58.4672061 41.83,58.5 L7.69,58.5 C5.44772392,58.5 3.63,56.6822761 3.63,54.44 L3.63,7.66 C3.62999672,6.58413836 4.05806436,5.55248664 4.81975088,4.7926762 C5.58143741,4.03286575 6.61414164,3.60734355 7.69,3.61 L31.69,3.61 L31.69,9.49 C31.6873456,11.5285947 32.4953141,13.4846028 33.9358813,14.9270457 C35.3764485,16.3694886 37.3314036,17.1800017 39.37,17.18 L45.8,17.18 L45.8,52.87 C45.8572788,52.791256 45.9074747,52.7075961 45.95,52.62 C46.05,52.47 46.15,52.29 46.28,52.1 L49.15,47.35 C49.23,47.21 49.33,47.07 49.42,46.92 L49.42,16.08 C49.4221637,15.616377 49.3303138,15.1571275 49.15,14.73 C48.9683022,14.2994756 48.6993064,13.9113044 48.36,13.59 L35.28,1 C34.9657144,0.678551559 34.5876007,0.426475764 34.17,0.26 C33.7576985,0.0896163068 33.3161182,0.0013002628 32.87,0 L7.69,0 C3.44293027,-6.40864515e-16 5.20116035e-16,3.44293027 0,7.69 L0,54.47 C5.20116035e-16,58.7170697 3.44293027,62.16 7.69,62.16 L41.78,62.16 C46.0247857,62.1544909 49.4644909,58.7147857 49.47,54.47 L49.47,45.47 C48.2966667,47.05 47.09,48.6 45.85,50.12 L45.85,54.42 L45.83,54.44 Z" id="Shape" fill="#4F4E50"></path>
                <path d="M12.75,11.91 C11.1539591,12.3683455 10.0403675,13.8099405 10,15.47 C9.94170669,16.9275593 10.7663438,18.2769654 12.09,18.89 C12.9277189,19.3097791 13.7891778,19.6804068 14.67,20 C15.0051147,20.1348989 15.3211319,20.3130788 15.61,20.53 C15.9960875,20.8010388 16.2018057,21.2624654 16.1453545,21.7308017 C16.0889032,22.1991379 15.7794334,22.5984659 15.34,22.77 C14.8260564,22.9878102 14.2649119,23.0704327 13.71,23.01 C12.838553,22.9267635 11.9887494,22.6897665 11.2,22.31 C10.74,22.07 10.6,22.14 10.45,22.64 C10.3,23.14 10.21,23.51 10.1,23.95 C9.99,24.39 10.01,24.68 10.58,24.95 C11.2945379,25.266789 12.0532999,25.4724979 12.83,25.56 C13.44,25.64 13.45,25.66 13.48,26.3 C13.48,26.59 13.48,26.87 13.48,27.16 C13.4613505,27.3125649 13.5125013,27.465404 13.6192262,27.5760098 C13.7259511,27.6866156 13.8768665,27.7431906 14.03,27.73 C14.45,27.73 14.87,27.73 15.29,27.73 C15.4381749,27.7406751 15.583192,27.6835508 15.6842791,27.5746877 C15.7853662,27.4658247 15.8316068,27.3169793 15.81,27.17 C15.81,26.78 15.81,26.39 15.81,26.01 C15.7843159,25.8452914 15.82604,25.6771789 15.9257582,25.5435942 C16.0254764,25.4100094 16.1747867,25.3222077 16.34,25.3 C17.2047866,25.0600198 17.9714079,24.5524395 18.53,23.85 C19.2529476,22.9054243 19.5180033,21.688097 19.2532188,20.5284567 C18.9884342,19.3688164 18.2212811,18.3871768 17.16,17.85 C16.44,17.47 15.68,17.18 14.92,16.85 C14.4862247,16.6842897 14.0760595,16.4623971 13.7,16.19 C13.3607496,15.9694295 13.1766741,15.5749561 13.2255567,15.1732688 C13.2744392,14.7715815 13.5477506,14.4327689 13.93,14.3 C14.1665263,14.1962442 14.4217236,14.1418021 14.68,14.14 C15.6418438,14.0628007 16.6071467,14.2386237 17.48,14.65 C17.93,14.86 18.08,14.79 18.21,14.33 C18.34,13.87 18.49,13.33 18.62,12.85 C18.6734827,12.7150875 18.6669553,12.563779 18.6020526,12.4339737 C18.5371499,12.3041683 18.4200197,12.2081613 18.28,12.17 C17.7150782,11.924751 17.1197442,11.7565776 16.51,11.67 C15.71,11.56 15.71,11.55 15.69,10.75 C15.69,9.61 15.69,9.61 14.54,9.62 C14.3734771,9.61021066 14.2065229,9.61021066 14.04,9.62 C13.51,9.62 13.41,9.74 13.41,10.27 C13.41,10.51 13.41,10.74 13.41,10.99 C13.41,11.69 13.41,11.68 12.72,11.94 L12.75,11.91 Z" id="Shape" fill="url(#linearGradient-1)"></path>
                <path d="M41.8,33.33 C41.8000602,32.3326007 40.9973391,31.5209604 40,31.51 L9.48,31.51 C8.47484176,31.51 7.66,32.3248418 7.66,33.33 C7.66,34.3351582 8.47484176,35.15 9.48,35.15 L40,35.15 C40.9973391,35.1390396 41.8000602,34.3273993 41.8,33.33 Z" id="Shape" fill="#4F4E50"></path>
                <path d="M41.8,40.5 C41.8000602,39.5026007 40.9973391,38.6909604 40,38.68 L9.48,38.68 C8.79940393,38.6294466 8.1477245,38.9639042 7.79198782,39.5463285 C7.43625114,40.1287528 7.43625114,40.8612472 7.79198782,41.4436715 C8.1477245,42.0260958 8.79940393,42.3605534 9.48,42.31 L40,42.31 C40.9957279,42.3044987 41.8000152,41.4957431 41.8,40.5 Z" id="Shape" fill="#4F4E50"></path>
                <path d="M41.8,47.83 C41.805562,46.8287067 41.0012485,46.0109879 40,46 L9.48,46 C8.47484176,46 7.66,46.8148418 7.66,47.82 C7.66,48.8251582 8.47484176,49.64 9.48,49.64 L40,49.64 C40.9973391,49.6290396 41.8000602,48.8173993 41.8,47.82 L41.8,47.83 Z" id="Shape" fill="#4F4E50"></path>
                <path d="M40.15,24.27 L23.15,24.27 C22.1448418,24.27 21.33,25.0848418 21.33,26.09 C21.33,27.0951582 22.1448418,27.91 23.15,27.91 L40.15,27.91 C41.1551582,27.91 41.97,27.0951582 41.97,26.09 C41.97,25.0848418 41.1551582,24.27 40.15,24.27 Z" id="Shape" fill="#4F4E50"></path>
                <path d="M58.67,39.09 C58.7200494,37.1370708 58.1911874,35.2129871 57.15,33.56 C56.4321311,32.5716974 55.5159396,31.7440598 54.46,31.13 C48.26,27.68 42.6,34.02 43.46,38.67 C43.46,38.83 43.46,38.99 43.46,39.15 C42.82,39.44 42.34,40.15 42.46,41.67 C42.58,43.19 43.46,44.04 44.31,44.24 C45.58,47.34 48.09,49.89 51.06,49.89 C54.03,49.89 56.53,47.35 57.8,44.26 C58.74,44.11 59.63,43.38 59.8,41.67 C59.97,39.96 59.36,39.35 58.67,39.09 Z" id="Shape" stroke="#FFFFFF" stroke-width="4" fill="#FFFFFF"></path>
                <path d="M58,50.13 L57.1,49.91 L54,49.91 L51.22,52.55 L48.22,49.91 L45.32,49.91 L44.46,50.13 C40.9346882,51.003499 38.4591338,54.1680828 38.46,57.8 L38.46,62.57 C38.4546244,63.0154535 38.6285188,63.444374 38.9425833,63.760319 C39.2566477,64.0762641 39.6845223,64.2527161 40.13,64.25 L62.26,64.25 C62.7135404,64.2580267 63.1516864,64.0855202 63.4780151,63.7704442 C63.8043438,63.4553682 63.9921129,63.0235428 64,62.57 L64,57.8 C63.9936979,54.1705565 61.5211851,51.009861 58,50.13 Z" id="Shape" stroke="#FFFFFF" stroke-width="4" fill="#FFFFFF"></path>
                <path d="M59.54,64.34 L59.54,63.2 L43.16,63.2 L43.16,64.34 C43.16,64.6768937 43.4331063,64.95 43.77,64.95 L58.93,64.95 C59.2668937,64.95 59.54,64.6768937 59.54,64.34 Z" id="Shape" stroke="#FFFFFF" stroke-width="4" fill="#FFFFFF"></path>
                <path d="M60.08,54.29 C60.0881499,54.1221549 60.0278198,53.9581906 59.9128257,53.8356559 C59.7978316,53.7131212 59.6380241,53.6425126 59.47,53.64 L43.13,53.64 C42.9591703,53.6394251 42.7959273,53.7105098 42.6799773,53.8359639 C42.5640273,53.9614179 42.5059965,54.1297442 42.52,54.3 L43.16,63.2 L59.54,63.2 L60.08,54.29 Z" id="Shape" stroke="#FFFFFF" stroke-width="4" fill="#FFFFFF"></path>
                <path d="M52.46,61.72 C52.2199851,61.9011475 51.9377768,62.0181607 51.64,62.06 L51.64,62.47 C51.64,62.652254 51.492254,62.8 51.31,62.8 C51.127746,62.8 50.98,62.652254 50.98,62.47 L50.98,62.08 C50.6460069,62.0471191 50.3276091,61.9225287 50.06,61.72 C49.9361261,61.617904 49.8191999,61.5076593 49.71,61.39 C49.51,61.15 49.8,60.91 50.1,60.79 L50.26,60.72 C50.4242711,60.730936 50.5714762,60.8252983 50.65,60.97 C50.6776658,61.0114449 50.7113716,61.0485212 50.75,61.08 C50.9012807,61.1796474 51.0788594,61.2318764 51.26,61.23 C51.4380916,61.232359 51.6126165,61.1800015 51.76,61.08 C51.8770906,60.997141 51.9476636,60.8634238 51.95,60.72 C51.9504675,60.5864344 51.8825503,60.4619196 51.77,60.39 C51.5984093,60.2824808 51.4022201,60.2205263 51.2,60.21 C50.8354631,60.1742604 50.4886229,60.0355244 50.2,59.81 C49.9129952,59.5940121 49.7399969,59.2590579 49.73,58.9 C49.7816347,58.2193844 50.3198103,57.6769712 51,57.62 L51,57.22 C51,57.037746 51.147746,56.89 51.33,56.89 C51.512254,56.89 51.66,57.037746 51.66,57.22 L51.66,57.65 C52.0271973,57.7432931 52.3688737,57.9175481 52.66,58.16 C52.9,58.37 52.66,58.6 52.35,58.77 L52.15,58.9 C52.0094889,58.8882884 51.8848535,58.8051981 51.82,58.68 C51.6760249,58.5395135 51.481061,58.4636942 51.28,58.47 C51.0181664,58.4467705 50.786353,58.6384623 50.76,58.9 C50.7638942,59.0115389 50.8193005,59.114964 50.91,59.18 C51.0349175,59.2736607 51.1842419,59.3292233 51.34,59.34 C51.7411994,59.368928 52.127605,59.50348 52.46,59.73 C52.7937468,59.9540209 52.9957291,60.3280621 53,60.73 C52.9875389,61.127059 52.7870866,61.4945549 52.46,61.72 Z" id="Shape" stroke="#FFFFFF" stroke-width="4" fill="#FFFFFF"></path>
                <path d="M58.67,39.09 C58.7200494,37.1370708 58.1911874,35.2129871 57.15,33.56 C56.4321311,32.5716974 55.5159396,31.7440598 54.46,31.13 C48.26,27.68 42.6,34.02 43.46,38.67 C43.46,38.83 43.46,38.99 43.46,39.15 C42.82,39.44 42.34,40.15 42.46,41.67 C42.58,43.19 43.46,44.04 44.31,44.24 C45.58,47.34 48.09,49.89 51.06,49.89 C54.03,49.89 56.53,47.35 57.8,44.26 C58.74,44.11 59.63,43.38 59.8,41.67 C59.97,39.96 59.36,39.35 58.67,39.09 Z M51.06,48.45 C47.98,48.45 45.44,44.69 44.95,41.13 C45.3372492,38.8575942 46.3799649,36.7478328 47.95,35.06 C49.51,36.76 52.38,38.71 57.21,38.54 C57.21,38.97 57.21,39.44 57.21,39.95 C57.25,43.8 54.49,48.45 51.06,48.45 Z" id="Shape" fill="#434343"></path>
                <path d="M58,50.13 L57.1,49.91 L54,49.91 L51.22,52.55 L48.22,49.91 L45.32,49.91 L44.46,50.13 C40.9346882,51.003499 38.4591338,54.1680828 38.46,57.8 L38.46,62.57 C38.4546244,63.0154535 38.6285188,63.444374 38.9425833,63.760319 C39.2566477,64.0762641 39.6845223,64.2527161 40.13,64.25 L62.26,64.25 C62.7135404,64.2580267 63.1516864,64.0855202 63.4780151,63.7704442 C63.8043438,63.4553682 63.9921129,63.0235428 64,62.57 L64,57.8 C63.9936979,54.1705565 61.5211851,51.009861 58,50.13 Z" id="Shape" fill="#434343"></path>
                <path d="M59.54,64.34 L59.54,63.2 L43.16,63.2 L43.16,64.34 C43.16,64.6768937 43.4331063,64.95 43.77,64.95 L58.93,64.95 C59.2668937,64.95 59.54,64.6768937 59.54,64.34 Z" id="Shape" fill="#2BAF4A"></path>
                <path d="M60.08,54.29 C60.0881499,54.1221549 60.0278198,53.9581906 59.9128257,53.8356559 C59.7978316,53.7131212 59.6380241,53.6425126 59.47,53.64 L43.13,53.64 C42.9591703,53.6394251 42.7959273,53.7105098 42.6799773,53.8359639 C42.5640273,53.9614179 42.5059965,54.1297442 42.52,54.3 L43.16,63.2 L59.54,63.2 L60.08,54.29 Z" id="Shape" fill="#2BAF4A"></path>
                <path d="M52.46,61.72 C52.2199851,61.9011475 51.9377768,62.0181607 51.64,62.06 L51.64,62.47 C51.64,62.652254 51.492254,62.8 51.31,62.8 C51.127746,62.8 50.98,62.652254 50.98,62.47 L50.98,62.08 C50.6460069,62.0471191 50.3276091,61.9225287 50.06,61.72 C49.9361261,61.617904 49.8191999,61.5076593 49.71,61.39 C49.51,61.15 49.8,60.91 50.1,60.79 L50.26,60.72 C50.4242711,60.730936 50.5714762,60.8252983 50.65,60.97 C50.6776658,61.0114449 50.7113716,61.0485212 50.75,61.08 C50.9012807,61.1796474 51.0788594,61.2318764 51.26,61.23 C51.4380916,61.232359 51.6126165,61.1800015 51.76,61.08 C51.8770906,60.997141 51.9476636,60.8634238 51.95,60.72 C51.9504675,60.5864344 51.8825503,60.4619196 51.77,60.39 C51.5984093,60.2824808 51.4022201,60.2205263 51.2,60.21 C50.8354631,60.1742604 50.4886229,60.0355244 50.2,59.81 C49.9129952,59.5940121 49.7399969,59.2590579 49.73,58.9 C49.7816347,58.2193844 50.3198103,57.6769712 51,57.62 L51,57.22 C51,57.037746 51.147746,56.89 51.33,56.89 C51.512254,56.89 51.66,57.037746 51.66,57.22 L51.66,57.65 C52.0271973,57.7432931 52.3688737,57.9175481 52.66,58.16 C52.9,58.37 52.66,58.6 52.35,58.77 L52.15,58.9 C52.0094889,58.8882884 51.8848535,58.8051981 51.82,58.68 C51.6760249,58.5395135 51.481061,58.4636942 51.28,58.47 C51.0181664,58.4467705 50.786353,58.6384623 50.76,58.9 C50.7638942,59.0115389 50.8193005,59.114964 50.91,59.18 C51.0349175,59.2736607 51.1842419,59.3292233 51.34,59.34 C51.7411994,59.368928 52.127605,59.50348 52.46,59.73 C52.7937468,59.9540209 52.9957291,60.3280621 53,60.73 C52.9875389,61.127059 52.7870866,61.4945549 52.46,61.72 Z" id="Shape" fill="#FFFFFF"></path>
            </g>
        </g>
    </g>
</svg>