<?xml version="1.0" encoding="UTF-8"?>
<svg width="59px" height="62px" viewBox="0 0 59 62" version="1.1" xmlns="http://www.w3.org/2000/svg" xmlns:xlink="http://www.w3.org/1999/xlink">
    <!-- Generator: Sketch 49 (51002) - http://www.bohemiancoding.com/sketch -->
    <title>Asset 4</title>
    <desc>Created with Sketch.</desc>
    <defs>
        <linearGradient x1="12.8454368%" y1="78.0863698%" x2="82.0940528%" y2="26.9480449%" id="linearGradient-1">
            <stop stop-color="#06A54C" offset="0%"></stop>
            <stop stop-color="#06A54C" offset="100%"></stop>
        </linearGradient>
        <linearGradient x1="84847%" y1="19673%" x2="88657%" y2="19673%" id="linearGradient-2">
            <stop stop-color="#06A54C" offset="0%"></stop>
            <stop stop-color="#06A54C" offset="100%"></stop>
        </linearGradient>
    </defs>
    <g id="Page-1" stroke="none" stroke-width="1" fill="none" fill-rule="evenodd">
        <g id="Brighten-Home-Loan" transform="translate(-867.000000, -840.000000)">
            <g id="Asset-4" transform="translate(865.000000, 837.000000)">
                <rect id="Rectangle-path" x="0" y="0" width="63.02" height="69.26"></rect>
                <path d="M20.65,12.87 L20.65,25.63 C20.6580743,25.9905591 20.5204686,26.3391515 20.2682894,26.5969765 C20.0161102,26.8548015 19.6706495,27.0000904 19.31,27 L19.12,27 L14.42,22.3 C8.26842795,29.371883 7.54820809,39.6642105 12.6549222,47.5239076 C17.7616362,55.3836048 27.4587048,58.9074637 36.42,56.16 C38.3005296,55.5828624 40.2928624,56.6394704 40.87,58.52 C41.4471376,60.4005296 40.3905296,62.3928624 38.51,62.97 C26.4151389,66.6785004 13.3325008,61.856979 6.53691009,51.1865251 C-0.258680655,40.5160713 0.90464502,26.621858 9.38,17.23 L5.21,13.06 L5.21,12.87 C5.20731125,12.5164447 5.34657227,12.1765895 5.59658088,11.9265809 C5.84658949,11.6765723 6.18644466,11.5373112 6.54,11.54 L19.31,11.54 C20.0461738,11.5399795 20.6445062,12.1338467 20.65,12.87 Z" id="Shape" fill="url(#linearGradient-1)" fill-rule="nonzero"></path>
                <path d="M56.47,56 L43.72,56 C43.3637925,56.0026885 43.021394,55.8623738 42.7695101,55.6104899 C42.5176262,55.358606 42.3773115,55.0162075 42.38,54.66 L42.38,41.87 C42.3773115,41.5137925 42.5176262,41.171394 42.7695101,40.9195101 C43.021394,40.6676262 43.3637925,40.5273115 43.72,40.53 L43.89,40.53 L48.59,45.24 C54.7513795,38.1691546 55.4772374,27.8699519 50.368502,20.0048216 C45.2597666,12.1396912 35.5550755,8.615572 26.59,11.37 C24.7094704,11.9471376 22.7171376,10.8905296 22.14,9.01 C21.5628624,7.12947043 22.6194704,5.13713756 24.5,4.56 C36.5887396,0.858829642 49.6615872,5.67717822 56.4566521,16.3384811 C63.251717,26.999784 62.0994792,40.8846022 53.64,50.28 L57.8,54.44 L57.8,54.62 C57.808035,54.9797689 57.6720989,55.3278563 57.4223777,55.5869655 C57.1726565,55.8460747 56.8298205,55.9947585 56.47,56 Z" id="Shape" fill="url(#linearGradient-2)" fill-rule="nonzero"></path>
                <path d="M22.49,25.2 C23.0576142,24.6235264 23.8310072,24.2961833 24.64,24.29 C25.4526097,24.2830558 26.2354536,24.5954752 26.82,25.16 C28.0057307,26.3598072 28.0057307,28.2901928 26.82,29.49 C26.2490798,30.068902 25.4729982,30.3994553 24.66,30.41 C23.4199348,30.4232794 22.2944731,29.6867899 21.8101943,28.5451191 C21.3259155,27.4034483 21.5785913,26.0823746 22.45,25.2 L22.49,25.2 Z" id="Shape" fill="#575757" fill-rule="nonzero"></path>
                <path d="M40.62,43 C40.0493124,43.5779888 39.2722401,43.9053665 38.46,43.91 C36.7700087,43.9238071 35.3888071,42.5649913 35.375,40.875 C35.3611929,39.1850087 36.7200087,37.8038071 38.41,37.79 C39.6500652,37.7767206 40.7755269,38.5132101 41.2598057,39.6548809 C41.7440845,40.7965517 41.4914087,42.1176254 40.62,43 Z" id="Shape" fill="#575757" fill-rule="nonzero"></path>
                <path d="M40.41,25.07 C40.9870956,25.6426492 41.3116809,26.4220016 41.3116809,27.235 C41.3116809,28.0479984 40.9870956,28.8273508 40.41,29.4 L27,43.08 C26.2447361,43.9027161 25.1012414,44.2486215 24.0165981,43.9824745 C22.9319547,43.7163276 22.078454,42.8804046 21.7897965,41.8015338 C21.501139,40.722663 21.8231768,39.5722187 22.63,38.8 L36.08,25.12 C36.6473003,24.5386941 37.4224417,24.2067868 38.2346352,24.1974081 C39.0468286,24.1880294 39.8294277,24.501949 40.41,25.07 Z" id="Shape" fill="#575757" fill-rule="nonzero"></path>
            </g>
        </g>
    </g>
</svg>