<?xml version="1.0" encoding="UTF-8"?>
<svg width="59px" height="54px" viewBox="0 0 59 54" version="1.1" xmlns="http://www.w3.org/2000/svg" xmlns:xlink="http://www.w3.org/1999/xlink">
    <!-- Generator: Sketch 49 (51002) - http://www.bohemiancoding.com/sketch -->
    <title>Asset 8</title>
    <desc>Created with Sketch.</desc>
    <defs></defs>
    <g id="Page-1" stroke="none" stroke-width="1" fill="none" fill-rule="evenodd">
        <g id="Self-Employed" transform="translate(-922.000000, -659.000000)" fill-rule="nonzero">
            <g id="Asset-8" transform="translate(922.000000, 659.000000)">
                <path d="M56.33,48.63 L2.69,48.63 C1.2706607,48.7166595 0.163935963,49.8930176 0.163935963,51.315 C0.163935963,52.7369824 1.2706607,53.9133405 2.69,54 L56.33,54 C57.7493393,53.9133405 58.856064,52.7369824 58.856064,51.315 C58.856064,49.8930176 57.7493393,48.7166595 56.33,48.63 Z" id="Shape" fill="#434343"></path>
                <path d="M6.05,43.66 C4.56987687,43.66 3.37,44.8598769 3.37,46.34 C3.37,47.8201231 4.56987687,49.02 6.05,49.02 L53,49.02 C54.4801231,49.02 55.68,47.8201231 55.68,46.34 C55.68,44.8598769 54.4801231,43.66 53,43.66 L52.3,43.66 L52.3,19.52 L53,19.52 C53.4787359,19.52 53.9211061,19.2645975 54.1604741,18.85 C54.399842,18.4354026 54.399842,17.9245974 54.1604741,17.51 C53.9211061,17.0954025 53.4787359,16.84 53,16.84 L6.05,16.84 C5.30993846,16.84 4.71000006,17.4399385 4.71000006,18.18 C4.71000006,18.9200615 5.30993846,19.52 6.05,19.52 L6.72,19.52 L6.72,43.66 L6.05,43.66 Z M46.94,19.52 L46.94,43.66 L38.94,43.66 L38.94,19.52 L46.94,19.52 Z M33.53,19.52 L33.53,43.66 L25.53,43.66 L25.53,19.52 L33.53,19.52 Z M12.08,19.52 L20.08,19.52 L20.08,43.66 L12.08,43.66 L12.08,19.52 Z" id="Shape" fill="#434343"></path>
                <path d="M2.68,17.44 L56.34,17.44 C57.6493781,17.4324111 58.7630826,16.4831067 58.9779462,15.1914557 C59.1928097,13.8998047 58.4464072,12.6410752 57.21,12.21 L30.6,0.24 C29.9016,-0.080111113 29.0984,-0.080111113 28.4,0.24 L1.58,12.3 C0.428107832,12.822169 -0.204475971,14.0762388 0.0601909622,15.3129552 C0.324857895,16.5496716 1.41529013,17.4350026 2.68,17.44 Z" id="Shape" fill="#434343"></path>
                <path d="M32,13.16 C31.4896265,13.5356331 30.8961773,13.7826178 30.27,13.88 L30.27,14.75 C30.3175122,15.0320948 30.1935142,15.3155586 29.9541067,15.4721438 C29.7146991,15.6287289 29.4053009,15.6287289 29.1658933,15.4721438 C28.9264858,15.3155586 28.8024878,15.0320948 28.85,14.75 L28.85,13.92 C28.1487887,13.837506 27.4806527,13.575762 26.91,13.16 C26.6435384,12.9449524 26.3928916,12.7110154 26.16,12.46 C25.73,11.94 26.35,11.46 26.98,11.17 L27.34,11.02 C27.6832134,11.0455112 27.9891915,11.245719 28.15,11.55 C28.2136007,11.6387051 28.2912949,11.7163993 28.38,11.78 C28.6911433,12.0027157 29.067668,12.1153212 29.45,12.1 C29.8351484,12.1130555 30.2141316,12.0007642 30.53,11.78 C30.7742483,11.6037758 30.9192627,11.3211838 30.92,11.02 C30.9215245,10.7421702 30.7822626,10.4824657 30.55,10.33 C30.1781263,10.0997072 29.7561982,9.96249482 29.32,9.93 C28.5303336,9.86714539 27.7761731,9.57521232 27.15,9.09 C26.5374683,8.63479598 26.1686247,7.92292788 26.15,7.16 C26.2695464,5.73461047 27.3787952,4.59187494 28.8,4.43 L28.8,3.58 C28.7524878,3.29790519 28.8764858,3.01444136 29.1158933,2.85785624 C29.3553009,2.70127111 29.6646991,2.70127111 29.9041067,2.85785624 C30.1435142,3.01444136 30.2675122,3.29790519 30.22,3.58 L30.22,4.5 C30.9992845,4.70295369 31.7257425,5.07129861 32.35,5.58 C32.86,6.04 32.27,6.52 31.69,6.89 L31.27,7.16 C30.9684612,7.13586903 30.6986253,6.96347384 30.55,6.7 C30.248273,6.39086962 29.8318728,6.22068865 29.4,6.23 C29.1313369,6.20513324 28.8640255,6.28988599 28.6587711,6.4650113 C28.4535167,6.64013661 28.3277385,6.89077224 28.31,7.16 C28.308319,7.3937 28.4201719,7.61367752 28.61,7.75 C28.8810733,7.9500002 29.2038497,8.0680045 29.54,8.09 C30.3918516,8.15576148 31.2119903,8.44177626 31.92,8.92 C32.6150745,9.3872077 33.0401219,10.1627328 33.06,11 C33.0711032,11.8477873 32.6773847,12.6500817 32,13.16 Z" id="Shape" fill="#FFFFFF"></path>
            </g>
        </g>
    </g>
</svg>