<?xml version="1.0" encoding="UTF-8"?>
<svg width="49px" height="65px" viewBox="0 0 49 65" version="1.1" xmlns="http://www.w3.org/2000/svg" xmlns:xlink="http://www.w3.org/1999/xlink">
    <!-- Generator: Sketch 49 (51002) - http://www.bohemiancoding.com/sketch -->
    <title>Asset 2</title>
    <desc>Created with Sketch.</desc>
    <defs></defs>
    <g id="Page-1" stroke="none" stroke-width="1" fill="none" fill-rule="evenodd">
        <g id="Brighten-Home-Loan" transform="translate(-876.000000, -616.000000)" fill-rule="nonzero">
            <g id="Asset-2" transform="translate(876.000000, 616.000000)">
                <path d="M38.75,17.72 C38.56,12.65 37.46,9.31 35.81,7.02 C34.3983728,5.13955589 32.6359234,3.55029516 30.62,2.34 C20.51,-3.83 15,4.05 14.4,5 C13.47,5.33 7.69,7.87 9.4,16.88 C9.4,17.17 9.4,17.48 9.4,17.79 C8.17,18.36 7.25,19.68 7.49,22.67 C7.75,25.83 9.34,27.26 11.07,27.67 C13.52,33.67 18.37,38.61 24.12,38.61 C29.87,38.61 34.69,33.69 37.12,27.71 C38.94,27.42 40.67,26.02 40.94,22.71 C41.21,19.4 40.09,18.23 38.75,17.72 Z" id="Shape" fill="#434343"></path>
                <path d="M36.94,38.12 L35.25,37.7 L24.07,63.13 L12.89,37.7 L11.27,38.12 C4.63754936,39.7786251 -0.0112759816,45.7433114 -9.81772172e-16,52.58 L-9.81772172e-16,61.58 C-0.00800624706,62.4206177 0.32032999,63.2295612 0.911939579,63.8268051 C1.50354917,64.4240491 2.30934415,64.7600381 3.15,64.76 L45,64.76 C46.7757107,64.7713388 48.2317893,63.3553357 48.27,61.58 L48.27,52.58 C48.256477,45.7320093 43.5859502,39.7712133 36.94,38.12 Z" id="Shape" fill="#434343"></path>
                <path d="M24.18,58.48 L27.92,49 L26.18,47.26 C26.7002346,47.1908434 27.1678809,46.9073801 27.4698592,46.4781531 C27.7718374,46.0489262 27.8806553,45.5130127 27.77,45 L27,41.76 C26.7937643,40.9091474 26.0354587,40.3074483 25.16,40.3 L23.12,40.3 C22.2445413,40.3074483 21.4862357,40.9091474 21.28,41.76 L20.51,44.94 C20.3866585,45.4626314 20.4902304,46.0130501 20.7950965,46.4551059 C21.0999626,46.8971617 21.5776503,47.1895695 22.11,47.26 L20.37,49 L24.18,58.48 Z" id="Shape" fill="#2BAF4A"></path>
            </g>
        </g>
    </g>
</svg>