<?xml version="1.0" encoding="UTF-8"?>
<svg width="50px" height="63px" viewBox="0 0 50 63" version="1.1" xmlns="http://www.w3.org/2000/svg" xmlns:xlink="http://www.w3.org/1999/xlink">
    <!-- Generator: Sketch 49 (51002) - http://www.bohemiancoding.com/sketch -->
    <title>Asset 7</title>
    <desc>Created with Sketch.</desc>
    <defs></defs>
    <g id="Page-1" stroke="none" stroke-width="1" fill="none" fill-rule="evenodd">
        <g id="Brighten-home-Copy-11" transform="translate(-395.000000, -2443.000000)" fill-rule="nonzero">
            <g id="Asset-7" transform="translate(395.000000, 2443.000000)">
                <path d="M41.8,50.65 C41.8000602,49.6526007 40.9973391,48.8409604 40,48.83 L9.48,48.83 C8.79940393,48.7794466 8.1477245,49.1139042 7.79198782,49.6963285 C7.43625114,50.2787528 7.43625114,51.0112472 7.79198782,51.5936715 C8.1477245,52.1760958 8.79940393,52.5105534 9.48,52.46 L40,52.46 C40.9957279,52.4544987 41.8000152,51.6457431 41.8,50.65 Z" id="Shape" fill="#2BAF4A"></path>
                <path d="M41.8,44 C41.8053336,43.5172974 41.6186807,43.0522493 41.281109,42.707176 C40.9435373,42.3621026 40.4827033,42.1652753 40,42.16 L9.48,42.16 C8.47484176,42.16 7.66,42.9748418 7.66,43.98 C7.66,44.9851582 8.47484176,45.8 9.48,45.8 L40,45.8 C40.9895977,45.7891838 41.7891838,44.9895977 41.8,44 Z" id="Shape" fill="#2BAF4A"></path>
                <path d="M45.83,54.44 C45.8302423,56.6590521 44.0488098,58.4672061 41.83,58.5 L7.69,58.5 C5.44772392,58.5 3.63,56.6822761 3.63,54.44 L3.63,7.66 C3.62999672,6.58413836 4.05806436,5.55248664 4.81975088,4.7926762 C5.58143741,4.03286575 6.61414164,3.60734355 7.69,3.61 L31.69,3.61 L31.69,9.49 C31.6873456,11.5285947 32.4953141,13.4846028 33.9358813,14.9270457 C35.3764485,16.3694886 37.3314036,17.1800017 39.37,17.18 L45.8,17.18 L45.8,52.87 C45.8572788,52.791256 45.9074747,52.7075961 45.95,52.62 C46.05,52.47 46.15,52.29 46.28,52.1 L49.15,47.35 C49.23,47.21 49.33,47.07 49.42,46.92 L49.42,16.08 C49.4221637,15.616377 49.3303138,15.1571275 49.15,14.73 C48.9683022,14.2994756 48.6993064,13.9113044 48.36,13.59 L35.28,1 C34.9657144,0.678551559 34.5876007,0.426475764 34.17,0.26 C33.7576985,0.0896163068 33.3161182,0.0013002628 32.87,0 L7.69,0 C3.44293027,-6.40864515e-16 5.20116035e-16,3.44293027 0,7.69 L0,54.47 C5.20116035e-16,58.7170697 3.44293027,62.16 7.69,62.16 L41.78,62.16 C46.0247857,62.1544909 49.4644909,58.7147857 49.47,54.47 L49.47,45.47 C48.2966667,47.05 47.09,48.6 45.85,50.12 L45.85,54.42 L45.83,54.44 Z" id="Shape" fill="#4F4E50"></path>
                <path d="M15,21.69 C13.2346629,22.2263815 12.0206319,23.8450895 12,25.69 C11.9359269,27.3062036 12.8515172,28.8019308 14.32,29.48 C15.2418476,29.9450808 16.1901372,30.3557837 17.16,30.71 C17.5180923,30.861312 17.8543932,31.0597295 18.16,31.3 C18.5920469,31.597403 18.823303,32.1100475 18.7603131,32.6307637 C18.6973232,33.1514799 18.3504994,33.5941953 17.86,33.78 C17.2932807,34.0235696 16.6732411,34.1165756 16.06,34.05 C15.095852,33.9492889 14.1558154,33.6855376 13.28,33.27 C12.77,33.01 12.62,33.08 12.45,33.64 C12.28,34.2 12.18,34.64 12.06,35.08 C11.9,35.73 11.96,35.9 12.59,36.18 C13.3799011,36.5339006 14.2198628,36.7632877 15.08,36.86 C15.76,36.95 15.77,36.98 15.8,37.68 C15.8,38 15.8,38.32 15.8,38.68 C15.8,39.04 16.01,39.31 16.42,39.31 C16.83,39.31 17.35,39.31 17.82,39.31 C17.981351,39.3203908 18.1388683,39.257935 18.2492581,39.1397985 C18.3596478,39.0216621 18.4112934,38.860277 18.39,38.7 C18.39,38.26 18.39,37.83 18.39,37.4 C18.3248871,37.1978911 18.3564564,36.9770583 18.4755894,36.8012883 C18.5947223,36.6255184 18.7881494,36.5143892 19,36.5 C19.9591738,36.2383315 20.8080504,35.673583 21.42,34.89 C22.2449801,33.8439757 22.5528923,32.4810794 22.2577324,31.1819876 C21.9625725,29.8828957 21.0959776,28.7868531 19.9,28.2 C19.11,27.78 18.26,27.47 17.42,27.12 C16.9390467,26.938862 16.4849021,26.6932875 16.07,26.39 C15.6930811,26.1477914 15.4875769,25.7116061 15.5407899,25.2667452 C15.5940029,24.8218843 15.8965878,24.4464753 16.32,24.3 C16.58211,24.1859163 16.864178,24.124745 17.15,24.12 C18.2187938,24.0324077 19.2917415,24.2290573 20.26,24.69 C20.76,24.91 20.93,24.84 21.08,24.33 C21.23,23.82 21.38,23.23 21.53,22.69 C21.586386,22.5403906 21.5773457,22.3739779 21.5050845,22.2313572 C21.4328234,22.0887365 21.3039854,21.9830212 21.15,21.94 C20.5141425,21.656986 19.8403692,21.4683295 19.15,21.38 C18.26,21.26 18.26,21.24 18.25,20.38 C18.25,19.11 18.25,19.11 16.97,19.13 L16.42,19.13 C15.83,19.13 15.72,19.27 15.72,19.86 C15.72,20.13 15.72,20.38 15.72,20.65 C15.72,21.43 15.72,21.42 14.95,21.7 L15,21.69 Z" id="Shape" fill="#2BAF4A"></path>
                <path d="M37.51,29.59 C37.51,32.99 37.02,35.4966667 36.04,37.11 C35.0089671,38.7498697 33.1505155,39.6790955 31.22,39.52 C28.9133333,39.52 27.29,38.6866667 26.35,37.02 C25.2913435,34.8446262 24.8027259,32.4359483 24.93,30.02 C24.93,26.6 25.42,24.09 26.4,22.49 C27.4326099,20.8518704 29.2899303,19.9232102 31.22,20.08 C33.1924397,19.9036877 35.0907432,20.8761792 36.1,22.58 C37.1556244,24.7597024 37.6407695,27.1716649 37.51,29.59 Z M33.15,29.82 C33.2382988,27.9810079 33.1073778,26.1380424 32.76,24.33 C32.6096666,23.6111628 31.9639537,23.1047213 31.23,23.13 C30.570371,23.1096423 29.9710945,23.5118413 29.74,24.13 C29.44,24.7966667 29.29,26.6866667 29.29,29.8 C29.29,32.9133333 29.4366667,34.7966667 29.73,35.45 C29.9407883,36.0914309 30.5336913,36.5297886 31.2087342,36.5432895 C31.8837771,36.5567904 32.4937333,36.1424898 32.73,35.51 C33.01,34.8633333 33.15,32.9666667 33.15,29.82 Z" id="Shape" fill="#2BAF4A"></path>
            </g>
        </g>
    </g>
</svg>