<?xml version="1.0" encoding="UTF-8"?>
<svg width="83px" height="91px" viewBox="0 0 83 91" version="1.1" xmlns="http://www.w3.org/2000/svg" xmlns:xlink="http://www.w3.org/1999/xlink">
    <!-- Generator: Sketch 49 (51002) - http://www.bohemiancoding.com/sketch -->
    <title>Page 1</title>
    <desc>Created with Sketch.</desc>
    <defs>
        <polygon id="path-1" points="0.766048658 0.321882353 10.8014919 0.321882353 10.8014919 18.5584176 0.766048658 18.5584176"></polygon>
        <polygon id="path-3" points="0.730581818 0.820472727 23.9102182 0.820472727 23.9102182 24 0.730581818 24"></polygon>
    </defs>
    <g id="Page-1" stroke="none" stroke-width="1" fill="none" fill-rule="evenodd">
        <g id="Brighten-home-Copy-11" transform="translate(-713.000000, -977.000000)">
            <g id="Page-1" transform="translate(713.000000, 977.000000)">
                <path d="M39,36.8433481 L37.5836049,38 C37.5751803,37.9894562 37.5688618,37.9799668 37.5614902,37.9694231 C37.5393755,37.9409549 37.5183138,37.9124867 37.4972522,37.8819097 C37.4646067,37.8344628 37.430908,37.7870158 37.3982625,37.7385144 C37.3540331,37.6720887 37.3098036,37.6056629 37.2666273,37.5392371 C37.2139732,37.454887 37.1613191,37.3705368 37.1107712,37.2851322 C37.0496924,37.183912 36.9907198,37.0816374 36.9328003,36.9783084 C36.8664562,36.8602182 36.8022182,36.7410735 36.7390333,36.6208745 C36.6684768,36.4859142 36.6010795,36.3498996 36.5347354,36.2128305 C36.4620727,36.0620546 36.3915162,35.9102243 36.324119,35.7562852 C36.2504033,35.590748 36.1798468,35.4220476 36.1124496,35.2533472 C36.0397869,35.07094 35.9713366,34.8885327 35.9060455,34.7029623 C35.8365421,34.5068481 35.770198,34.3086252 35.7091192,34.1093479 C35.642775,33.8974181 35.5816963,33.6844339 35.525883,33.4714497 C35.4658573,33.2458129 35.411097,33.0191218 35.3616022,32.7913763 C35.3100012,32.5520327 35.2636656,32.312689 35.2225954,32.0712366 C35.179419,31.8181861 35.1425612,31.5651356 35.1130749,31.3110306 C35.0804293,31.0463819 35.0562085,30.7806789 35.037253,30.5139214 C35.0182975,30.2355658 35.0067136,29.9572102 35.0025013,29.679909 C34.9972359,29.3899553 35.0003951,29.1000015 35.0109259,28.8100478 C35.0225098,28.5084959 35.0425184,28.206944 35.0709516,27.9064465 C35.0993848,27.5932964 35.1383488,27.2812007 35.1846844,26.9701594 C35.2331262,26.6464656 35.2910457,26.3227718 35.3584429,26.0022411 C35.4279463,25.6680035 35.5079806,25.3348203 35.5974925,25.0048002 C35.6901637,24.6600189 35.7933658,24.3184006 35.9060455,23.9799455 C36.0229376,23.6246204 36.1514136,23.2735128 36.2893673,22.9266226 C36.4336395,22.5628625 36.5884426,22.2022655 36.7537764,21.8469403 C36.9254287,21.4747451 37.1097181,21.1067675 37.302432,20.7430073 C37.4582882,20.4509448 37.6141443,20.1588823 37.7826374,19.8731461 C37.867937,19.7297508 37.9553428,19.5863555 38.048014,19.4471777 C38.1291013,19.3248699 38.2144009,19.1540608 38.3323461,19.0654931 C38.3923718,19.0201549 38.459769,18.9864148 38.5376971,19.0053936 C38.6872347,19.0422968 38.6956593,19.2131059 38.677757,19.3396312 C38.6282621,19.6981195 38.459769,20.0165414 38.3239214,20.3465615 C38.267055,20.4857393 38.2101886,20.6249171 38.1554284,20.7651493 C38.0922434,20.9254146 38.0301116,21.0867343 37.9700859,21.2491084 C37.9037418,21.4304613 37.8395038,21.6128686 37.778425,21.7963302 C37.7099747,21.9966619 37.6457367,22.1991023 37.5836049,22.4025971 C37.5172607,22.622962 37.4540758,22.8454356 37.3940502,23.0679092 C37.3308653,23.3061985 37.2718927,23.5455421 37.2171324,23.7869945 C37.1581598,24.0432082 37.1055057,24.3004762 37.0581171,24.5587986 C37.0075691,24.830828 36.9622866,25.1049661 36.9243757,25.3791042 C36.8833055,25.6680035 36.8496069,25.9579573 36.8222267,26.247911 C36.7937935,26.5515717 36.7727319,26.8562867 36.7600949,27.1610017 C36.7453517,27.4794237 36.7400863,27.7967912 36.7421925,28.1152132 C36.7453517,28.447342 36.7569356,28.7784165 36.7779973,29.1094909 C36.7990589,29.4542723 36.8306514,29.7969449 36.8717216,30.1406719 C36.9148979,30.495997 36.967552,30.8513222 37.03179,31.2045385 C37.0981342,31.5714618 37.1760622,31.9373307 37.2645211,32.3000365 C37.3561392,32.678558 37.4603943,33.0539163 37.5751803,33.4250571 C37.6962847,33.8120135 37.828973,34.1968612 37.9732452,34.576437 C38.124889,34.9728829 38.2881167,35.3640568 38.4639813,35.7499589 C38.6324744,36.118991 38.8114983,36.4838055 39,36.8433481" id="Fill-1" fill="#2BAE4A"></path>
                <g id="Group-5" transform="translate(29.000000, 0.000000)">
                    <mask id="mask-2" fill="white">
                        <use xlink:href="#path-1"></use>
                    </mask>
                    <g id="Clip-4"></g>
                    <path d="M1.69862,0.321770588 C0.75922,2.71800588 0.47872,5.81053529 1.09142,8.98577059 C2.08802,14.1135353 5.07232,17.9023588 8.28652,18.5584176 C8.28322,13.9280059 6.68932,8.07041765 4.52122,6.39841765 C6.86532,8.20006471 9.03232,13.1747118 9.30182,17.8889471 C10.63062,15.4278882 11.15312,12.3945941 10.55692,9.33000588 C9.58892,4.30282941 5.90722,0.767711765 1.69862,0.321770588" id="Fill-3" fill="#2BAE4A" mask="url(#mask-2)"></path>
                </g>
                <path d="M46.8383014,14.0207065 C48.5023533,14.1555325 49.9739567,14.9368014 51,16.0731926 C50.1203849,19.1164095 47.8036816,21.2001945 45.1826169,20.9847135 C43.5865495,20.8607217 42.1693338,19.9012898 41.1725761,18.4699666 C43.531116,19.1416894 46.3195272,18.449502 47.5714883,17.0338283 C46.4073842,18.344771 43.2748666,18.4410753 41,17.5923934 C41.8262734,15.3256302 44.1586654,13.8028179 46.8383014,14.0207065" id="Fill-6" fill="#2BAE4A"></path>
                <path d="M42.3646403,6.87497239 C43.3085589,5.42478463 44.5690286,4.4263309 45.8386736,4 C47.3078835,6.14269936 47.4306044,9.17009057 45.9338683,11.4652087 C45.0243575,12.8579633 43.6904847,13.7260879 42.2545356,14 C43.9072533,12.1510934 44.9073712,9.30152419 44.6630763,7.53987188 C44.8936081,9.17229954 43.3360851,12.0759885 41.613405,13.7658493 C40.600671,12.0108239 40.8357904,9.21868787 42.3646403,6.87497239" id="Fill-8" fill="#2BAE4A"></path>
                <path d="M44.3626616,90.9985571 C44.2484333,91.0029895 44.1331374,90.9974491 44.0167739,90.9786116 C43.2865666,90.8611542 42.7047493,90.2816241 42.5627646,89.5270161 L37.0328319,60.1715457 C36.8470774,59.1842392 37.4683941,58.225743 38.4195853,58.0329357 C39.3654386,57.8445607 40.2931436,58.4828194 40.4799656,59.4723421 L45.0768556,83.8779829 L54.7040628,65.6022856 C55.168449,64.7191394 56.2360036,64.3944695 57.085777,64.877596 C57.936618,65.3607224 58.2494115,66.4677024 57.7850253,67.3508486 L45.8262789,90.0522499 C45.5273636,90.6184829 44.967965,90.9708549 44.3626616,90.9985571" id="Fill-10" fill="#565656"></path>
                <path d="M60.8293821,62 C60.4875419,62 60.1412478,61.9056298 59.8328122,61.7081107 C58.9854494,61.1660305 58.7449365,60.0478531 59.296112,59.2116889 L72.0811572,39.8218989 C72.4196569,39.3094466 72.9964426,39 73.6166543,39 L81.1694292,39 C82.1804744,39 83,39.8076336 83,40.805105 C83,41.801479 82.1804744,42.6091126 81.1694292,42.6091126 L74.6098837,42.6091126 L62.3671061,61.1781011 C62.0152446,61.7103053 61.4284375,62 60.8293821,62" id="Fill-12" fill="#565656"></path>
                <path d="M22.7862747,67.2624987 C17.6755421,67.1217046 15.5386697,69.2949296 13.5361151,70.4791896 C3.46783857,60.9994323 0,45 0,45 L73,45 C64.7833095,76.1563709 52.2484718,76.9841039 35.4076975,77 C33.7326115,71.2399319 28.9515678,67.4328141 22.7862747,67.2624987" id="Fill-14" fill="#565656"></path>
                <g id="Group-18" transform="translate(10.000000, 67.000000)">
                    <mask id="mask-4" fill="white">
                        <use xlink:href="#path-3"></use>
                    </mask>
                    <g id="Clip-17"></g>
                    <path d="M12.3204,17.1470182 C9.70876364,17.1470182 7.58367273,15.0219273 7.58367273,12.4102909 C7.58367273,9.79865455 9.70876364,7.67356364 12.3204,7.67356364 C14.9331273,7.67356364 17.0571273,9.79865455 17.0571273,12.4102909 C17.0571273,15.0219273 14.9331273,17.1470182 12.3204,17.1470182 M12.3204,0.820472727 C5.92003636,0.820472727 0.730581818,6.00992727 0.730581818,12.4102909 C0.730581818,18.8106545 5.92003636,24.0001091 12.3204,24.0001091 C18.7207636,24.0001091 23.9102182,18.8106545 23.9102182,12.4102909 C23.9102182,6.00992727 18.7207636,0.820472727 12.3204,0.820472727" id="Fill-16" fill="#565656" mask="url(#mask-4)"></path>
                </g>
                <path d="M62,41 C56.8049103,32.0396399 47.1207219,26 36.0005456,26 C24.8792781,26 15.1950897,32.0396399 10,41 L62,41 Z" id="Fill-19" fill="#2BAE4A"></path>
            </g>
        </g>
    </g>
</svg>