<?xml version="1.0" encoding="UTF-8"?>
<svg width="66px" height="64px" viewBox="0 0 66 64" version="1.1" xmlns="http://www.w3.org/2000/svg" xmlns:xlink="http://www.w3.org/1999/xlink">
    <!-- Generator: Sketch 49 (51002) - http://www.bohemiancoding.com/sketch -->
    <title>Asset 9</title>
    <desc>Created with Sketch.</desc>
    <defs></defs>
    <g id="Page-1" stroke="none" stroke-width="1" fill="none" fill-rule="evenodd">
        <g id="Brighten-home-Copy-11" transform="translate(-1056.000000, -2442.000000)" fill-rule="nonzero">
            <g id="Asset-9" transform="translate(1056.000000, 2442.000000)">
                <path d="M41.8,34.33 C41.8000602,33.3326007 40.9973391,32.5209604 40,32.51 L9.48,32.51 C8.47484176,32.51 7.66,33.3248418 7.66,34.33 C7.66,35.3351582 8.47484176,36.15 9.48,36.15 L40,36.15 C40.9973391,36.1390396 41.8000602,35.3273993 41.8,34.33 Z" id="Shape" fill="#4F4E50"></path>
                <path d="M40.15,25.27 L23.15,25.27 C22.1448418,25.27 21.33,26.0848418 21.33,27.09 C21.33,28.0951582 22.1448418,28.91 23.15,28.91 L40.15,28.91 C41.1551582,28.91 41.97,28.0951582 41.97,27.09 C41.97,26.0848418 41.1551582,25.27 40.15,25.27 Z" id="Shape" fill="#4F4E50"></path>
                <path d="M45.83,55.44 C45.8302423,57.6590521 44.0488098,59.4672061 41.83,59.5 L7.69,59.5 C5.44772392,59.5 3.63,57.6822761 3.63,55.44 L3.63,8.66 C3.62999672,7.58413836 4.05806436,6.55248664 4.81975088,5.7926762 C5.58143741,5.03286575 6.61414164,4.60734355 7.69,4.61 L31.69,4.61 L31.69,10.49 C31.6873456,12.5285947 32.4953141,14.4846028 33.9358813,15.9270457 C35.3764485,17.3694886 37.3314036,18.1800017 39.37,18.18 L45.8,18.18 L45.8,27.96 C45.8572788,27.881256 45.9074747,27.7975961 45.95,27.71 C46.05,27.56 46.15,27.38 46.28,27.19 C47.28,25.56 48.84,22.95 49.15,22.45 C49.23,22.3 49.33,22.16 49.42,22.01 L49.42,17.08 C49.4221637,16.616377 49.3303138,16.1571275 49.15,15.73 C48.9683022,15.2994756 48.6993064,14.9113044 48.36,14.59 L35.28,1.96 C34.9594439,1.6561854 34.5822946,1.41834352 34.17,1.26 C33.7589231,1.08054148 33.3181464,0.978823787 32.87,0.96 L7.69,0.96 C5.64353579,0.959972315 3.68146783,1.77565497 2.23815771,3.22647255 C0.794847596,4.67729013 -0.0106448075,6.64356348 -1.77631618e-15,8.69 L-1.77631618e-15,55.47 C-1.25619729e-15,59.7170697 3.44293027,63.16 7.69,63.16 L41.78,63.16 C46.0247857,63.1544909 49.4644909,59.7147857 49.47,55.47 L49.47,46.47 C48.3,48.05 47.09,49.61 45.85,51.12 L45.85,55.42 L45.83,55.44 Z" id="Shape" fill="#4F4E50"></path>
                <path d="M12.75,12.96 C11.1710783,13.4126985 10.0617357,14.828623 10,16.47 C9.94170669,17.9275593 10.7663438,19.2769654 12.09,19.89 C12.926721,20.3003947 13.7884214,20.6577666 14.67,20.96 C15.0051147,21.0948989 15.3211319,21.2730788 15.61,21.49 C15.9960875,21.7610388 16.2018057,22.2224654 16.1453545,22.6908017 C16.0889032,23.1591379 15.7794334,23.5584659 15.34,23.73 C14.8274479,23.9527272 14.2649967,24.0355421 13.71,23.97 C12.838553,23.8867635 11.9887494,23.6497665 11.2,23.27 C10.74,23.04 10.6,23.1 10.45,23.61 C10.3,24.12 10.21,24.47 10.1,24.91 C9.99,25.35 10.01,25.64 10.58,25.91 C11.2945379,26.226789 12.0532999,26.4324979 12.83,26.52 C13.44,26.6 13.45,26.63 13.48,27.26 C13.48,27.55 13.48,27.83 13.48,28.12 C13.4613505,28.2725649 13.5125013,28.425404 13.6192262,28.5360098 C13.7259511,28.6466156 13.8768665,28.7031906 14.03,28.69 C14.45,28.69 14.87,28.69 15.29,28.69 C15.4381749,28.7006751 15.583192,28.6435508 15.6842791,28.5346877 C15.7853662,28.4258247 15.8316068,28.2769793 15.81,28.13 C15.81,27.74 15.81,27.35 15.81,26.97 C15.7843159,26.8052914 15.82604,26.6371789 15.9257582,26.5035942 C16.0254764,26.3700094 16.1747867,26.2822077 16.34,26.26 C17.2047866,26.0200198 17.9714079,25.5124395 18.53,24.81 C19.2529476,23.8654243 19.5180033,22.648097 19.2532188,21.4884567 C18.9884342,20.3288164 18.2212811,19.3471768 17.16,18.81 C16.44,18.43 15.68,18.14 14.92,17.81 C14.4862247,17.6442897 14.0760595,17.4223971 13.7,17.15 C13.3607496,16.9294295 13.1766741,16.5349561 13.2255567,16.1332688 C13.2744392,15.7315815 13.5477506,15.3927689 13.93,15.26 C14.1665263,15.1562442 14.4217236,15.1018021 14.68,15.1 C15.6418438,15.0228007 16.6071467,15.1986237 17.48,15.61 C17.93,15.82 18.08,15.75 18.21,15.29 C18.34,14.83 18.49,14.29 18.62,13.81 C18.6734827,13.6750875 18.6669553,13.523779 18.6020526,13.3939737 C18.5371499,13.2641683 18.4200197,13.1681613 18.28,13.13 C17.7150782,12.884751 17.1197442,12.7165776 16.51,12.63 C15.71,12.52 15.71,12.51 15.69,11.71 C15.69,10.57 15.69,10.57 14.54,10.58 C14.3734771,10.5702107 14.2065229,10.5702107 14.04,10.58 C13.51,10.58 13.41,10.7 13.41,11.23 C13.41,11.47 13.41,11.7 13.41,11.95 C13.41,12.65 13.41,12.64 12.72,12.9 L12.75,12.96 Z" id="Shape" fill="#4F4E50"></path>
                <path d="M38.41,41.72 C38.73,41.07 39.05,40.42 39.41,39.77 L9.48,39.77 C8.79940393,39.7194466 8.1477245,40.0539042 7.79198782,40.6363285 C7.43625114,41.2187528 7.43625114,41.9512472 7.79198782,42.5336715 C8.1477245,43.1160958 8.79940393,43.4505534 9.48,43.4 L37.63,43.4 C37.87,42.85 38.14,42.29 38.41,41.72 Z" id="Shape" fill="#4F4E50"></path>
                <g id="Group" transform="translate(7.000000, 13.000000)">
                    <path d="M0.66,35.81 C0.665465438,36.8128857 1.47711434,37.6245346 2.48,37.63 L27.73,37.63 C28.12,36.41 28.55,35.22 29.04,34.0099722 L2.48,34.01 C1.99995595,34.0073405 1.53851755,34.1954905 1.19719975,34.5330575 C0.855881942,34.8706246 0.662644851,35.3299559 0.66,35.81 Z" id="Shape" fill="#4F4E50"></path>
                    <path d="M58.28,8.72 L57.28,8.12 L55.61,7.12 C55.8832136,6.49866578 56.11701,5.86073553 56.31,5.21 C56.37,4.99 56.43,4.79 56.48,4.57 C56.77,3.09 56.26,2.08 54.78,1.19 C53.7245623,0.422919432 52.2670556,0.541899567 51.35,1.47 C50.5915285,2.13307281 49.9195757,2.88901976 49.35,3.72 C47.18,6.67 45.35,9.85 43.41,12.95 L41,16.87 C38.51,21.14 36.13,25.49 34,29.96 C32.5196957,32.879103 31.2757137,35.9121454 30.28,39.03 C30.1603237,39.4707543 30.066827,39.9182026 30,40.37 C30,40.88 29.76,41.52 30.32,41.85 C30.88,42.18 31.32,41.72 31.77,41.41 C32.9054433,40.5315563 33.9356053,39.5248834 34.84,38.41 C39.3185032,33.1538253 43.3997663,27.5717538 47.05,21.71 L50,16.96 C51.26,14.81 52.58,12.69 53.83,10.53 L54.53,9.3 L56.08,10.2 L48.54,23.2 C48.258539,23.6851288 48.2266575,24.2757704 48.4542629,24.7883775 C48.6818684,25.3009846 49.1413799,25.67344 49.69,25.79 C49.7994474,25.8145907 49.9123261,25.7662142 49.97,25.67 L58.77,10.51 C59.1148976,9.88103516 58.9033164,9.09201361 58.29,8.72 L58.28,8.72 Z" id="Shape" fill="#2BAF4A"></path>
                </g>
            </g>
        </g>
    </g>
</svg>