<?xml version="1.0" encoding="UTF-8"?>
<svg width="50px" height="63px" viewBox="0 0 50 63" version="1.1" xmlns="http://www.w3.org/2000/svg" xmlns:xlink="http://www.w3.org/1999/xlink">
    <!-- Generator: Sketch 49 (51002) - http://www.bohemiancoding.com/sketch -->
    <title>Asset 10</title>
    <desc>Created with Sketch.</desc>
    <defs></defs>
    <g id="Page-1" stroke="none" stroke-width="1" fill="none" fill-rule="evenodd">
        <g id="Brighten-home-Copy-11" transform="translate(-1386.000000, -2443.000000)" fill-rule="nonzero">
            <g id="Asset-10" transform="translate(1386.000000, 2443.000000)">
                <path d="M45.83,54.44 C45.8302423,56.6590521 44.0488098,58.4672061 41.83,58.5 L7.69,58.5 C5.44772392,58.5 3.63,56.6822761 3.63,54.44 L3.63,7.66 C3.62999672,6.58413836 4.05806436,5.55248664 4.81975088,4.7926762 C5.58143741,4.03286575 6.61414164,3.60734355 7.69,3.61 L31.69,3.61 L31.69,9.49 C31.6873456,11.5285947 32.4953141,13.4846028 33.9358813,14.9270457 C35.3764485,16.3694886 37.3314036,17.1800017 39.37,17.18 L45.8,17.18 L45.8,54.62 C45.8572788,54.541256 45.9074747,54.4575961 45.95,54.37 C46.05,54.22 46.15,54.04 46.28,53.85 L49.15,49.1 C49.23,48.96 49.33,48.82 49.42,48.67 L49.42,16.08 C49.4221637,15.616377 49.3303138,15.1571275 49.15,14.73 C48.9683022,14.2994756 48.6993064,13.9113044 48.36,13.59 L35.28,1 C34.9657144,0.678551559 34.5876007,0.426475764 34.17,0.26 C33.7576985,0.0896163068 33.3161182,0.0013002628 32.87,0 L7.69,0 C3.44293027,-6.40864515e-16 5.20116035e-16,3.44293027 0,7.69 L0,54.47 C5.20116035e-16,58.7170697 3.44293027,62.16 7.69,62.16 L41.78,62.16 C46.0247857,62.1544909 49.4644909,58.7147857 49.47,54.47 L49.47,45.47 C48.2966667,47.05 47.09,48.6 45.85,50.12 L45.85,54.42 L45.83,54.44 Z" id="Shape" fill="#4F4E50"></path>
                <path d="M12.75,11.91 C11.1539591,12.3683455 10.0403675,13.8099405 10,15.47 C9.94170669,16.9275593 10.7663438,18.2769654 12.09,18.89 C12.9277189,19.3097791 13.7891778,19.6804068 14.67,20 C15.0051147,20.1348989 15.3211319,20.3130788 15.61,20.53 C15.9960875,20.8010388 16.2018057,21.2624654 16.1453545,21.7308017 C16.0889032,22.1991379 15.7794334,22.5984659 15.34,22.77 C14.8260564,22.9878102 14.2649119,23.0704327 13.71,23.01 C12.838553,22.9267635 11.9887494,22.6897665 11.2,22.31 C10.74,22.07 10.6,22.14 10.45,22.64 C10.3,23.14 10.21,23.51 10.1,23.95 C9.99,24.39 10.01,24.68 10.58,24.95 C11.2945379,25.266789 12.0532999,25.4724979 12.83,25.56 C13.44,25.64 13.45,25.66 13.48,26.3 C13.48,26.59 13.48,26.87 13.48,27.16 C13.4613505,27.3125649 13.5125013,27.465404 13.6192262,27.5760098 C13.7259511,27.6866156 13.8768665,27.7431906 14.03,27.73 C14.45,27.73 14.87,27.73 15.29,27.73 C15.4381749,27.7406751 15.583192,27.6835508 15.6842791,27.5746877 C15.7853662,27.4658247 15.8316068,27.3169793 15.81,27.17 C15.81,26.78 15.81,26.39 15.81,26.01 C15.7843159,25.8452914 15.82604,25.6771789 15.9257582,25.5435942 C16.0254764,25.4100094 16.1747867,25.3222077 16.34,25.3 C17.2047866,25.0600198 17.9714079,24.5524395 18.53,23.85 C19.2529476,22.9054243 19.5180033,21.688097 19.2532188,20.5284567 C18.9884342,19.3688164 18.2212811,18.3871768 17.16,17.85 C16.44,17.47 15.68,17.18 14.92,16.85 C14.4862247,16.6842897 14.0760595,16.4623971 13.7,16.19 C13.3607496,15.9694295 13.1766741,15.5749561 13.2255567,15.1732688 C13.2744392,14.7715815 13.5477506,14.4327689 13.93,14.3 C14.1665263,14.1962442 14.4217236,14.1418021 14.68,14.14 C15.6418438,14.0628007 16.6071467,14.2386237 17.48,14.65 C17.93,14.86 18.08,14.79 18.21,14.33 C18.34,13.87 18.49,13.33 18.62,12.85 C18.6734827,12.7150875 18.6669553,12.563779 18.6020526,12.4339737 C18.5371499,12.3041683 18.4200197,12.2081613 18.28,12.17 C17.7150782,11.924751 17.1197442,11.7565776 16.51,11.67 C15.71,11.56 15.71,11.55 15.69,10.75 C15.69,9.61 15.69,9.61 14.54,9.62 C14.3734771,9.61021066 14.2065229,9.61021066 14.04,9.62 C13.51,9.62 13.41,9.74 13.41,10.27 C13.41,10.51 13.41,10.74 13.41,10.99 C13.41,11.69 13.41,11.68 12.72,11.94 L12.75,11.91 Z" id="Shape" fill="#4F4E50"></path>
                <path d="M26,44.66 C26.9881133,45.6799246 26.9881133,47.3000754 26,48.32 L24,50.32 C22.9759133,51.2977816 21.3640867,51.2977816 20.34,50.32 L11.4,41.32 C10.4106565,40.296694 10.4106565,38.673306 11.4,37.65 L13.4,35.65 C14.4240867,34.6722184 16.0359133,34.6722184 17.06,35.65 L26,44.66 Z" id="Shape" fill="#2BAF4A"></path>
                <path d="M33.77,29.09 C34.7940867,28.1122184 36.4059133,28.1122184 37.43,29.09 L39.43,31.14 C40.4181133,32.1599246 40.4181133,33.7800754 39.43,34.8 L24,50.22 C22.9759133,51.1977816 21.3640867,51.1977816 20.34,50.22 L18.34,48.22 C17.3506565,47.196694 17.3506565,45.573306 18.34,44.55 L33.77,29.09 Z" id="Shape" fill="#2BAF4A"></path>
            </g>
        </g>
    </g>
</svg>