<?xml version="1.0" encoding="UTF-8"?>
<svg width="70px" height="70px" viewBox="0 0 70 70" version="1.1" xmlns="http://www.w3.org/2000/svg" xmlns:xlink="http://www.w3.org/1999/xlink">
    <!-- Generator: Sketch 49 (51002) - http://www.bohemiancoding.com/sketch -->
    <title>Asset 9</title>
    <desc>Created with Sketch.</desc>
    <defs>
        <linearGradient x1="0%" y1="50.0125849%" x2="100%" y2="50.0125849%" id="linearGradient-1">
            <stop stop-color="#06A54C" offset="0%"></stop>
            <stop stop-color="#06A54C" offset="100%"></stop>
        </linearGradient>
        <linearGradient x1="2186%" y1="4520%" x2="6666%" y2="4520%" id="linearGradient-2">
            <stop stop-color="#06A54C" offset="0%"></stop>
            <stop stop-color="#06A54C" offset="100%"></stop>
        </linearGradient>
    </defs>
    <g id="Page-1" stroke="none" stroke-width="1" fill="none" fill-rule="evenodd">
        <g id="Self-Employed" transform="translate(-315.000000, -1320.000000)">
            <g id="Asset-9" transform="translate(315.000000, 1320.000000)">
                <rect id="Rectangle-path" x="32" y="23" width="20" height="1"></rect>
                <polygon id="Shape" fill="#434343" fill-rule="nonzero" points="31.7348303 23.0058808 51.8871959 23.0058808 51.8871959 23.698209 55.9195402 23.698209 55.9195402 23.0058808 65.8366747 23.0058808 70 17.6730821 65.8366747 12.3309276 16.2790698 12.3309276 16.2790698 4.16332531 10.9462711 0 5.61347233 4.16332531 5.61347233 12.3309276 0 12.3309276 0 23.0058808 5.61347233 23.0058808 5.61347233 70 16.2790698 70 16.2790698 23.0058808 27.702486 23.0058808 27.702486 23.698209 31.7348303 23.698209"></polygon>
                <polygon id="Shape" stroke="url(#linearGradient-2)" stroke-width="2" fill="url(#linearGradient-1)" fill-rule="nonzero" stroke-linecap="round" stroke-linejoin="round" points="21 29.4293984 21 61 61 61 61 29.4293984 55.4953271 29.4293984 55.4953271 24 51.4672897 24 51.4672897 29.4293984 31.3364486 29.4293984 31.3364486 24 27.3084112 24 27.3084112 29.4293984"></polygon>
                <path d="M45.9894575,52.7263821 C45.0547356,53.4030216 43.9682672,53.8481528 42.8219046,54.0241432 L42.8219046,55.6019967 C42.8639371,56.0867759 42.6249936,56.5535205 42.2041744,56.8086516 C41.7833551,57.0637828 41.2524391,57.0637828 40.8316198,56.8086516 C40.4108006,56.5535205 40.1718571,56.0867759 40.2138896,55.6019967 L40.2138896,54.0894981 C38.9215529,53.9506515 37.6887811,53.4806527 36.638538,52.7263821 C36.1488335,52.3372613 35.6891886,51.9128413 35.2634028,51.4566302 C34.4667727,50.5229891 35.6237831,49.589348 36.7807934,49.1225275 L37.4256844,48.8517715 C38.0512835,48.8998123 38.6122582,49.2493458 38.9241076,49.7854126 C39.0378201,49.950542 39.1788727,50.095716 39.34139,50.2148875 C40.5432708,50.9745371 42.0847247,50.9745371 43.2866055,50.2148875 C43.7405871,49.8978918 44.0066748,49.3809664 43.9978823,48.8330987 C44.0178443,48.327311 43.7608474,47.8498072 43.3245403,47.5820196 C42.643121,47.164456 41.8681529,46.9176248 41.0674218,46.863116 C39.6200193,46.7446752 38.2375642,46.2197235 37.0842715,45.3506174 C35.9661511,44.5184795 35.2955222,43.2289987 35.2634028,41.8494633 C35.2634028,39.3846508 37.3972333,37.3399768 40.2138896,36.9105019 L40.2138896,35.3980033 C40.1718571,34.9132241 40.4108006,34.4464795 40.8316198,34.1913484 C41.2524391,33.9362172 41.7833551,33.9362172 42.2041744,34.1913484 C42.6249936,34.4464795 42.8639371,34.9132241 42.8219046,35.3980033 L42.8219046,37.0692209 C44.24498,37.4454502 45.5725769,38.11007 46.7197017,39.0205308 C47.6680708,39.8514714 46.5679626,40.7197576 45.5057892,41.3919792 L44.7281266,41.8774725 C44.1758536,41.8330758 43.6819625,41.5217544 43.4098935,41.046532 C42.8593339,40.4931871 42.1005951,40.188997 41.3139977,40.206255 C40.292894,40.1354414 39.3989227,40.8750459 39.2939715,41.8774725 C39.2983766,42.3043445 39.509866,42.7034042 39.862993,42.9511598 C40.3470409,43.3171773 40.9249487,43.5434575 41.5321226,43.6047086 C43.09538,43.7256924 44.6008395,44.2400803 45.9041043,45.0985343 C47.1924152,45.9510831 47.9752774,47.3704349 48,48.8984536 C47.9732803,50.4133829 47.229666,51.8291709 45.9894575,52.7263821 Z" id="Shape" fill="#FFFFFF" fill-rule="nonzero"></path>
            </g>
        </g>
    </g>
</svg>