<?xml version="1.0" encoding="UTF-8"?>
<svg width="67px" height="66px" viewBox="0 0 67 66" version="1.1" xmlns="http://www.w3.org/2000/svg" xmlns:xlink="http://www.w3.org/1999/xlink">
    <!-- Generator: Sketch 49 (51002) - http://www.bohemiancoding.com/sketch -->
    <title>Asset 1</title>
    <desc>Created with Sketch.</desc>
    <defs>
        <linearGradient x1="94.5054778%" y1="8.62099633%" x2="43.9117549%" y2="56.3364109%" id="linearGradient-1">
            <stop stop-color="#06A54C" offset="0%"></stop>
            <stop stop-color="#06A54C" offset="100%"></stop>
        </linearGradient>
        <linearGradient x1="4871%" y1="966%" x2="6344%" y2="966%" id="linearGradient-2">
            <stop stop-color="#06A54C" offset="0%"></stop>
            <stop stop-color="#06A54C" offset="100%"></stop>
        </linearGradient>
        <linearGradient x1="2873%" y1="2051%" x2="6160%" y2="2051%" id="linearGradient-3">
            <stop stop-color="#06A54C" offset="0%"></stop>
            <stop stop-color="#06A54C" offset="100%"></stop>
        </linearGradient>
    </defs>
    <g id="Page-1" stroke="none" stroke-width="1" fill="none" fill-rule="evenodd">
        <g id="Brighten-Home-Loan" transform="translate(-416.000000, -615.000000)" fill-rule="nonzero">
            <g id="Asset-1" transform="translate(416.000000, 614.000000)">
                <path d="M66.65,15.34 L66,2.61 C66.0026769,2.46677602 65.9483359,2.32835722 65.8489364,2.22520679 C65.7495368,2.12205636 65.6132249,2.06262775 65.47,2.06 L52.78,1 C52.4665816,0.976727798 52.191649,1.20731641 52.16,1.52 L52.08,2.52 C52.0569538,2.83145294 52.2888256,3.10345637 52.6,3.13 L64,4 L64.57,15.41 C64.5750443,15.5622169 64.6418685,15.7058136 64.7550725,15.8076972 C64.8682766,15.9095809 65.0180945,15.9609622 65.17,15.95 L66.17,15.95 C66.4625317,15.8994701 66.669687,15.6362102 66.65,15.34 Z" id="Shape" fill="url(#linearGradient-1)"></path>
                <path d="M64.43,12.7 L64.02,4.7 C64.0128819,4.48600503 63.9545876,4.27683134 63.85,4.09 C63.7,3.93 63.54,3.96 63.28,3.93 L55.28,3.26 C55.0149624,3.20130857 54.7384724,3.28463433 54.55,3.48 L49.87,8 C49.6603714,8.21386393 49.6603714,8.55613607 49.87,8.77 L58.77,17.96 C58.9804559,18.1684446 59.3195441,18.1684446 59.53,17.96 L64.2,13.45 C64.404145,13.2584152 64.4916437,12.9730934 64.43,12.7 Z" id="Shape" fill="url(#linearGradient-2)"></path>
                <path d="M62.43,11.33 L56.34,11.33 L56.34,5.24 C56.34,4.4 52.42,7 51.58,7 C51.1790629,6.99879572 50.7941072,7.15709525 50.51,7.44 L49.6,8.35 C49.3119059,8.6355367 49.1498888,9.02437777 49.15,9.43 L49.15,16.43 L34.92,30.6 C34.4812781,30.4233226 34.0129577,30.3316947 33.54,30.33 C31.9971863,30.3259559 30.6042249,31.2527471 30.011946,32.6773509 C29.4196671,34.1019548 29.7449985,35.743126 30.8359363,36.8340637 C31.926874,37.9250015 33.5680452,38.2503329 34.9926491,37.658054 C36.4172529,37.0657751 37.3440441,35.6728137 37.34,34.13 C37.3383053,33.6570423 37.2466774,33.1887219 37.07,32.75 L51.3,18.52 L58.3,18.52 C58.7026043,18.519674 59.088177,18.3575172 59.37,18.07 L60.28,17.17 C60.5680941,16.8844633 60.7301112,16.4956222 60.73,16.09 C60.72,15.25 63.27,11.33 62.43,11.33 Z" id="Shape" fill="url(#linearGradient-3)"></path>
                <path d="M60.12,20.92 C59.3075028,21.7365842 58.2019313,22.1939378 57.05,22.19 L55.84,22.19 C61.7650122,33.2513148 58.6908517,46.9838867 48.6153217,54.4633353 C38.5397918,61.9427839 24.5052374,60.910661 15.6322882,52.0377118 C6.75933901,43.1647626 5.72721608,29.1302082 13.2066647,19.0546783 C20.6861133,8.97914833 34.4186852,5.90498779 45.48,11.83 L45.48,10.63 C45.4760622,9.47806865 45.9334158,8.37249716 46.75,7.56 L48.87,5.43 C34.6422775,-2.1717923 16.9930839,1.79381098 7.38483668,14.7513154 C-2.22341051,27.7088197 -0.891924212,45.7489747 10.5145506,57.1554494 C21.9210253,68.5619242 39.9611803,69.8934105 52.9186846,60.2851633 C65.876189,50.6769161 69.8417923,33.0277225 62.24,18.8 L60.12,20.92 Z" id="Shape" fill="#434343"></path>
                <path d="M44.16,30 C45.9850299,34.6611179 44.5589055,39.9674756 40.6431163,43.0857042 C36.7273272,46.2039328 31.2363786,46.4057917 27.1022032,43.5834968 C22.9680278,40.761202 21.1561335,35.5738806 22.6339946,30.7913415 C24.1118558,26.0088024 28.5343282,22.747974 33.54,22.75 C34.9636558,22.7531101 36.3743137,23.0209995 37.7,23.54 L43.35,17.89 C35.0808872,12.8878529 24.3788449,14.8466551 18.4175471,22.4534041 C12.4562493,30.060153 13.1123649,40.9201773 19.9460938,47.7539062 C26.7798227,54.5876351 37.639847,55.2437507 45.2465959,49.2824529 C52.8533449,43.3211551 54.8121471,32.6191128 49.81,24.35 L44.16,30 Z" id="Shape" fill="#434343"></path>
            </g>
        </g>
    </g>
</svg>