<?xml version="1.0" encoding="UTF-8"?>
<svg width="62px" height="58px" viewBox="0 0 62 58" version="1.1" xmlns="http://www.w3.org/2000/svg" xmlns:xlink="http://www.w3.org/1999/xlink">
    <!-- Generator: Sketch 49 (51002) - http://www.bohemiancoding.com/sketch -->
    <title>Asset 5</title>
    <desc>Created with Sketch.</desc>
    <defs></defs>
    <g id="Page-1" stroke="none" stroke-width="1" fill="none" fill-rule="evenodd">
        <g id="Brighten-Home-Loan" transform="translate(-1319.000000, -617.000000)" fill-rule="nonzero">
            <g id="Asset-5" transform="translate(1319.000000, 616.000000)">
                <path d="M10.88,10.75 C10.9626998,12.0451178 12.0372445,13.0532358 13.335,13.0532358 C14.6327555,13.0532358 15.7073002,12.0451178 15.79,10.75 L15.79,3.44 C15.7073002,2.14488219 14.6327555,1.13676415 13.335,1.13676415 C12.0372445,1.13676415 10.9626998,2.14488219 10.88,3.44 L10.88,10.75 Z" id="Shape" fill="#424143"></path>
                <path d="M56.18,59 C58.9512961,59.0001948 61.2071388,56.7711013 61.24,54 L61.24,10.35 C61.2071388,7.57889875 58.9512961,5.34980516 56.18,5.35 L51.37,5.35 L51.37,10.75 C51.37,13.0861645 49.4761645,14.98 47.14,14.98 C44.8038355,14.98 42.91,13.0861645 42.91,10.75 L42.91,5.32 L34.47,5.32 L34.47,10.75 C34.3601963,13.008997 32.4966641,14.7841481 30.235,14.7841481 C27.9733359,14.7841481 26.1098037,13.008997 26,10.75 L26,5.32 L17.57,5.32 L17.57,10.75 C17.4601963,13.008997 15.5966641,14.7841481 13.335,14.7841481 C11.0733359,14.7841481 9.20980373,13.008997 9.1,10.75 L9.1,5.32 L5.1,5.32 C2.34987829,5.34709676 0.127096761,7.56987829 0.1,10.32 L0.1,53.94 C0.0999332588,55.2747911 0.633575495,56.5541971 1.58209935,57.4933297 C2.5306232,58.4324622 3.8152756,58.9533479 5.15,58.94 L56.18,59 Z" id="Shape" fill="#424143"></path>
                <path d="M44.69,3.44 L44.69,10.75 C44.69,12.1030976 45.7869024,13.2 47.14,13.2 C48.4930976,13.2 49.59,12.1030976 49.59,10.75 L49.59,3.44 C49.59,2.08690236 48.4930976,0.99 47.14,0.99 C45.7869024,0.99 44.69,2.08690236 44.69,3.44 Z" id="Shape" fill="#424143"></path>
                <path d="M27.79,3.44 L27.79,10.75 C27.7900001,12.1030976 28.8869024,13.1999999 30.24,13.1999999 C31.5930976,13.1999999 32.6899999,12.1030976 32.69,10.75 L32.69,3.44 C32.6899999,2.0869024 31.5930976,0.990000103 30.24,0.990000103 C28.8869024,0.990000103 27.7900001,2.0869024 27.79,3.44 Z" id="Shape" fill="#424143"></path>
                <rect id="Rectangle-path" fill="#FFFFFF" x="3.25" y="20.89" width="55.1" height="33.19"></rect>
                <path d="M20.54,27.75 C21.1752967,27.1109372 22.0388885,26.7511073 22.94,26.75 C23.8433322,26.736632 24.7144202,27.0854535 25.358854,27.7186145 C26.0032878,28.3517754 26.367426,29.2165726 26.37,30.12 C26.3755728,31.9900114 24.869947,33.5135081 23,33.53 C21.6252039,33.5429651 20.377906,32.7266814 19.8394947,31.4616337 C19.3010834,30.1965861 19.5775388,28.7317845 20.54,27.75 Z" id="Shape" fill="#2BAF4A"></path>
                <path d="M40.69,47.52 C40.0536197,48.1606 39.1879663,48.5208422 38.285,48.5208422 C37.3820337,48.5208422 36.5163803,48.1606 35.88,47.52 C34.7875799,46.4401067 34.5549052,44.7618761 35.312329,43.4255152 C36.0697527,42.0891542 37.6291265,41.4266223 39.1168316,41.8090944 C40.6045367,42.1915664 41.6510188,43.5240342 41.67,45.06 C41.6665599,45.9665199 41.3074847,46.8354819 40.67,47.48 L40.69,47.52 Z" id="Shape" fill="#2BAF4A"></path>
                <path d="M40.46,27.6 C41.7833971,28.9302491 41.7833971,31.0797509 40.46,32.41 L25.59,47.61 C24.9528419,48.2462867 24.090451,48.6056162 23.19,48.61 C22.2847565,48.6149301 21.4158218,48.2543762 20.78,47.61 C19.4426745,46.2935503 19.4203296,44.1439653 20.73,42.8 L35.65,27.6 C36.9802491,26.2766029 39.1297509,26.2766029 40.46,27.6 Z" id="Shape" fill="#2BAF4A"></path>
            </g>
        </g>
    </g>
</svg>