<?xml version="1.0" encoding="UTF-8"?>
<svg width="64px" height="67px" viewBox="0 0 64 67" version="1.1" xmlns="http://www.w3.org/2000/svg" xmlns:xlink="http://www.w3.org/1999/xlink">
    <!-- Generator: Sketch 49 (51002) - http://www.bohemiancoding.com/sketch -->
    <title>Asset 12</title>
    <desc>Created with Sketch.</desc>
    <defs>
        <linearGradient x1="0%" y1="50%" x2="99.4425236%" y2="50%" id="linearGradient-1">
            <stop stop-color="#06A54C" offset="0%"></stop>
            <stop stop-color="#06A54C" offset="100%"></stop>
        </linearGradient>
        <linearGradient x1="3327%" y1="4746%" x2="6163%" y2="4746%" id="linearGradient-2">
            <stop stop-color="#06A54C" offset="0%"></stop>
            <stop stop-color="#06A54C" offset="100%"></stop>
        </linearGradient>
    </defs>
    <g id="Page-1" stroke="none" stroke-width="1" fill="none" fill-rule="evenodd">
        <g id="Self-Employed" transform="translate(-920.000000, -850.000000)" fill-rule="nonzero">
            <g id="Asset-12" transform="translate(920.000000, 850.000000)">
                <path d="M46,52.62 C46.1,52.47 46.2,52.29 46.33,52.1 L49.2,47.35 C49.28,47.21 49.38,47.07 49.47,46.92 L49.47,16.08 C49.4721637,15.616377 49.3803138,15.1571275 49.2,14.73 C49.0183022,14.2994756 48.7493064,13.9113044 48.41,13.59 L35.28,1 C34.9657144,0.678551559 34.5876007,0.426475764 34.17,0.26 C33.7576985,0.0896163068 33.3161182,0.0013002628 32.87,0 L7.69,0 C3.44293027,-6.40864515e-16 5.20116035e-16,3.44293027 0,7.69 L0,54.47 C5.20116035e-16,58.7170697 3.44293027,62.16 7.69,62.16 L41.78,62.16 C46.0247857,62.1544909 49.4644909,58.7147857 49.47,54.47 L49.47,45.47 C48.2966667,47.05 47.09,48.6 45.85,50.12 L45.85,54.42" id="Shape" fill="#FFFFFF"></path>
                <path d="M45.83,54.44 C45.8302423,56.6590521 44.0488098,58.4672061 41.83,58.5 L7.69,58.5 C5.44772392,58.5 3.63,56.6822761 3.63,54.44 L3.63,7.66 C3.62999672,6.58413836 4.05806436,5.55248664 4.81975088,4.7926762 C5.58143741,4.03286575 6.61414164,3.60734355 7.69,3.61 L31.69,3.61 L31.69,9.49 C31.6873456,11.5285947 32.4953141,13.4846028 33.9358813,14.9270457 C35.3764485,16.3694886 37.3314036,17.1800017 39.37,17.18 L45.8,17.18 L45.8,52.87 C45.8572788,52.791256 45.9074747,52.7075961 45.95,52.62 C46.05,52.47 46.15,52.29 46.28,52.1 L49.15,47.35 C49.23,47.21 49.33,47.07 49.42,46.92 L49.42,16.08 C49.4221637,15.616377 49.3303138,15.1571275 49.15,14.73 C48.9683022,14.2994756 48.6993064,13.9113044 48.36,13.59 L35.28,1 C34.9657144,0.678551559 34.5876007,0.426475764 34.17,0.26 C33.7576985,0.0896163068 33.3161182,0.0013002628 32.87,0 L7.69,0 C3.44293027,-6.40864515e-16 5.20116035e-16,3.44293027 0,7.69 L0,54.47 C5.20116035e-16,58.7170697 3.44293027,62.16 7.69,62.16 L41.78,62.16 C46.0247857,62.1544909 49.4644909,58.7147857 49.47,54.47 L49.47,45.47 C48.2966667,47.05 47.09,48.6 45.85,50.12 L45.85,54.42 L45.83,54.44 Z" id="Shape" fill="#4F4E50"></path>
                <path d="M42.11,33.33 C42.1100151,32.3287341 41.3012508,31.5155015 40.3,31.51 L9.79,31.51 C8.78484176,31.51 7.97,32.3248418 7.97,33.33 C7.97,34.3351582 8.78484176,35.15 9.79,35.15 L40.31,35.15 C41.3073391,35.1390396 42.1100602,34.3273993 42.11,33.33 Z" id="Shape" fill="#4F4E50"></path>
                <path d="M42.11,26 C42.1100151,24.9987341 41.3012508,24.1855015 40.3,24.18 L9.79,24.18 C9.10940393,24.1294466 8.4577245,24.4639042 8.10198782,25.0463285 C7.74625114,25.6287528 7.74625114,26.3612472 8.10198782,26.9436715 C8.4577245,27.5260958 9.10940393,27.8605534 9.79,27.81 L40.31,27.81 C41.3057279,27.8044987 42.1100152,26.9957431 42.11,26 Z" id="Shape" fill="#4F4E50"></path>
                <path d="M42.11,40.5 C42.1100151,39.4987341 41.3012508,38.6855015 40.3,38.68 L9.79,38.68 C9.10940393,38.6294466 8.4577245,38.9639042 8.10198782,39.5463285 C7.74625114,40.1287528 7.74625114,40.8612472 8.10198782,41.4436715 C8.4577245,42.0260958 9.10940393,42.3605534 9.79,42.31 L40.31,42.31 C41.3057279,42.3044987 42.1100152,41.4957431 42.11,40.5 Z" id="Shape" fill="#4F4E50"></path>
                <path d="M42.11,47.83 C42.1126595,47.3473038 41.9234559,46.8833219 41.5840135,46.5401287 C41.2445711,46.1969356 40.7826963,46.0026449 40.3,46 L9.79,46 C8.78484176,46 7.97,46.8148418 7.97,47.82 C7.97,48.8251582 8.78484176,49.64 9.79,49.64 L40.31,49.64 C41.3073391,49.6290396 42.1100602,48.8173993 42.11,47.82 L42.11,47.83 Z" id="Shape" fill="#4F4E50"></path>
                <path d="M26.82,16.27 L9.82,16.27 C8.81484176,16.27 8,17.0848418 8,18.09 C8,19.0951582 8.81484176,19.91 9.82,19.91 L26.82,19.91 C27.8251582,19.91 28.64,19.0951582 28.64,18.09 C28.64,17.0848418 27.8251582,16.27 26.82,16.27 Z" id="Shape" fill="#4F4E50"></path>
                <path d="M49.24,37.81 C51.84,35.62 53.58,30.7 52.51,30.48 C51.09,30.2 48,31.48 46.51,31.67 C44.39,31.93 42.09,29.38 40.8,30.8 C39.74,31.96 41.55,36.16 44.37,37.99 C35.95,42.13 24.1,62.93 44.77,64.44 C73.36,66.53 59,41.84 49.24,37.81 Z" id="Shape" stroke="#FFFFFF" stroke-width="4" fill="#FFFFFF"></path>
                <path d="M49.77,53.08 C49.6400845,52.9449506 49.4878541,52.833315 49.32,52.75 C48.9486227,52.5734157 48.5598571,52.4360071 48.16,52.34 L48.16,55.4 C48.8407089,55.389079 49.4756074,55.0549219 49.87,54.5 C50.0369814,54.1946913 50.0833702,53.8378544 50,53.5 C49.9691584,53.3277412 49.8893021,53.1680286 49.77,53.04 L49.77,53.08 Z" id="Shape" fill="url(#linearGradient-1)"></path>
                <path d="M49.24,37.81 C51.84,35.62 53.58,30.7 52.51,30.48 C51.09,30.2 48,31.48 46.51,31.67 C44.39,31.93 42.09,29.38 40.8,30.8 C39.74,31.96 41.55,36.16 44.37,37.99 C35.95,42.13 24.1,62.93 44.77,64.44 C73.36,66.53 59,41.84 49.24,37.81 Z" id="Shape" fill="url(#linearGradient-2)"></path>
                <path d="M50.37,57.66 C49.7025357,58.142672 48.9324601,58.4643924 48.12,58.6 L48.12,59.73 C48.1733807,60.0910657 48.0106206,60.4499772 47.7038332,60.6477129 C47.3970459,60.8454486 47.0029541,60.8454486 46.6961668,60.6477129 C46.3893794,60.4499772 46.2266193,60.0910657 46.28,59.73 L46.28,58.64 C45.3637965,58.5333773 44.4915091,58.1885997 43.75,57.64 C43.3901726,57.3634418 43.0555332,57.0555736 42.75,56.72 C42.18,56.04 43,55.39 43.82,55.05 L44.28,54.85 C44.7050475,54.9054171 45.0773322,55.1622936 45.28,55.54 C45.3667537,55.6553776 45.467528,55.7595111 45.58,55.85 C46.433633,56.3954797 47.526367,56.3954797 48.38,55.85 C48.6972852,55.6160505 48.8832115,55.2441979 48.88,54.85 C48.8965276,54.4848167 48.7124738,54.1397159 48.4,53.95 C47.918805,53.6465092 47.368064,53.4709605 46.8,53.44 C45.7762643,53.3488148 44.7989295,52.9710507 43.98,52.35 C43.1877659,51.7521566 42.7154968,50.8223767 42.7,49.83 C42.8355669,47.9472678 44.3193801,46.4422574 46.2,46.28 L46.2,45.19 C46.1466193,44.8289343 46.3093794,44.4700228 46.6161668,44.2722871 C46.9229541,44.0745514 47.3170459,44.0745514 47.6238332,44.2722871 C47.9306206,44.4700228 48.0933807,44.8289343 48.04,45.19 L48.04,46.39 C49.0509544,46.6581452 49.994543,47.1350491 50.81,47.79 C51.47,48.39 50.7,49.01 49.95,49.5 L49.4,49.85 C49.008424,49.8203116 48.6584554,49.5945253 48.47,49.25 C48.0753572,48.8548939 47.5384152,48.635072 46.98,48.64 C46.2537598,48.5878424 45.6187671,49.125144 45.55,49.85 C45.5498094,50.1565336 45.6990939,50.4439062 45.95,50.62 C46.3009127,50.8761301 46.7166926,51.0285828 47.15,51.06 C48.2589968,51.1475084 49.3266971,51.5194814 50.25,52.14 C51.1659017,52.749132 51.7231695,53.7701662 51.74,54.87 C51.7424334,55.9625326 51.2359921,56.9938986 50.37,57.66 Z" id="Shape" fill="#FFFFFF"></path>
            </g>
        </g>
    </g>
</svg>