<?xml version="1.0" encoding="UTF-8"?>
<svg width="59px" height="69px" viewBox="0 0 59 69" version="1.1" xmlns="http://www.w3.org/2000/svg" xmlns:xlink="http://www.w3.org/1999/xlink">
    <!-- Generator: Sketch 49 (51002) - http://www.bohemiancoding.com/sketch -->
    <title>Asset 6</title>
    <desc>Created with Sketch.</desc>
    <defs>
        <linearGradient x1="0%" y1="50%" x2="100%" y2="50%" id="linearGradient-1">
            <stop stop-color="#06A54C" offset="0%"></stop>
            <stop stop-color="#06A54C" offset="100%"></stop>
        </linearGradient>
        <linearGradient x1="0%" y1="0%" x2="5894%" y2="0%" id="linearGradient-2">
            <stop stop-color="#06A54C" offset="0%"></stop>
            <stop stop-color="#06A54C" offset="100%"></stop>
        </linearGradient>
    </defs>
    <g id="Page-1" stroke="none" stroke-width="1" fill="none" fill-rule="evenodd">
        <g id="Brighten-Home-Loan" transform="translate(-1327.000000, -833.000000)" fill-rule="nonzero">
            <g id="Asset-6" transform="translate(1328.000000, 834.000000)">
                <path d="M28.52,68 L28.52,24.6 C32.6202323,22.0823614 34.5481857,17.1467919 33.2400967,12.5165314 C31.9320076,7.88627096 27.7064872,4.68911167 22.895,4.68911167 C18.0835128,4.68911167 13.8579924,7.88627096 12.5499033,12.5165314 C11.2418143,17.1467919 13.1697677,22.0823614 17.27,24.6 L17.27,68 L28.52,68 Z" id="Shape" fill="#575757"></path>
                <polygon id="Shape" stroke="url(#linearGradient-2)" stroke-width="2" fill="url(#linearGradient-1)" stroke-linecap="round" stroke-linejoin="round" points="0 37.98 41.78 38 56.94 19.25 41.78 0.35 0 0"></polygon>
                <path d="M28.67,28.72 C27.4609728,29.6052332 26.0593192,30.1912546 24.58,30.43 L24.58,32.49 C24.6676823,33.1456726 24.3670538,33.7926688 23.8093843,34.148477 C23.2517147,34.5042851 22.5382853,34.5042851 21.9806157,34.148477 C21.4229462,33.7926688 21.1223177,33.1456726 21.21,32.49 L21.21,30.49 C19.5430461,30.3075338 17.9532998,29.690257 16.6,28.7 C15.9673892,28.1903011 15.3755868,27.6319339 14.83,27.03 C13.83,25.8 15.29,24.61 16.83,23.98 L17.67,23.62 C18.4788039,23.6971654 19.1973427,24.1687065 19.59,24.88 C19.7464972,25.0850159 19.9278899,25.2697677 20.13,25.43 C20.8767408,25.9497466 21.7705633,26.2161408 22.68,26.19 C23.5897165,26.2182832 24.4841979,25.9516926 25.23,25.43 C25.8187928,25.0173837 26.163684,24.3388476 26.15,23.62 C26.1532984,22.9548032 25.8029754,22.3379302 25.23,22 C24.3529812,21.4501523 23.3529519,21.1271187 22.32,21.06 C20.4474377,20.8993667 18.6601738,20.2052836 17.17,19.06 C15.7247396,17.9764724 14.8610778,16.2860575 14.83,14.48 C14.83,11.24 17.58,8.56 21.21,8 L21.21,6 C21.1223177,5.34432737 21.4229462,4.69733119 21.9806157,4.34152303 C22.5382853,3.98571487 23.2517147,3.98571487 23.8093843,4.34152303 C24.3670538,4.69733119 24.6676823,5.34432737 24.58,6 L24.58,8.18 C26.4048937,8.67555584 28.1073345,9.54380065 29.58,10.73 C30.78,11.83 29.38,12.96 28.01,13.84 L27.01,14.49 C26.2953337,14.429826 25.6577292,14.0172584 25.31,13.39 C24.5936671,12.6641583 23.6095148,12.2661556 22.59,12.29 C21.2684287,12.1916816 20.1117805,13.1703839 19.99,14.49 C19.9954128,15.0465628 20.2667569,15.5669487 20.72,15.89 C21.3838082,16.3783392 22.1768818,16.660089 23,16.7 C25.024653,16.8665986 26.9714281,17.5557225 28.65,18.7 C30.3238643,19.8166332 31.3381357,21.6879827 31.36,23.7 C31.3045244,25.7037443 30.3076534,27.5640761 28.67,28.72 Z" id="Shape" fill="#FFFFFF"></path>
            </g>
        </g>
    </g>
</svg>