<?xml version="1.0" encoding="UTF-8"?>
<svg width="83px" height="75px" viewBox="0 0 83 75" version="1.1" xmlns="http://www.w3.org/2000/svg" xmlns:xlink="http://www.w3.org/1999/xlink">
    <!-- Generator: Sketch 49 (51002) - http://www.bohemiancoding.com/sketch -->
    <title>Page 1</title>
    <desc>Created with Sketch.</desc>
    <defs>
        <polygon id="path-1" points="0.815616317 0.0645542857 13.2150106 0.0645542857 13.2150106 25.616968 0.815616317 25.616968"></polygon>
        <polygon id="path-3" points="0.0886188679 0.561107843 56.7294113 0.561107843 56.7294113 55 0.0886188679 55"></polygon>
    </defs>
    <g id="Page-1" stroke="none" stroke-width="1" fill="none" fill-rule="evenodd">
        <g id="Brighten-home-Copy-11" transform="translate(-414.000000, -992.000000)">
            <g id="Page-1" transform="translate(414.000000, 992.000000)">
                <g id="Group-3" transform="translate(56.000000, 0.000000)">
                    <mask id="mask-2" fill="white">
                        <use xlink:href="#path-1"></use>
                    </mask>
                    <g id="Clip-2"></g>
                    <path d="M4.03566154,0.063908 C2.12843077,2.90971943 0.895353846,6.84775371 0.818892308,11.1455537 C0.704738462,18.0866623 3.58550769,23.8536851 7.64335385,25.616968 C8.9292,19.6011251 8.45966154,11.5419423 6.06458462,8.75537371 C8.65566154,11.7606023 10.1267385,18.8352766 9.16827692,25.0353109 C11.6075077,22.2142737 13.1432,18.4227309 13.2121231,14.2735766 C13.3359692,7.47034229 9.46335385,1.835808 4.03566154,0.063908" id="Fill-1" fill="#2BAE4A" mask="url(#mask-2)"></path>
                </g>
                <path d="M77.8543396,22.3688963 C80.0848302,22.9816722 81.890566,24.2663954 83,25.8279208 C81.0283774,29.001117 77.3450566,30.6970318 73.8307925,29.7282242 C71.6901132,29.1455355 70.0037736,27.6752746 69.010566,25.7928191 C72.0514717,27.1998969 76.0243019,27.1968882 78.0867925,25.9562929 C76.1701132,27.1046208 71.8803019,26.3434148 69,24.7588225 C70.6990189,22.4441143 74.2618868,21.3810334 77.8543396,22.3688963" id="Fill-4" fill="#2BAE4A"></path>
                <path d="M73.1594488,11.7953582 C74.7700632,10.1682728 76.6543414,9.21241324 78.3882667,9 C79.6495,12.1713296 78.9485745,16.1264641 76.395821,18.6998504 C74.8446988,20.2621498 72.9030918,21.0278995 71.0004252,20.9992237 C73.6245692,19.0450219 75.7035489,15.6209206 75.8917604,13.2716302 C75.7219374,15.4488658 72.9203986,18.7964984 70.2519059,20.523418 C69.4633647,17.9776454 70.5515299,14.4218478 73.1594488,11.7953582" id="Fill-6" fill="#2BAE4A"></path>
                <path d="M82.2058684,37.9896399 L43.0675873,3.64129522 C42.1063075,2.80466145 40.9181485,2.76800481 39.933213,3.64129522 L0.794931955,37.9896399 C-0.172799383,38.8381331 -0.270647773,40.3097892 0.576654776,41.2790337 L3.13039025,44.2029394 C3.97446703,45.1732621 5.44326815,45.2713725 6.40992423,44.4218011 L41.5009378,13.6280718 L76.5887256,44.4218011 C77.5564569,45.2713725 79.0252581,45.1732621 79.8704101,44.2029394 L82.4241456,41.2790337 C83.2703729,40.3097892 83.1725245,38.8381331 82.2058684,37.9896399" id="Fill-8" fill="#2BAE4A"></path>
                <g id="Group-12" transform="translate(13.000000, 20.000000)">
                    <mask id="mask-4" fill="white">
                        <use xlink:href="#path-3"></use>
                    </mask>
                    <g id="Clip-11"></g>
                    <path d="M55.2915057,23.4432647 L30.5717887,1.80561765 C30.5717887,1.80561765 29.1295811,0.561107843 28.3208264,0.561107843 C27.4185057,0.561107843 27.0808075,1.11326471 26.2365623,1.80777451 L1.52867547,23.4432647 C0.851128302,24.0353235 0.0886188679,24.6349314 0.0886188679,26.2277745 L0.0886188679,52.7841471 C0.0886188679,54.0092451 1.07805283,55.0003235 2.29871321,55.0003235 L54.5214679,55.0003235 C55.7399774,55.0003235 56.7294113,54.0092451 56.7294113,52.7841471 L56.7294113,26.2277745 C56.7294113,24.6327745 55.9862604,24.0245392 55.2915057,23.4432647" id="Fill-10" fill="#565656" mask="url(#mask-4)"></path>
                </g>
                <path d="M47.1766515,62.6349302 C45.9521375,63.6130909 44.4372006,64.2594335 42.7997092,64.5577455 L42.7997092,66.8750676 C42.7997092,68.0488603 41.9943518,69 40.9994986,69 C40.0067051,69 39.2003179,68.0488603 39.2003179,66.8750676 L39.2003179,64.6452936 C37.3475839,64.4021045 35.628733,63.7233366 34.2641568,62.6349302 C33.7976263,62.2652828 32.7337719,61.226595 32.3661087,60.766157 C31.2620894,59.3761961 32.858386,58.0446006 34.4536527,57.3355692 L35.3527281,56.936739 C36.2775503,56.936739 36.9428455,57.6360429 37.4145254,58.3439934 C37.566946,58.5720507 37.7605613,58.7784913 37.9912519,58.9687192 C38.6112329,59.464825 39.5576823,59.8150173 40.7204042,59.8150173 C41.8841559,59.8150173 42.8285455,59.464825 43.4485265,58.9687192 C44.0643881,58.4596433 44.4186629,57.852211 44.4320512,56.936739 C44.4032149,56.0309947 44.1230906,55.6029818 43.4979603,55.0928251 C42.8666507,54.6064469 41.7502729,54.1816766 40.3815773,54.0379248 C38.3208099,53.8109483 36.381567,53.0705725 34.8758989,51.80707 C33.3702308,50.5586992 32.3578698,48.7018152 32.3702282,46.6536224 C32.3722879,43.0252408 35.3156529,40.0151 39.2003179,39.3784849 L39.2003179,37.1238516 C39.2003179,35.9511397 40.0067051,35 40.9994986,35 C41.9943518,35 42.7997092,35.9511397 42.7997092,37.1238516 L42.7997092,39.5751979 C44.8542974,40.14372 47.0664555,41.3650698 48.1910722,42.4372636 C49.4794381,43.6672601 47.9850985,44.9383285 46.5175355,45.9294593 L45.4454421,46.6536224 C44.629786,46.6536224 44.0324621,46.0526751 43.6246341,45.4268684 C43.1447153,44.6854118 41.7523327,44.1882252 40.7204042,44.1860635 C39.1848698,44.1882252 37.9397585,45.2917634 37.9376988,46.6536224 C37.951087,47.3313094 38.1961958,47.7766157 38.7111302,48.2305687 C39.2270945,48.6704708 40.0684972,49.0347141 41.0602609,49.1395556 C43.2518216,49.3827447 45.3815902,50.0431383 47.1076503,51.3369043 C48.8398896,52.6090536 50.0273283,54.6615698 49.9995218,56.936739 C50.0118802,59.1989382 48.9130103,61.2655053 47.1766515,62.6349302" id="Fill-13" fill="#FEFEFE"></path>
            </g>
        </g>
    </g>
</svg>