<?xml version="1.0" encoding="UTF-8"?>
<svg width="53px" height="72px" viewBox="0 0 53 72" version="1.1" xmlns="http://www.w3.org/2000/svg" xmlns:xlink="http://www.w3.org/1999/xlink">
    <!-- Generator: Sketch 49 (51002) - http://www.bohemiancoding.com/sketch -->
    <title>Page 1</title>
    <desc>Created with Sketch.</desc>
    <defs>
        <polygon id="path-1" points="0.674561629 0.396640867 36.378026 0.396640867 36.378026 40.8644415 0.674561629 40.8644415"></polygon>
        <polygon id="path-3" points="0.0495815 0.738105882 34.8371915 0.738105882 34.8371915 4.23529412 0.0495815 4.23529412"></polygon>
    </defs>
    <g id="Page-1" stroke="none" stroke-width="1" fill="none" fill-rule="evenodd">
        <g id="Brighten-home-Copy-11" transform="translate(-1327.000000, -1000.000000)">
            <g id="Page-1" transform="translate(1327.000000, 1000.000000)">
                <g id="Group-3" transform="translate(6.360000, 0.000000)">
                    <mask id="mask-2" fill="white">
                        <use xlink:href="#path-1"></use>
                    </mask>
                    <g id="Clip-2"></g>
                    <path d="M18.4094565,37.9119121 C12.0708124,37.9119121 6.84189471,30.2062124 5.85001529,22.9134539 C6.32467706,20.2869307 7.78576235,14.63507 11.9824271,10.4676241 C15.2090359,13.9395901 21.1112094,17.9375127 31.0463712,17.5962929 C31.1085682,18.4884632 31.1402124,19.448008 31.1402124,20.4781876 C31.1402124,28.3751443 25.4606388,37.9119121 18.4094565,37.9119121 M34.0722035,18.725361 C33.8670624,13.356039 32.6973212,9.80800495 30.9361624,7.38360557 L30.9405271,7.38360557 C29.7085888,5.46125573 27.0897653,3.34656223 25.4137182,2.41853127 C12.6469535,-4.64928297 1.01064765,8.33228359 2.79144765,17.8733981 C2.77289765,18.1896241 2.75653,18.513457 2.74452706,18.8438099 C1.43511529,19.4458347 0.455238824,20.8444012 0.717121176,24.011008 C0.995371176,27.3666985 2.68887706,28.8782805 4.52860059,29.2694879 C7.13214765,35.6222619 12.2966859,40.8644415 18.4094565,40.8644415 C24.5080418,40.8644415 29.6627594,35.6483424 32.2717624,29.3162155 C34.2075094,29.011943 36.0450506,27.5199214 36.3353035,24.011008 C36.6135535,20.657491 35.4950976,19.267618 34.0722035,18.725361" id="Fill-1" fill="#434242" mask="url(#mask-2)"></path>
                </g>
                <path d="M40.5642949,41.7686641 L38.7116779,41.2941176 L32.2533256,41.2952529 L26.4879201,46.9341821 L20.1734284,41.2986588 L14.1598359,41.3009293 L12.3753056,41.7686641 C5.08673491,43.6554973 0,50.425164 0,58.1927407 L0,68.3898138 C0,70.3981218 1.51987071,72 3.46363599,72 L49.4111724,72 C51.3527413,72 53,70.3981218 53,68.3898138 L53,58.1927407 C53,50.425164 47.8528656,43.6554973 40.5642949,41.7686641" id="Fill-4" fill="#434242"></path>
                <g id="Group-8" transform="translate(9.540000, 67.764706)">
                    <mask id="mask-4" fill="white">
                        <use xlink:href="#path-3"></use>
                    </mask>
                    <g id="Clip-7"></g>
                    <path d="M34.8371915,3.01775294 L34.8371915,0.738105882 L0.0495815,0.738105882 L0.0495815,3.01775294 C0.0495815,3.69010588 0.6307265,4.2354 1.34589525,4.2354 L33.5431303,4.2354 C34.2571728,4.2354 34.8371915,3.69010588 34.8371915,3.01775294" id="Fill-6" fill="#2BAE4A" mask="url(#mask-4)"></path>
                </g>
                <path d="M44.5174772,50.0714547 C44.5634037,49.3317697 43.9764408,48.7058824 43.2337759,48.7058824 L8.7060205,48.7058824 C7.95439437,48.7058824 7.3618307,49.3429263 7.42455956,50.0915366 L8.78443157,68.8235294 L43.382757,68.8235294 L44.5174772,50.0714547 Z" id="Fill-9" fill="#2BAE4A"></path>
                <path d="M27.6231113,66.4450331 C27.1894514,66.810783 26.6547054,67.0519984 26.0764924,67.1630697 L26.0764924,68.0292014 C26.0764924,68.4678769 25.7914293,68.8235294 25.4406601,68.8235294 C25.0888801,68.8235294 24.8048279,68.4678769 24.8048279,68.0292014 L24.8048279,67.1956058 C24.1487785,67.1058512 23.5422612,66.8522945 23.06008,66.4450331 C22.8942987,66.3070354 22.5192689,65.9188469 22.3888677,65.7460693 C21.9996858,65.2277367 22.5637468,64.7295988 23.1267969,64.4648228 L23.4442076,64.3156058 C23.7707161,64.3156058 24.0072578,64.577016 24.1730391,64.841792 C24.2276257,64.9270588 24.2953534,65.0033502 24.3772333,65.0751539 C24.5965903,65.2602727 24.9301748,65.3915388 25.3415957,65.3915388 C25.7520056,65.3915388 26.0855901,65.2602727 26.3049472,65.0751539 C26.5222825,64.8844254 26.6476294,64.6577951 26.6526837,64.3156058 C26.6425751,63.9767822 26.5445215,63.8174679 26.3231427,63.6267394 C26.0997422,63.4449864 25.705506,63.2867939 25.2213031,63.2329412 C24.4934824,63.1476743 23.808118,62.8705571 23.2753937,62.3993455 C22.7446911,61.9326217 22.3858351,61.2381457 22.3908894,60.4729879 C22.3919002,59.1176938 23.4320773,57.9923958 24.8048279,57.7545462 L24.8048279,56.9119751 C24.8048279,56.4732996 25.0888801,56.1176471 25.4406601,56.1176471 C25.7914293,56.1176471 26.0764924,56.4732996 26.0764924,56.9119751 L26.0764924,57.8274718 C26.8022913,58.0406389 27.5836876,58.4972653 27.9809564,58.8966732 C28.4368552,59.3577873 27.9081744,59.8323646 27.390613,60.2026023 L27.0115397,60.4729879 C26.7224332,60.4729879 26.511163,60.2486015 26.3676206,60.0141176 C26.1977958,59.7370004 25.7065168,59.5518816 25.3415957,59.5507596 C24.7987627,59.5518816 24.3590378,59.9647526 24.3580269,60.4729879 C24.3620703,60.7265446 24.4490045,60.8925906 24.6319705,61.0620023 C24.8139257,61.2269264 25.1111191,61.3626802 25.4608774,61.4019478 C26.2362086,61.4928243 26.9882899,61.7396494 27.5988506,62.2232022 C28.2104221,62.6989014 28.6299298,63.4651811 28.6198212,64.3156058 C28.6248755,65.1615427 28.2356937,65.933432 27.6231113,66.4450331" id="Fill-11" fill="#FEFEFE"></path>
            </g>
        </g>
    </g>
</svg>