<?xml version="1.0" encoding="UTF-8"?>
<svg width="68px" height="66px" viewBox="0 0 68 66" version="1.1" xmlns="http://www.w3.org/2000/svg" xmlns:xlink="http://www.w3.org/1999/xlink">
    <!-- Generator: Sketch 49 (51002) - http://www.bohemiancoding.com/sketch -->
    <title>Asset 3</title>
    <desc>Created with Sketch.</desc>
    <defs>
        <linearGradient x1="-0.0617755903%" y1="50.0145682%" x2="100.262354%" y2="50.0145682%" id="linearGradient-1">
            <stop stop-color="#06A54C" offset="0%"></stop>
            <stop stop-color="#06A54C" offset="100%"></stop>
        </linearGradient>
    </defs>
    <g id="Page-1" stroke="none" stroke-width="1" fill="none" fill-rule="evenodd">
        <g id="Brighten-Home-Loan" transform="translate(-416.000000, -840.000000)" fill-rule="nonzero">
            <g id="Asset-3" transform="translate(417.000000, 841.000000)">
                <path d="M58.21,12.05 L52.76,6.6 C48.1595712,2.98721074 42.6568801,0.704510475 36.85,3.55271368e-15 L29.13,3.55271368e-15 C27.1978332,0.228102597 25.2901304,0.629724238 23.43,1.2 L23.43,10.9 C32.7106228,6.65339961 43.6797505,9.03057534 50.3697033,16.7382408 C57.059656,24.4459062 57.8701728,35.6403597 52.3602974,44.2313345 C46.850422,52.8223092 36.3381366,56.7548128 26.5425793,53.8893932 C16.7470219,51.0239735 10.0113254,42.0460495 10,31.84 C10,31.11 10,30.39 10.11,29.67 C10.11,29.51 10.11,29.35 10.17,29.18 C10.24,28.63 10.31,28.08 10.42,27.54 C10.8206969,25.4260864 11.5175612,23.379258 12.49,21.46 L17.34,24.25 L17.34,4.3 L0,14.29 L4.61,16.94 C3.64267896,18.7784697 2.85889128,20.7077932 2.27,22.7 C2.22,22.87 2.19,23.04 2.14,23.22 C2.09,23.4 1.97,23.83 1.9,24.15 C1.76,24.68 1.64,25.22 1.54,25.76 C1.48,26.07 1.42,26.37 1.37,26.68 C1.27,27.27 1.2,27.87 1.14,28.47 C1.14,28.73 1.07,28.99 1.05,29.25 C0.98,30.11 0.94,30.98 0.94,31.85 C0.924157088,45.9018763 10.0551868,58.3285622 23.4699819,62.5117128 C36.8847771,66.6948634 51.4606358,61.6607231 59.4345823,50.0904311 C67.4085288,38.5201392 66.9243843,23.1070334 58.24,12.06 L58.21,12.05 Z" id="Shape" stroke="#575757" stroke-width="2" fill="#575757" stroke-linecap="round" stroke-linejoin="round"></path>
                <path d="M39.28,42.08 C37.9057618,43.0825017 36.311193,43.7409043 34.63,44 L34.63,46.35 C34.7046999,47.0790446 34.3578662,47.7870259 33.7360262,48.1748419 C33.1141862,48.5626578 32.3258138,48.5626578 31.7039738,48.1748419 C31.0821338,47.7870259 30.7353001,47.0790446 30.81,46.35 L30.81,44.11 C28.9147595,43.9158217 27.1040586,43.2260309 25.56,42.11 C24.8507326,41.526664 24.1824847,40.8951697 23.56,40.22 C22.39,38.81 24.08,37.46 25.77,36.74 L26.77,36.34 C27.6888796,36.4250209 28.5074487,36.9557826 28.96,37.76 C29.1312791,38.0017383 29.3367567,38.2173214 29.57,38.4 C31.33709,39.5338496 33.60291,39.5338496 35.37,38.4 C36.0180312,37.9164264 36.3909075,37.1483011 36.37,36.34 C36.3974445,35.5848069 36.015085,34.8736182 35.37,34.48 C34.3767326,33.8452755 33.2368575,33.4767962 32.06,33.41 C29.9348239,33.228031 27.9055439,32.4440698 26.21,31.15 C24.5657149,29.9133714 23.5841404,27.9871238 23.55,25.93 C23.55,22.26 26.68,19.21 30.81,18.57 L30.81,16.26 C30.7353001,15.5309554 31.0821338,14.8229741 31.7039738,14.4351581 C32.3258138,14.0473422 33.1141862,14.0473422 33.7360262,14.4351581 C34.3578662,14.8229741 34.7046999,15.5309554 34.63,16.26 L34.63,18.74 C36.7225743,19.2932486 38.6750216,20.2813981 40.36,21.64 C41.73,22.88 40.14,24.17 38.58,25.17 L37.44,25.9 C36.628585,25.8389912 35.902745,25.3726484 35.51,24.66 C34.6965106,23.8349527 33.5783255,23.3826125 32.42,23.41 C31.6915958,23.3405096 30.9655308,23.5641753 30.4024926,24.0314971 C29.8394543,24.4988188 29.4858728,25.1712597 29.42,25.9 C29.4246995,26.5330546 29.7288428,27.1265049 30.24,27.5 C30.9687961,28.0313213 31.830822,28.3498208 32.73,28.42 C35.0277821,28.5985808 37.2414958,29.3628801 39.16,30.64 C41.0551205,31.9086568 42.2034918,34.0295901 42.23,36.31 C42.2103725,38.5906208 41.1172614,40.7286721 39.28,42.08 Z" id="Shape" fill="url(#linearGradient-1)"></path>
            </g>
        </g>
    </g>
</svg>