<?xml version="1.0" encoding="UTF-8"?>
<svg width="65px" height="72px" viewBox="0 0 65 72" version="1.1" xmlns="http://www.w3.org/2000/svg" xmlns:xlink="http://www.w3.org/1999/xlink">
    <!-- Generator: Sketch 49 (51002) - http://www.bohemiancoding.com/sketch -->
    <title>Asset 2</title>
    <desc>Created with Sketch.</desc>
    <defs>
        <linearGradient x1="0%" y1="49.943852%" x2="99.9495334%" y2="49.943852%" id="linearGradient-1">
            <stop stop-color="#06A54C" offset="0%"></stop>
            <stop stop-color="#06A54C" offset="100%"></stop>
        </linearGradient>
    </defs>
    <g id="Page-1" stroke="none" stroke-width="1" fill="none" fill-rule="evenodd">
        <g id="Brighten-home-Copy-11" transform="translate(-873.000000, -1527.000000)" fill-rule="nonzero">
            <g id="Asset-2" transform="translate(873.000000, 1527.000000)">
                <path d="M32.7020597,36.7087654 C33.7476934,37.0632181 34.6756806,37.694836 35.3855152,38.5352113 C36.9380125,33.5966648 38.192348,23.6379429 37.2567371,23.3318346 C36.3211261,23.0257264 31.2318139,31.6987936 29.453125,36.5965257 C29.8760349,36.4812697 30.3105011,36.4128288 30.7485863,36.3924535 C31.412353,36.3964741 32.0714284,36.5031935 32.7020597,36.7087654 Z" id="Shape" fill="#424242"></path>
                <path d="M26.6467198,41.6430753 C26.2580728,42.7901258 26.3431067,44.0442092 26.8830627,45.1286707 C27.4230187,46.2131321 28.3735291,47.0388622 29.5249081,47.4237023 C29.9979197,47.5783819 30.4921846,47.6587659 30.9899786,47.6619718 C33.224116,47.6494509 35.1235201,46.0323436 35.4858149,43.8343243 C35.8481096,41.636305 34.5676695,39.4981961 32.4550492,38.7734808 C31.9784445,38.618883 31.4807716,38.5385147 30.9795881,38.5352113 C29.0177611,38.5421587 27.2769816,39.7907787 26.6467198,41.6430753 Z" id="Shape" fill="#424242"></path>
                <path d="M54.4863484,23.6523971 L49.3664134,18.5625806 C45.0541444,15.2125902 39.9015257,13.1002983 34.4674025,12.4548008 L34.4674025,8.81049215 L39.2289421,8.81049215 C41.5921534,8.69749366 43.4497894,6.75982637 43.4497894,4.40780087 C43.4497894,2.05577538 41.5921534,0.118108089 39.2289421,0.00510959215 L22.527714,0.00510959215 C20.8946696,-0.0729754964 19.3509103,0.748676859 18.5108667,2.14304142 C17.670823,3.53740598 17.670823,5.27819576 18.5108667,6.67256032 C19.3509103,8.06692489 20.8946696,8.88857724 22.527714,8.81049215 L27.2790137,8.81049215 L27.2790137,12.4446211 C25.4674156,12.6596569 23.6786361,13.0343853 21.9338016,13.5643808 L21.9338016,22.5835356 C30.6191364,18.6696983 40.859942,20.9097339 47.0906208,28.0862446 C53.3212997,35.2627552 54.0534554,45.6614022 48.8891814,53.6308057 C43.7249073,61.6002092 33.8978552,65.2366228 24.7487587,62.5637553 C15.5996622,59.8908878 9.31407513,51.5472388 9.30804185,42.0673532 C9.30804185,41.3853178 9.30804185,40.713462 9.41044055,40.0314266 C9.41044055,39.8787321 9.4616399,39.7362173 9.47187977,39.5835228 C9.53331899,39.0643615 9.60499808,38.5655595 9.70739678,38.0463982 C10.0868336,36.0819501 10.741747,34.1801673 11.6529721,32.3967019 L16.1789946,34.9925083 L16.1789946,16.4350373 L0,25.7290422 L4.31098528,28.2026931 C3.40541447,29.9258008 2.67147917,31.7327983 2.11965309,33.5978986 C2.11965309,33.7607727 2.03773413,33.9236468 1.99677465,34.0763413 C1.95581517,34.2290358 1.8431766,34.6565804 1.77149751,34.9416101 C1.64861907,35.4404121 1.5359805,35.9595734 1.4335818,36.4481958 C1.4335818,36.7332255 1.32094323,37.0182553 1.27998375,37.303285 C1.18782492,37.8529852 1.11614583,38.412865 1.05470661,38.9625652 C1.05470661,39.2068764 0.993267392,39.4511875 0.972787652,39.6954987 C0.911348432,40.4996897 0.870388952,41.3038808 0.870388952,42.1182514 C0.860402249,55.2006723 9.41880105,66.7658315 21.9849729,70.6508696 C34.5511448,74.5359076 48.1978961,69.8358346 55.6531256,59.0552326 C63.108355,48.2746305 62.6354238,33.9247582 54.4863484,23.6523971 Z" id="Shape" fill="url(#linearGradient-1)"></path>
                <path d="M54.91234,10.1408451 C53.4143734,11.8526266 52.4153269,13.9687606 52.0308916,16.2441961 C51.2928364,20.2747109 52.3544227,23.9178775 54.4573745,25.3521127 C55.7616091,21.9811366 56.287347,17.2492076 55.2055401,15.3857488 C56.3682298,17.3957717 56.5097746,21.6670706 55.3774159,25.163673 C57.1071706,23.6723091 58.2800104,21.6025947 58.6936092,19.3115749 C59.4989715,15.727966 57.9689339,12.0171586 54.91234,10.1408451 Z" id="Shape" fill="#2BAF4A"></path>
                <path d="M62.3770492,24.9159878 C63.5301172,25.457081 64.457781,26.3828188 65,27.5334927 C63.6541393,29.2823687 61.2866051,29.8898992 59.2622951,29.0058393 C58.098167,28.4193215 57.2326563,27.3739685 56.875,26.122494 C58.3784299,27.2469323 60.3145825,27.6235664 62.1311475,27.1449569 C60.9016393,27.6561883 58.4836066,26.7666456 57.0081967,25.5090163 C58.4942559,24.2031502 60.6407824,23.9660508 62.3770492,24.9159878 Z" id="Shape" fill="#2BAF4A"></path>
                <path d="M61.5247278,18.304573 C62.4898022,17.6062624 63.6775324,17.2312295 64.8975856,17.2395729 C65.3089414,19.2348967 64.4609619,21.2741408 62.7164,22.4849473 C61.7440952,23.1791752 60.5054198,23.4607373 59.3009825,23.2613025 C60.9987923,22.4470547 62.3113239,21.0701861 62.9823982,19.3994329 C62.6632003,20.6037789 60.6628935,22.2162089 58.9073051,22.9328445 C58.8693364,21.0713276 59.8582945,19.3225973 61.5247278,18.304573 Z" id="Shape" fill="#2BAF4A"></path>
            </g>
        </g>
    </g>
</svg>