<?xml version="1.0" encoding="UTF-8"?>
<svg width="59px" height="59px" viewBox="0 0 59 59" version="1.1" xmlns="http://www.w3.org/2000/svg" xmlns:xlink="http://www.w3.org/1999/xlink">
    <!-- Generator: Sketch 49 (51002) - http://www.bohemiancoding.com/sketch -->
    <title>Asset 15</title>
    <desc>Created with Sketch.</desc>
    <defs></defs>
    <g id="Page-1" stroke="none" stroke-width="1" fill="none" fill-rule="evenodd">
        <g id="How-much-I-can-borrow" transform="translate(-328.000000, -815.000000)" fill="#2BAF49" fill-rule="nonzero">
            <g id="Asset-15" transform="translate(327.000000, 815.000000)">
                <path d="M30.24,-4.23516474e-22 C18.4085695,6.91441654e-07 7.74232597,7.12761688 3.21556828,18.0588205 C-1.31118941,28.9900242 1.19314982,41.5717549 9.5606648,49.9364092 C17.9281798,58.3010635 30.5107661,60.8011004 41.4404212,56.2706051 C52.3700764,51.7401099 59.4940449,41.0714298 59.49,29.24 C59.4900005,21.4833369 56.4079938,14.0445126 50.9222671,8.56066138 C45.4365403,3.07681013 37.9966626,-0.00265275755 30.24,-4.23516474e-22 Z M33.62,8.21 C33.7364425,8.19977205 33.8535575,8.19977205 33.97,8.21 C35.5560389,8.168252 36.9224456,9.31981485 37.15,10.89 C37.86,13.89 34.71,16.83 31.82,15.64 C28.36,14.04 30.1,8.38 33.62,8.21 Z M32.2,21.11 C34.44,20.97 34.84,23.58 34.14,26.23 C32.77,32.31 30.65,38.23 29.49,44.34 C30.05,46.76 33.1,43.98 34.41,43.1 C35.52,42.21 35.71,43.32 36.09,44.25 C33.3440738,46.2799404 30.456735,48.1112618 27.45,49.73 C24.55,51.49 22.17,48.73 22.9,45.73 C24.09,40 25.67,34.43 27,28.77 C27.41,25.71 23.38,28.82 22.18,29.53 C21.18,30.75 20.75,29.86 20.35,28.77 C23.56,26.42 26.84,23.54 30.35,21.68 C30.9297553,21.3688057 31.5652332,21.1751039 32.22,21.11 L32.2,21.11 Z" id="Shape"></path>
            </g>
        </g>
    </g>
</svg>